G04*
G04 #@! TF.GenerationSoftware,Altium Limited,CircuitMaker,2.2.1 (2.2.1.6)*
G04*
G04 Layer_Color=20142*
%FSLAX42Y42*%
%MOMM*%
G71*
G04*
G04 #@! TF.SameCoordinates,5355ADBA-153D-489E-8AFD-21DFC59981DC*
G04*
G04*
G04 #@! TF.FilePolarity,Negative*
G04*
G01*
G75*
%ADD22R,0.58X1.35*%
%ADD23R,1.40X0.75*%
%ADD24R,1.90X1.30*%
%ADD25R,1.47X1.09*%
%ADD26R,0.75X0.75*%
%ADD27R,3.00X1.70*%
%ADD28R,2.10X1.70*%
%ADD29R,1.55X1.30*%
%ADD30C,0.20*%
%ADD31C,2.20*%
%ADD32R,2.20X2.20*%
%ADD33O,1.73X2.24*%
%ADD34R,1.73X2.24*%
G04:AMPARAMS|DCode=35|XSize=1.35mm|YSize=2.55mm|CornerRadius=0.68mm|HoleSize=0mm|Usage=FLASHONLY|Rotation=270.000|XOffset=0mm|YOffset=0mm|HoleType=Round|Shape=RoundedRectangle|*
%AMROUNDEDRECTD35*
21,1,1.35,1.20,0,0,270.0*
21,1,0.00,2.55,0,0,270.0*
1,1,1.35,-0.60,0.00*
1,1,1.35,-0.60,0.00*
1,1,1.35,0.60,0.00*
1,1,1.35,0.60,0.00*
%
%ADD35ROUNDEDRECTD35*%
G04:AMPARAMS|DCode=36|XSize=1.35mm|YSize=3.25mm|CornerRadius=0.68mm|HoleSize=0mm|Usage=FLASHONLY|Rotation=270.000|XOffset=0mm|YOffset=0mm|HoleType=Round|Shape=RoundedRectangle|*
%AMROUNDEDRECTD36*
21,1,1.35,1.90,0,0,270.0*
21,1,0.00,3.25,0,0,270.0*
1,1,1.35,-0.95,0.00*
1,1,1.35,-0.95,0.00*
1,1,1.35,0.95,0.00*
1,1,1.35,0.95,0.00*
%
%ADD36ROUNDEDRECTD36*%
%ADD37C,0.75*%
%ADD38C,1.47*%
D22*
X4261Y9841D02*
D03*
X4197D02*
D03*
X4134D02*
D03*
X4070D02*
D03*
X4007D02*
D03*
X3943D02*
D03*
X4324D02*
D03*
X4388D02*
D03*
X4451D02*
D03*
X4515D02*
D03*
X4197Y10377D02*
D03*
X4261D02*
D03*
X4324D02*
D03*
X4388D02*
D03*
X4451D02*
D03*
X4515D02*
D03*
X4134D02*
D03*
X4070D02*
D03*
X4007D02*
D03*
X3943D02*
D03*
D23*
X3115Y11030D02*
D03*
Y11125D02*
D03*
Y11220D02*
D03*
X2854D02*
D03*
Y11030D02*
D03*
D24*
X5271Y11290D02*
D03*
Y11030D02*
D03*
X5791Y11293D02*
D03*
Y11033D02*
D03*
X6274Y11293D02*
D03*
Y11033D02*
D03*
D25*
X4635Y8941D02*
D03*
Y9131D02*
D03*
X3645Y9125D02*
D03*
Y8934D02*
D03*
X3048D02*
D03*
Y9125D02*
D03*
X3353D02*
D03*
Y8934D02*
D03*
X3950Y9125D02*
D03*
Y8934D02*
D03*
X4267Y8941D02*
D03*
Y9131D02*
D03*
D26*
X3416Y11100D02*
D03*
Y11010D02*
D03*
X3594Y11100D02*
D03*
Y11010D02*
D03*
D27*
X6680Y11001D02*
D03*
Y11301D02*
D03*
D28*
X7125Y11013D02*
D03*
Y11313D02*
D03*
D29*
X7468Y11176D02*
D03*
Y11316D02*
D03*
D30*
X5271Y11160D02*
D03*
D31*
X4600Y10878D02*
D03*
X3950D02*
D03*
X4600Y11328D02*
D03*
D32*
X3950D02*
D03*
D33*
X7610Y10632D02*
D03*
X7409D02*
D03*
X7209D02*
D03*
X7008D02*
D03*
X6807D02*
D03*
X6607D02*
D03*
X6406D02*
D03*
X6205D02*
D03*
X6005D02*
D03*
X5804Y8433D02*
D03*
X6005D02*
D03*
X6205D02*
D03*
X6406D02*
D03*
X6607D02*
D03*
X6807D02*
D03*
X7008D02*
D03*
X7209D02*
D03*
X7409D02*
D03*
X7610D02*
D03*
D34*
X5804Y10632D02*
D03*
D35*
X2680Y10592D02*
D03*
Y9728D02*
D03*
D36*
X3125D02*
D03*
Y10592D02*
D03*
D37*
X3040Y9862D02*
D03*
Y9947D02*
D03*
Y10032D02*
D03*
Y10117D02*
D03*
Y10202D02*
D03*
Y10287D02*
D03*
Y10372D02*
D03*
Y10457D02*
D03*
X3175Y9862D02*
D03*
Y9947D02*
D03*
Y10032D02*
D03*
Y10117D02*
D03*
Y10202D02*
D03*
Y10287D02*
D03*
Y10372D02*
D03*
Y10457D02*
D03*
D38*
X4267Y8636D02*
D03*
X3912Y9449D02*
D03*
X4750Y10249D02*
D03*
X3581Y10719D02*
D03*
X3378Y10478D02*
D03*
X6312Y8776D02*
D03*
Y9296D02*
D03*
X3696Y11443D02*
D03*
X6325Y9030D02*
D03*
X5488Y10257D02*
D03*
X5055Y10592D02*
D03*
X2807Y8687D02*
D03*
X5258Y10770D02*
D03*
X5359Y9639D02*
D03*
X5182Y10262D02*
D03*
X5004D02*
D03*
X5182Y9639D02*
D03*
X5017Y9373D02*
D03*
X3289Y11379D02*
D03*
X2705Y10833D02*
D03*
X3289Y11011D02*
D03*
X4851Y11430D02*
D03*
X4699Y9525D02*
D03*
X2794Y9347D02*
D03*
X3518Y10084D02*
D03*
M02*
