G04*
G04 #@! TF.GenerationSoftware,Altium Limited,CircuitMaker,2.2.1 (2.2.1.6)*
G04*
G04 Layer_Physical_Order=3*
G04 Layer_Color=11436288*
%FSLAX42Y42*%
%MOMM*%
G71*
G04*
G04 #@! TF.SameCoordinates,5355ADBA-153D-489E-8AFD-21DFC59981DC*
G04*
G04*
G04 #@! TF.FilePolarity,Positive*
G04*
G01*
G75*
%ADD11C,0.25*%
%ADD39C,2.00*%
%ADD40R,2.00X2.00*%
%ADD41O,1.52X2.03*%
%ADD42R,1.52X2.03*%
G04:AMPARAMS|DCode=43|XSize=1.3mm|YSize=2.5mm|CornerRadius=0.65mm|HoleSize=0mm|Usage=FLASHONLY|Rotation=270.000|XOffset=0mm|YOffset=0mm|HoleType=Round|Shape=RoundedRectangle|*
%AMROUNDEDRECTD43*
21,1,1.30,1.20,0,0,270.0*
21,1,0.00,2.50,0,0,270.0*
1,1,1.30,-0.60,0.00*
1,1,1.30,-0.60,0.00*
1,1,1.30,0.60,0.00*
1,1,1.30,0.60,0.00*
%
%ADD43ROUNDEDRECTD43*%
G04:AMPARAMS|DCode=44|XSize=1.3mm|YSize=3.2mm|CornerRadius=0.65mm|HoleSize=0mm|Usage=FLASHONLY|Rotation=270.000|XOffset=0mm|YOffset=0mm|HoleType=Round|Shape=RoundedRectangle|*
%AMROUNDEDRECTD44*
21,1,1.30,1.90,0,0,270.0*
21,1,0.00,3.20,0,0,270.0*
1,1,1.30,-0.95,0.00*
1,1,1.30,-0.95,0.00*
1,1,1.30,0.95,0.00*
1,1,1.30,0.95,0.00*
%
%ADD44ROUNDEDRECTD44*%
%ADD45C,0.70*%
%ADD46C,1.27*%
G36*
X3040Y9827D02*
X3012D01*
X3006D01*
X2993Y9832D01*
X2983Y9842D01*
X2977Y9855D01*
Y9862D01*
Y9869D01*
X2983Y9882D01*
X2993Y9892D01*
X3006Y9897D01*
X3012D01*
D01*
X3040D01*
Y9827D01*
D02*
G37*
G36*
Y9912D02*
X3012D01*
X3006D01*
X2993Y9917D01*
X2983Y9927D01*
X2977Y9940D01*
Y9947D01*
Y9954D01*
X2983Y9967D01*
X2993Y9977D01*
X3006Y9982D01*
X3012D01*
D01*
X3040D01*
Y9912D01*
D02*
G37*
G36*
X3175Y9897D02*
X3203D01*
X3209D01*
X3222Y9892D01*
X3232Y9882D01*
X3238Y9869D01*
Y9862D01*
Y9855D01*
X3232Y9842D01*
X3222Y9832D01*
X3209Y9827D01*
X3203D01*
D01*
X3175D01*
Y9897D01*
D02*
G37*
G36*
Y9982D02*
X3203D01*
X3209D01*
X3222Y9977D01*
X3232Y9967D01*
X3238Y9954D01*
Y9947D01*
Y9940D01*
X3232Y9927D01*
X3222Y9917D01*
X3209Y9912D01*
X3203D01*
D01*
X3175D01*
Y9982D01*
D02*
G37*
G36*
X3040Y9997D02*
X3012D01*
X3006D01*
X2993Y10002D01*
X2983Y10012D01*
X2977Y10025D01*
Y10032D01*
Y10039D01*
X2983Y10052D01*
X2993Y10062D01*
X3006Y10067D01*
X3012D01*
D01*
X3040D01*
Y9997D01*
D02*
G37*
G36*
Y10082D02*
X3012D01*
X3006D01*
X2993Y10087D01*
X2983Y10097D01*
X2977Y10110D01*
Y10117D01*
Y10124D01*
X2983Y10137D01*
X2993Y10147D01*
X3006Y10152D01*
X3012D01*
D01*
X3040D01*
Y10082D01*
D02*
G37*
G36*
X3175Y10067D02*
X3203D01*
X3209D01*
X3222Y10062D01*
X3232Y10052D01*
X3238Y10039D01*
Y10032D01*
Y10025D01*
X3232Y10012D01*
X3222Y10002D01*
X3209Y9997D01*
X3203D01*
D01*
X3175D01*
Y10067D01*
D02*
G37*
G36*
Y10152D02*
X3203D01*
X3209D01*
X3222Y10147D01*
X3232Y10137D01*
X3238Y10124D01*
Y10117D01*
Y10110D01*
X3232Y10097D01*
X3222Y10087D01*
X3209Y10082D01*
X3203D01*
D01*
X3175D01*
Y10152D01*
D02*
G37*
G36*
X3040Y10167D02*
X3012D01*
X3006D01*
X2993Y10172D01*
X2983Y10182D01*
X2977Y10195D01*
Y10202D01*
Y10209D01*
X2983Y10222D01*
X2993Y10232D01*
X3006Y10237D01*
X3012D01*
D01*
X3040D01*
Y10167D01*
D02*
G37*
G36*
Y10252D02*
X3012D01*
X3006D01*
X2993Y10257D01*
X2983Y10267D01*
X2977Y10280D01*
Y10287D01*
Y10294D01*
X2983Y10307D01*
X2993Y10317D01*
X3006Y10322D01*
X3012D01*
D01*
X3040D01*
Y10252D01*
D02*
G37*
G36*
X3175Y10237D02*
X3203D01*
X3209D01*
X3222Y10232D01*
X3232Y10222D01*
X3238Y10209D01*
Y10202D01*
Y10195D01*
X3232Y10182D01*
X3222Y10172D01*
X3209Y10167D01*
X3203D01*
D01*
X3175D01*
Y10237D01*
D02*
G37*
G36*
Y10322D02*
X3203D01*
X3209D01*
X3222Y10317D01*
X3232Y10307D01*
X3238Y10294D01*
Y10287D01*
Y10280D01*
X3232Y10267D01*
X3222Y10257D01*
X3209Y10252D01*
X3203D01*
D01*
X3175D01*
Y10322D01*
D02*
G37*
G36*
X3040Y10337D02*
X3012D01*
X3006D01*
X2993Y10342D01*
X2983Y10352D01*
X2977Y10365D01*
Y10372D01*
Y10379D01*
X2983Y10392D01*
X2993Y10402D01*
X3006Y10407D01*
X3012D01*
D01*
X3040D01*
Y10337D01*
D02*
G37*
G36*
Y10422D02*
X3012D01*
X3006D01*
X2993Y10427D01*
X2983Y10437D01*
X2977Y10450D01*
Y10457D01*
Y10464D01*
X2983Y10477D01*
X2993Y10487D01*
X3006Y10492D01*
X3012D01*
D01*
X3040D01*
Y10422D01*
D02*
G37*
G36*
X3175Y10407D02*
X3203D01*
X3209D01*
X3222Y10402D01*
X3232Y10392D01*
X3238Y10379D01*
Y10372D01*
Y10365D01*
X3232Y10352D01*
X3222Y10342D01*
X3209Y10337D01*
X3203D01*
D01*
X3175D01*
Y10407D01*
D02*
G37*
G36*
Y10492D02*
X3203D01*
X3209D01*
X3222Y10487D01*
X3232Y10477D01*
X3238Y10464D01*
Y10457D01*
Y10450D01*
X3232Y10437D01*
X3222Y10427D01*
X3209Y10422D01*
X3203D01*
D01*
X3175D01*
Y10492D01*
D02*
G37*
D11*
X4737Y10236D02*
X4750Y10249D01*
X4737Y9766D02*
Y10236D01*
X4420Y9449D02*
X4737Y9766D01*
X3912Y9449D02*
X4420D01*
X6287Y9271D02*
X6312Y9296D01*
X3823Y9271D02*
X6287D01*
X3696Y9398D02*
X3823Y9271D01*
X3696Y9398D02*
Y11443D01*
X2982Y9959D02*
X3052D01*
X3024Y10732D02*
X3569D01*
X3581Y10719D01*
X2927Y10634D02*
X3024Y10732D01*
X4661Y9030D02*
X6325D01*
X4267Y8636D02*
X4661Y9030D01*
X5258Y10770D02*
X5359Y10668D01*
Y9639D02*
Y10668D01*
X4699Y9525D02*
X4851Y9677D01*
Y11430D01*
X5182Y9639D02*
Y10262D01*
X5004D02*
X5017Y10249D01*
Y9373D02*
Y10249D01*
X2705Y10833D02*
X3111D01*
X3289Y11011D01*
X2794Y9347D02*
X2959Y9512D01*
X3518Y9538D02*
Y10084D01*
X3492Y9512D02*
X3518Y9538D01*
X2959Y9512D02*
X3492D01*
X2927Y10014D02*
Y10634D01*
Y10014D02*
X2982Y9959D01*
X3040Y9947D02*
X3052Y9959D01*
X3040Y9947D02*
X3040D01*
D39*
X4600Y10878D02*
D03*
X3950D02*
D03*
X4600Y11328D02*
D03*
D40*
X3950D02*
D03*
D41*
X7610Y10632D02*
D03*
X7409D02*
D03*
X7209D02*
D03*
X7008D02*
D03*
X6807D02*
D03*
X6607D02*
D03*
X6406D02*
D03*
X6205D02*
D03*
X6005D02*
D03*
X5804Y8433D02*
D03*
X6005D02*
D03*
X6205D02*
D03*
X6406D02*
D03*
X6607D02*
D03*
X6807D02*
D03*
X7008D02*
D03*
X7209D02*
D03*
X7409D02*
D03*
X7610D02*
D03*
D42*
X5804Y10632D02*
D03*
D43*
X2680Y10592D02*
D03*
Y9728D02*
D03*
D44*
X3125D02*
D03*
Y10592D02*
D03*
D45*
X3040Y9862D02*
D03*
Y9947D02*
D03*
Y10032D02*
D03*
Y10117D02*
D03*
Y10202D02*
D03*
Y10287D02*
D03*
Y10372D02*
D03*
Y10457D02*
D03*
X3175Y9862D02*
D03*
Y9947D02*
D03*
Y10032D02*
D03*
Y10117D02*
D03*
Y10202D02*
D03*
Y10287D02*
D03*
Y10372D02*
D03*
Y10457D02*
D03*
D46*
X4267Y8636D02*
D03*
X3912Y9449D02*
D03*
X4750Y10249D02*
D03*
X3581Y10719D02*
D03*
X6312Y9296D02*
D03*
X3696Y11443D02*
D03*
X6325Y9030D02*
D03*
X5488Y10257D02*
D03*
X5258Y10770D02*
D03*
X5359Y9639D02*
D03*
X5182Y10262D02*
D03*
X5004D02*
D03*
X5182Y9639D02*
D03*
X5017Y9373D02*
D03*
X2705Y10833D02*
D03*
X3289Y11011D02*
D03*
X4851Y11430D02*
D03*
X4699Y9525D02*
D03*
X2794Y9347D02*
D03*
X3518Y10084D02*
D03*
M02*
