G04*
G04 #@! TF.GenerationSoftware,Altium Limited,CircuitMaker,2.2.1 (2.2.1.6)*
G04*
G04 Layer_Color=2752767*
%FSLAX42Y42*%
%MOMM*%
G71*
G04*
G04 #@! TF.SameCoordinates,5355ADBA-153D-489E-8AFD-21DFC59981DC*
G04*
G04*
G04 #@! TF.FilePolarity,Positive*
G04*
G01*
G75*
%ADD51C,0.05*%
%ADD52C,0.07*%
D51*
X4579Y10858D02*
Y10899D01*
X4620D01*
Y10858D01*
X4579D01*
X3929D02*
Y10899D01*
X3970D01*
Y10858D01*
X3929D01*
X4579Y11308D02*
Y11349D01*
X4620D01*
Y11308D01*
X4579D01*
X3929D02*
Y11349D01*
X3970D01*
Y11308D01*
X3929D01*
X2710Y10571D02*
X2690Y10612D01*
X2730D01*
X2710Y10571D01*
Y9707D02*
X2690Y9748D01*
X2730D01*
X2710Y9707D01*
X3125D02*
X3135Y9717D01*
X3145D01*
X3135Y9728D01*
X3145Y9738D01*
X3135D01*
X3125Y9748D01*
X3115Y9738D01*
X3105D01*
X3115Y9728D01*
X3105Y9717D01*
X3115D01*
X3125Y9707D01*
Y10571D02*
X3135Y10581D01*
X3145D01*
X3135Y10592D01*
X3145Y10602D01*
X3135D01*
X3125Y10612D01*
X3115Y10602D01*
X3105D01*
X3115Y10592D01*
X3105Y10581D01*
X3115D01*
X3125Y10571D01*
X3020Y9842D02*
X3030Y9862D01*
X3020Y9882D01*
X3040Y9872D01*
X3060Y9882D01*
X3050Y9862D01*
X3060Y9842D01*
X3040Y9852D01*
X3020Y9842D01*
Y9927D02*
X3030Y9947D01*
X3020Y9967D01*
X3040Y9957D01*
X3060Y9967D01*
X3050Y9947D01*
X3060Y9927D01*
X3040Y9937D01*
X3020Y9927D01*
Y10012D02*
X3030Y10032D01*
X3020Y10052D01*
X3040Y10042D01*
X3060Y10052D01*
X3050Y10032D01*
X3060Y10012D01*
X3040Y10022D01*
X3020Y10012D01*
Y10097D02*
X3030Y10117D01*
X3020Y10137D01*
X3040Y10127D01*
X3060Y10137D01*
X3050Y10117D01*
X3060Y10097D01*
X3040Y10107D01*
X3020Y10097D01*
Y10182D02*
X3030Y10202D01*
X3020Y10222D01*
X3040Y10212D01*
X3060Y10222D01*
X3050Y10202D01*
X3060Y10182D01*
X3040Y10192D01*
X3020Y10182D01*
Y10267D02*
X3030Y10287D01*
X3020Y10307D01*
X3040Y10297D01*
X3060Y10307D01*
X3050Y10287D01*
X3060Y10267D01*
X3040Y10277D01*
X3020Y10267D01*
Y10352D02*
X3030Y10372D01*
X3020Y10392D01*
X3040Y10382D01*
X3060Y10392D01*
X3050Y10372D01*
X3060Y10352D01*
X3040Y10362D01*
X3020Y10352D01*
Y10437D02*
X3030Y10457D01*
X3020Y10477D01*
X3040Y10467D01*
X3060Y10477D01*
X3050Y10457D01*
X3060Y10437D01*
X3040Y10447D01*
X3020Y10437D01*
X3155Y9842D02*
X3165Y9862D01*
X3155Y9882D01*
X3175Y9872D01*
X3195Y9882D01*
X3185Y9862D01*
X3195Y9842D01*
X3175Y9852D01*
X3155Y9842D01*
Y9927D02*
X3165Y9947D01*
X3155Y9967D01*
X3175Y9957D01*
X3195Y9967D01*
X3185Y9947D01*
X3195Y9927D01*
X3175Y9937D01*
X3155Y9927D01*
Y10012D02*
X3165Y10032D01*
X3155Y10052D01*
X3175Y10042D01*
X3195Y10052D01*
X3185Y10032D01*
X3195Y10012D01*
X3175Y10022D01*
X3155Y10012D01*
Y10097D02*
X3165Y10117D01*
X3155Y10137D01*
X3175Y10127D01*
X3195Y10137D01*
X3185Y10117D01*
X3195Y10097D01*
X3175Y10107D01*
X3155Y10097D01*
Y10182D02*
X3165Y10202D01*
X3155Y10222D01*
X3175Y10212D01*
X3195Y10222D01*
X3185Y10202D01*
X3195Y10182D01*
X3175Y10192D01*
X3155Y10182D01*
Y10267D02*
X3165Y10287D01*
X3155Y10307D01*
X3175Y10297D01*
X3195Y10307D01*
X3185Y10287D01*
X3195Y10267D01*
X3175Y10277D01*
X3155Y10267D01*
Y10352D02*
X3165Y10372D01*
X3155Y10392D01*
X3175Y10382D01*
X3195Y10392D01*
X3185Y10372D01*
X3195Y10352D01*
X3175Y10362D01*
X3155Y10352D01*
Y10437D02*
X3165Y10457D01*
X3155Y10477D01*
X3175Y10467D01*
X3195Y10477D01*
X3185Y10457D01*
X3195Y10437D01*
X3175Y10447D01*
X3155Y10437D01*
X4257Y8626D02*
Y8616D01*
X4277D01*
Y8626D01*
X4288D01*
Y8646D01*
X4277D01*
Y8656D01*
X4257D01*
Y8646D01*
X4247D01*
Y8626D01*
X4257D01*
X3901Y9439D02*
Y9428D01*
X3922D01*
Y9439D01*
X3932D01*
Y9459D01*
X3922D01*
Y9469D01*
X3901D01*
Y9459D01*
X3891D01*
Y9439D01*
X3901D01*
X4740Y10239D02*
Y10229D01*
X4760D01*
Y10239D01*
X4770D01*
Y10259D01*
X4760D01*
Y10269D01*
X4740D01*
Y10259D01*
X4729D01*
Y10239D01*
X4740D01*
X3571Y10709D02*
Y10698D01*
X3592D01*
Y10709D01*
X3602D01*
Y10729D01*
X3592D01*
Y10739D01*
X3571D01*
Y10729D01*
X3561D01*
Y10709D01*
X3571D01*
X6302Y9286D02*
Y9276D01*
X6322D01*
Y9286D01*
X6332D01*
Y9307D01*
X6322D01*
Y9317D01*
X6302D01*
Y9307D01*
X6292D01*
Y9286D01*
X6302D01*
X3686Y11433D02*
Y11422D01*
X3706D01*
Y11433D01*
X3716D01*
Y11453D01*
X3706D01*
Y11463D01*
X3686D01*
Y11453D01*
X3675D01*
Y11433D01*
X3686D01*
X6314Y9020D02*
Y9009D01*
X6335D01*
Y9020D01*
X6345D01*
Y9040D01*
X6335D01*
Y9050D01*
X6314D01*
Y9040D01*
X6304D01*
Y9020D01*
X6314D01*
X5478Y10247D02*
Y10237D01*
X5499D01*
Y10247D01*
X5509D01*
Y10268D01*
X5499D01*
Y10278D01*
X5478D01*
Y10268D01*
X5468D01*
Y10247D01*
X5478D01*
X5248Y10759D02*
Y10749D01*
X5268D01*
Y10759D01*
X5278D01*
Y10780D01*
X5268D01*
Y10790D01*
X5248D01*
Y10780D01*
X5237D01*
Y10759D01*
X5248D01*
X5349Y9629D02*
Y9619D01*
X5370D01*
Y9629D01*
X5380D01*
Y9649D01*
X5370D01*
Y9660D01*
X5349D01*
Y9649D01*
X5339D01*
Y9629D01*
X5349D01*
X5171Y10251D02*
Y10241D01*
X5192D01*
Y10251D01*
X5202D01*
Y10272D01*
X5192D01*
Y10282D01*
X5171D01*
Y10272D01*
X5161D01*
Y10251D01*
X5171D01*
X4994D02*
Y10241D01*
X5014D01*
Y10251D01*
X5024D01*
Y10272D01*
X5014D01*
Y10282D01*
X4994D01*
Y10272D01*
X4983D01*
Y10251D01*
X4994D01*
X5171Y9629D02*
Y9619D01*
X5192D01*
Y9629D01*
X5202D01*
Y9649D01*
X5192D01*
Y9660D01*
X5171D01*
Y9649D01*
X5161D01*
Y9629D01*
X5171D01*
X5006Y9362D02*
Y9352D01*
X5027D01*
Y9362D01*
X5037D01*
Y9383D01*
X5027D01*
Y9393D01*
X5006D01*
Y9383D01*
X4996D01*
Y9362D01*
X5006D01*
X2695Y10823D02*
Y10813D01*
X2715D01*
Y10823D01*
X2725D01*
Y10843D01*
X2715D01*
Y10853D01*
X2695D01*
Y10843D01*
X2685D01*
Y10823D01*
X2695D01*
X3279Y11001D02*
Y10991D01*
X3299D01*
Y11001D01*
X3310D01*
Y11021D01*
X3299D01*
Y11031D01*
X3279D01*
Y11021D01*
X3269D01*
Y11001D01*
X3279D01*
X4841Y11420D02*
Y11410D01*
X4862D01*
Y11420D01*
X4872D01*
Y11440D01*
X4862D01*
Y11450D01*
X4841D01*
Y11440D01*
X4831D01*
Y11420D01*
X4841D01*
X4689Y9515D02*
Y9505D01*
X4709D01*
Y9515D01*
X4719D01*
Y9535D01*
X4709D01*
Y9545D01*
X4689D01*
Y9535D01*
X4679D01*
Y9515D01*
X4689D01*
X2784Y9337D02*
Y9327D01*
X2804D01*
Y9337D01*
X2814D01*
Y9357D01*
X2804D01*
Y9368D01*
X2784D01*
Y9357D01*
X2774D01*
Y9337D01*
X2784D01*
X3508Y10074D02*
Y10063D01*
X3528D01*
Y10074D01*
X3538D01*
Y10094D01*
X3528D01*
Y10104D01*
X3508D01*
Y10094D01*
X3498D01*
Y10074D01*
X3508D01*
D52*
X7630Y10632D02*
G03*
X7630Y10632I-20J0D01*
G01*
X7429D02*
G03*
X7429Y10632I-20J0D01*
G01*
X7229D02*
G03*
X7229Y10632I-20J0D01*
G01*
X7028D02*
G03*
X7028Y10632I-20J0D01*
G01*
X6828D02*
G03*
X6828Y10632I-20J0D01*
G01*
X6627D02*
G03*
X6627Y10632I-20J0D01*
G01*
X6426D02*
G03*
X6426Y10632I-20J0D01*
G01*
X6226D02*
G03*
X6226Y10632I-20J0D01*
G01*
X6025D02*
G03*
X6025Y10632I-20J0D01*
G01*
X5824D02*
G03*
X5824Y10632I-20J0D01*
G01*
Y8433D02*
G03*
X5824Y8433I-20J0D01*
G01*
X6025D02*
G03*
X6025Y8433I-20J0D01*
G01*
X6226D02*
G03*
X6226Y8433I-20J0D01*
G01*
X6426D02*
G03*
X6426Y8433I-20J0D01*
G01*
X6627D02*
G03*
X6627Y8433I-20J0D01*
G01*
X6828D02*
G03*
X6828Y8433I-20J0D01*
G01*
X7028D02*
G03*
X7028Y8433I-20J0D01*
G01*
X7229D02*
G03*
X7229Y8433I-20J0D01*
G01*
X7429D02*
G03*
X7429Y8433I-20J0D01*
G01*
X7630D02*
G03*
X7630Y8433I-20J0D01*
G01*
M02*
