G04*
G04 #@! TF.GenerationSoftware,Altium Limited,CircuitMaker,2.2.1 (2.2.1.6)*
G04*
G04 Layer_Color=15138737*
%FSLAX42Y42*%
%MOMM*%
G71*
G04*
G04 #@! TF.SameCoordinates,5355ADBA-153D-489E-8AFD-21DFC59981DC*
G04*
G04*
G04 #@! TF.FilePolarity,Positive*
G04*
G01*
G75*
%ADD47C,0.10*%
%ADD49C,0.15*%
D47*
X5360Y10990D02*
Y11330D01*
X5181Y10990D02*
Y11330D01*
X5360D01*
X5181Y10990D02*
X5360D01*
X5881Y10993D02*
Y11333D01*
X5701Y10993D02*
Y11333D01*
X5881D01*
X5701Y10993D02*
X5881D01*
X3444Y11002D02*
Y11107D01*
X3389Y11002D02*
Y11107D01*
X3444D01*
X3389Y11002D02*
X3444D01*
X6545Y10981D02*
X6815D01*
X6545Y11321D02*
X6815D01*
X6545Y10981D02*
Y11321D01*
X6815Y10981D02*
Y11321D01*
X7035Y10993D02*
X7215D01*
X7035Y11333D02*
X7215D01*
X7035Y10993D02*
Y11333D01*
X7215Y10993D02*
Y11333D01*
X7395Y11136D02*
X7540D01*
X7395Y11356D02*
X7540D01*
X7395Y11136D02*
Y11356D01*
X7540Y11136D02*
Y11356D01*
X3622Y11002D02*
Y11107D01*
X3567Y11002D02*
Y11107D01*
X3622D01*
X3567Y11002D02*
X3622D01*
X6364Y10993D02*
Y11333D01*
X6184Y10993D02*
Y11333D01*
X6364D01*
X6184Y10993D02*
X6364D01*
D49*
X3065Y10985D02*
Y11265D01*
X2904Y10985D02*
Y11265D01*
X3065D01*
X2904Y10985D02*
X3065D01*
M02*
