G04*
G04 #@! TF.GenerationSoftware,Altium Limited,CircuitMaker,2.2.1 (2.2.1.6)*
G04*
G04 Layer_Color=15314666*
%FSLAX42Y42*%
%MOMM*%
G71*
G04*
G04 #@! TF.SameCoordinates,5355ADBA-153D-489E-8AFD-21DFC59981DC*
G04*
G04*
G04 #@! TF.FilePolarity,Positive*
G04*
G01*
G75*
%ADD10C,0.20*%
%ADD47C,0.10*%
%ADD50C,0.05*%
D10*
X4635Y9004D02*
Y9068D01*
X4604Y9036D02*
X4667D01*
X3613Y9030D02*
X3677D01*
X3645Y8998D02*
Y9061D01*
X3048Y8998D02*
Y9061D01*
X3016Y9030D02*
X3080D01*
X3321D02*
X3385D01*
X3353Y8998D02*
Y9061D01*
X3918Y9030D02*
X3981D01*
X3950Y8998D02*
Y9061D01*
X4267Y9004D02*
Y9068D01*
X4235Y9036D02*
X4299D01*
D47*
X5221Y11160D02*
X5321D01*
X5271Y11110D02*
Y11210D01*
X5741Y11163D02*
X5841D01*
X5791Y11113D02*
Y11213D01*
X3389Y11055D02*
X3444D01*
X3416Y11027D02*
Y11082D01*
X6680Y11101D02*
Y11201D01*
X6630Y11151D02*
X6730D01*
X7125Y11113D02*
Y11213D01*
X7075Y11163D02*
X7175D01*
X7468Y11196D02*
Y11296D01*
X7418Y11246D02*
X7518D01*
X3567Y11055D02*
X3622D01*
X3594Y11027D02*
Y11082D01*
X6224Y11163D02*
X6324D01*
X6274Y11113D02*
Y11213D01*
D50*
X5371Y10965D02*
Y11355D01*
X5171Y10965D02*
Y11355D01*
X5371D01*
X5171Y10965D02*
X5371D01*
X5891Y10968D02*
Y11358D01*
X5691Y10968D02*
Y11358D01*
X5891D01*
X5691Y10968D02*
X5891D01*
X3461Y10965D02*
Y11145D01*
X3371Y10965D02*
Y11145D01*
X3461D01*
X3371Y10965D02*
X3461D01*
X6490Y10876D02*
X6870D01*
X6490Y11426D02*
X6870D01*
X6490Y10876D02*
Y11426D01*
X6870Y10876D02*
Y11426D01*
X6980Y10888D02*
X7270D01*
X6980Y11438D02*
X7270D01*
X6980Y10888D02*
Y11438D01*
X7270Y10888D02*
Y11438D01*
X7383Y11111D02*
X7553D01*
X7383Y11381D02*
X7553D01*
X7383Y11111D02*
Y11381D01*
X7553Y11111D02*
Y11381D01*
X3639Y10965D02*
Y11145D01*
X3549Y10965D02*
Y11145D01*
X3639D01*
X3549Y10965D02*
X3639D01*
X6374Y10968D02*
Y11358D01*
X6174Y10968D02*
Y11358D01*
X6374D01*
X6174Y10968D02*
X6374D01*
M02*
