G04*
G04 #@! TF.GenerationSoftware,Altium Limited,CircuitMaker,2.2.1 (2.2.1.6)*
G04*
G04 Layer_Color=8150272*
%FSLAX42Y42*%
%MOMM*%
G71*
G04*
G04 #@! TF.SameCoordinates,5355ADBA-153D-489E-8AFD-21DFC59981DC*
G04*
G04*
G04 #@! TF.FilePolarity,Negative*
G04*
G01*
G75*
%ADD30C,0.20*%
%ADD31C,2.20*%
%ADD32R,2.20X2.20*%
%ADD33O,1.73X2.24*%
%ADD34R,1.73X2.24*%
G04:AMPARAMS|DCode=35|XSize=1.35mm|YSize=2.55mm|CornerRadius=0.68mm|HoleSize=0mm|Usage=FLASHONLY|Rotation=270.000|XOffset=0mm|YOffset=0mm|HoleType=Round|Shape=RoundedRectangle|*
%AMROUNDEDRECTD35*
21,1,1.35,1.20,0,0,270.0*
21,1,0.00,2.55,0,0,270.0*
1,1,1.35,-0.60,0.00*
1,1,1.35,-0.60,0.00*
1,1,1.35,0.60,0.00*
1,1,1.35,0.60,0.00*
%
%ADD35ROUNDEDRECTD35*%
G04:AMPARAMS|DCode=36|XSize=1.35mm|YSize=3.25mm|CornerRadius=0.68mm|HoleSize=0mm|Usage=FLASHONLY|Rotation=270.000|XOffset=0mm|YOffset=0mm|HoleType=Round|Shape=RoundedRectangle|*
%AMROUNDEDRECTD36*
21,1,1.35,1.90,0,0,270.0*
21,1,0.00,3.25,0,0,270.0*
1,1,1.35,-0.95,0.00*
1,1,1.35,-0.95,0.00*
1,1,1.35,0.95,0.00*
1,1,1.35,0.95,0.00*
%
%ADD36ROUNDEDRECTD36*%
%ADD37C,0.75*%
%ADD38C,1.47*%
G36*
X3041Y9899D02*
X3041Y9899D01*
X3042Y9899D01*
X3042Y9898D01*
X3042Y9898D01*
X3043Y9897D01*
Y9827D01*
X3042Y9826D01*
X3042Y9826D01*
X3042Y9825D01*
X3041Y9825D01*
X3041Y9825D01*
X3040Y9824D01*
X3006D01*
X3005Y9825D01*
X3005D01*
X3005Y9825D01*
X3005Y9825D01*
X3005Y9825D01*
X3005Y9825D01*
X2992Y9830D01*
X2992Y9830D01*
X2991Y9830D01*
X2991Y9830D01*
X2991Y9830D01*
X2991Y9830D01*
X2991Y9831D01*
X2981Y9840D01*
X2981Y9841D01*
X2981Y9841D01*
X2981Y9841D01*
X2981Y9841D01*
X2981Y9841D01*
X2980Y9841D01*
X2975Y9854D01*
X2975Y9854D01*
X2975Y9854D01*
X2975Y9855D01*
X2975Y9855D01*
Y9855D01*
X2975Y9855D01*
Y9862D01*
Y9869D01*
X2975Y9869D01*
Y9869D01*
X2975Y9869D01*
X2975Y9870D01*
X2975Y9870D01*
X2975Y9870D01*
X2980Y9883D01*
X2981Y9883D01*
X2981Y9883D01*
X2981Y9883D01*
X2981Y9883D01*
X2981Y9883D01*
X2981Y9884D01*
X2991Y9893D01*
X2991Y9894D01*
X2991Y9894D01*
X2991Y9894D01*
X2991Y9894D01*
X2992Y9894D01*
X2992Y9894D01*
X3005Y9899D01*
X3005Y9899D01*
X3005Y9899D01*
X3005Y9899D01*
X3005Y9900D01*
X3005D01*
X3006Y9900D01*
X3040D01*
X3041Y9899D01*
D02*
G37*
G36*
Y9984D02*
X3041Y9984D01*
X3042Y9984D01*
X3042Y9983D01*
X3042Y9983D01*
X3043Y9982D01*
Y9912D01*
X3042Y9911D01*
X3042Y9911D01*
X3042Y9910D01*
X3041Y9910D01*
X3041Y9910D01*
X3040Y9909D01*
X3006D01*
X3005Y9910D01*
X3005D01*
X3005Y9910D01*
X3005Y9910D01*
X3005Y9910D01*
X3005Y9910D01*
X2992Y9915D01*
X2992Y9915D01*
X2991Y9915D01*
X2991Y9915D01*
X2991Y9915D01*
X2991Y9915D01*
X2991Y9916D01*
X2981Y9925D01*
X2981Y9926D01*
X2981Y9926D01*
X2981Y9926D01*
X2981Y9926D01*
X2981Y9926D01*
X2980Y9926D01*
X2975Y9939D01*
X2975Y9939D01*
X2975Y9939D01*
X2975Y9940D01*
X2975Y9940D01*
Y9940D01*
X2975Y9940D01*
Y9947D01*
Y9954D01*
X2975Y9954D01*
Y9954D01*
X2975Y9954D01*
X2975Y9955D01*
X2975Y9955D01*
X2975Y9955D01*
X2980Y9968D01*
X2981Y9968D01*
X2981Y9968D01*
X2981Y9968D01*
X2981Y9968D01*
X2981Y9968D01*
X2981Y9969D01*
X2991Y9978D01*
X2991Y9979D01*
X2991Y9979D01*
X2991Y9979D01*
X2991Y9979D01*
X2992Y9979D01*
X2992Y9979D01*
X3005Y9984D01*
X3005Y9984D01*
X3005Y9984D01*
X3005Y9984D01*
X3005Y9985D01*
X3005D01*
X3006Y9985D01*
X3040D01*
X3041Y9984D01*
D02*
G37*
G36*
X3210Y9900D02*
X3210D01*
X3210Y9899D01*
X3210Y9899D01*
X3210Y9899D01*
X3210Y9899D01*
X3223Y9894D01*
X3223Y9894D01*
X3224Y9894D01*
X3224Y9894D01*
X3224Y9894D01*
X3224Y9894D01*
X3224Y9893D01*
X3234Y9884D01*
X3234Y9883D01*
X3234Y9883D01*
X3234Y9883D01*
X3234Y9883D01*
X3234Y9883D01*
X3235Y9883D01*
X3240Y9870D01*
X3240Y9870D01*
X3240Y9870D01*
X3240Y9869D01*
X3240Y9869D01*
Y9869D01*
X3240Y9869D01*
Y9862D01*
Y9855D01*
X3240Y9855D01*
Y9855D01*
X3240Y9855D01*
X3240Y9854D01*
X3240Y9854D01*
X3240Y9854D01*
X3235Y9841D01*
X3234Y9841D01*
X3234Y9841D01*
X3234Y9841D01*
X3234Y9841D01*
X3234Y9841D01*
X3234Y9840D01*
X3224Y9831D01*
X3224Y9830D01*
X3224Y9830D01*
X3224Y9830D01*
X3224Y9830D01*
X3223Y9830D01*
X3223Y9830D01*
X3210Y9825D01*
X3210Y9825D01*
X3210Y9825D01*
X3210Y9825D01*
X3210Y9825D01*
X3210D01*
X3209Y9824D01*
X3175D01*
X3174Y9825D01*
X3174Y9825D01*
X3173Y9825D01*
X3173Y9826D01*
X3173Y9826D01*
X3172Y9827D01*
Y9897D01*
X3173Y9898D01*
X3173Y9898D01*
X3173Y9899D01*
X3174Y9899D01*
X3174Y9899D01*
X3175Y9900D01*
X3209D01*
X3210Y9900D01*
D02*
G37*
G36*
Y9985D02*
X3210D01*
X3210Y9984D01*
X3210Y9984D01*
X3210Y9984D01*
X3210Y9984D01*
X3223Y9979D01*
X3223Y9979D01*
X3224Y9979D01*
X3224Y9979D01*
X3224Y9979D01*
X3224Y9979D01*
X3224Y9978D01*
X3234Y9969D01*
X3234Y9968D01*
X3234Y9968D01*
X3234Y9968D01*
X3234Y9968D01*
X3234Y9968D01*
X3235Y9968D01*
X3240Y9955D01*
X3240Y9955D01*
X3240Y9955D01*
X3240Y9954D01*
X3240Y9954D01*
Y9954D01*
X3240Y9954D01*
Y9947D01*
Y9940D01*
X3240Y9940D01*
Y9940D01*
X3240Y9940D01*
X3240Y9939D01*
X3240Y9939D01*
X3240Y9939D01*
X3235Y9926D01*
X3234Y9926D01*
X3234Y9926D01*
X3234Y9926D01*
X3234Y9926D01*
X3234Y9926D01*
X3234Y9925D01*
X3224Y9916D01*
X3224Y9915D01*
X3224Y9915D01*
X3224Y9915D01*
X3224Y9915D01*
X3223Y9915D01*
X3223Y9915D01*
X3210Y9910D01*
X3210Y9910D01*
X3210Y9910D01*
X3210Y9910D01*
X3210Y9910D01*
X3210D01*
X3209Y9909D01*
X3175D01*
X3174Y9910D01*
X3174Y9910D01*
X3173Y9910D01*
X3173Y9911D01*
X3173Y9911D01*
X3172Y9912D01*
Y9982D01*
X3173Y9983D01*
X3173Y9983D01*
X3173Y9984D01*
X3174Y9984D01*
X3174Y9984D01*
X3175Y9985D01*
X3209D01*
X3210Y9985D01*
D02*
G37*
G36*
X3041Y10069D02*
X3041Y10069D01*
X3042Y10069D01*
X3042Y10068D01*
X3042Y10068D01*
X3043Y10067D01*
Y9997D01*
X3042Y9996D01*
X3042Y9996D01*
X3042Y9995D01*
X3041Y9995D01*
X3041Y9995D01*
X3040Y9994D01*
X3006D01*
X3005Y9994D01*
X3005D01*
X3005Y9995D01*
X3005Y9995D01*
X3005Y9995D01*
X3005Y9995D01*
X2992Y10000D01*
X2992Y10000D01*
X2991Y10000D01*
X2991Y10000D01*
X2991Y10000D01*
X2991Y10000D01*
X2991Y10001D01*
X2981Y10010D01*
X2981Y10011D01*
X2981Y10011D01*
X2981Y10011D01*
X2981Y10011D01*
X2981Y10011D01*
X2980Y10011D01*
X2975Y10024D01*
X2975Y10024D01*
X2975Y10024D01*
X2975Y10025D01*
X2975Y10025D01*
Y10025D01*
X2975Y10025D01*
Y10032D01*
Y10039D01*
X2975Y10039D01*
Y10039D01*
X2975Y10039D01*
X2975Y10040D01*
X2975Y10040D01*
X2975Y10040D01*
X2980Y10053D01*
X2981Y10053D01*
X2981Y10053D01*
X2981Y10053D01*
X2981Y10053D01*
X2981Y10053D01*
X2981Y10054D01*
X2991Y10063D01*
X2991Y10064D01*
X2991Y10064D01*
X2991Y10064D01*
X2991Y10064D01*
X2992Y10064D01*
X2992Y10064D01*
X3005Y10069D01*
X3005Y10069D01*
X3005Y10069D01*
X3005Y10069D01*
X3005Y10069D01*
X3005D01*
X3006Y10070D01*
X3040D01*
X3041Y10069D01*
D02*
G37*
G36*
Y10154D02*
X3041Y10154D01*
X3042Y10154D01*
X3042Y10153D01*
X3042Y10153D01*
X3043Y10152D01*
Y10082D01*
X3042Y10081D01*
X3042Y10081D01*
X3042Y10080D01*
X3041Y10080D01*
X3041Y10080D01*
X3040Y10079D01*
X3006D01*
X3005Y10079D01*
X3005D01*
X3005Y10080D01*
X3005Y10080D01*
X3005Y10080D01*
X3005Y10080D01*
X2992Y10085D01*
X2992Y10085D01*
X2991Y10085D01*
X2991Y10085D01*
X2991Y10085D01*
X2991Y10085D01*
X2991Y10086D01*
X2981Y10095D01*
X2981Y10096D01*
X2981Y10096D01*
X2981Y10096D01*
X2981Y10096D01*
X2981Y10096D01*
X2980Y10096D01*
X2975Y10109D01*
X2975Y10109D01*
X2975Y10109D01*
X2975Y10110D01*
X2975Y10110D01*
Y10110D01*
X2975Y10110D01*
Y10117D01*
Y10124D01*
X2975Y10124D01*
Y10124D01*
X2975Y10124D01*
X2975Y10125D01*
X2975Y10125D01*
X2975Y10125D01*
X2980Y10138D01*
X2981Y10138D01*
X2981Y10138D01*
X2981Y10138D01*
X2981Y10138D01*
X2981Y10138D01*
X2981Y10139D01*
X2991Y10148D01*
X2991Y10149D01*
X2991Y10149D01*
X2991Y10149D01*
X2991Y10149D01*
X2992Y10149D01*
X2992Y10149D01*
X3005Y10154D01*
X3005Y10154D01*
X3005Y10154D01*
X3005Y10154D01*
X3005Y10154D01*
X3005D01*
X3006Y10155D01*
X3040D01*
X3041Y10154D01*
D02*
G37*
G36*
X3210Y10069D02*
X3210D01*
X3210Y10069D01*
X3210Y10069D01*
X3210Y10069D01*
X3210Y10069D01*
X3223Y10064D01*
X3223Y10064D01*
X3224Y10064D01*
X3224Y10064D01*
X3224Y10064D01*
X3224Y10064D01*
X3224Y10063D01*
X3234Y10054D01*
X3234Y10053D01*
X3234Y10053D01*
X3234Y10053D01*
X3234Y10053D01*
X3234Y10053D01*
X3235Y10053D01*
X3240Y10040D01*
X3240Y10040D01*
X3240Y10040D01*
X3240Y10039D01*
X3240Y10039D01*
Y10039D01*
X3240Y10039D01*
Y10032D01*
Y10025D01*
X3240Y10025D01*
Y10025D01*
X3240Y10025D01*
X3240Y10024D01*
X3240Y10024D01*
X3240Y10024D01*
X3235Y10011D01*
X3234Y10011D01*
X3234Y10011D01*
X3234Y10011D01*
X3234Y10011D01*
X3234Y10011D01*
X3234Y10010D01*
X3224Y10001D01*
X3224Y10000D01*
X3224Y10000D01*
X3224Y10000D01*
X3224Y10000D01*
X3223Y10000D01*
X3223Y10000D01*
X3210Y9995D01*
X3210Y9995D01*
X3210Y9995D01*
X3210Y9995D01*
X3210Y9994D01*
X3210D01*
X3209Y9994D01*
X3175D01*
X3174Y9995D01*
X3174Y9995D01*
X3173Y9995D01*
X3173Y9996D01*
X3173Y9996D01*
X3172Y9997D01*
Y10067D01*
X3173Y10068D01*
X3173Y10068D01*
X3173Y10069D01*
X3174Y10069D01*
X3174Y10069D01*
X3175Y10070D01*
X3209D01*
X3210Y10069D01*
D02*
G37*
G36*
Y10154D02*
X3210D01*
X3210Y10154D01*
X3210Y10154D01*
X3210Y10154D01*
X3210Y10154D01*
X3223Y10149D01*
X3223Y10149D01*
X3224Y10149D01*
X3224Y10149D01*
X3224Y10149D01*
X3224Y10149D01*
X3224Y10148D01*
X3234Y10139D01*
X3234Y10138D01*
X3234Y10138D01*
X3234Y10138D01*
X3234Y10138D01*
X3234Y10138D01*
X3235Y10138D01*
X3240Y10125D01*
X3240Y10125D01*
X3240Y10125D01*
X3240Y10124D01*
X3240Y10124D01*
Y10124D01*
X3240Y10124D01*
Y10117D01*
Y10110D01*
X3240Y10110D01*
Y10110D01*
X3240Y10110D01*
X3240Y10109D01*
X3240Y10109D01*
X3240Y10109D01*
X3235Y10096D01*
X3234Y10096D01*
X3234Y10096D01*
X3234Y10096D01*
X3234Y10096D01*
X3234Y10096D01*
X3234Y10095D01*
X3224Y10086D01*
X3224Y10085D01*
X3224Y10085D01*
X3224Y10085D01*
X3224Y10085D01*
X3223Y10085D01*
X3223Y10085D01*
X3210Y10080D01*
X3210Y10080D01*
X3210Y10080D01*
X3210Y10080D01*
X3210Y10079D01*
X3210D01*
X3209Y10079D01*
X3175D01*
X3174Y10080D01*
X3174Y10080D01*
X3173Y10080D01*
X3173Y10081D01*
X3173Y10081D01*
X3172Y10082D01*
Y10152D01*
X3173Y10153D01*
X3173Y10153D01*
X3173Y10154D01*
X3174Y10154D01*
X3174Y10154D01*
X3175Y10155D01*
X3209D01*
X3210Y10154D01*
D02*
G37*
G36*
X3041Y10239D02*
X3041Y10239D01*
X3042Y10239D01*
X3042Y10238D01*
X3042Y10238D01*
X3043Y10237D01*
Y10167D01*
X3042Y10166D01*
X3042Y10166D01*
X3042Y10165D01*
X3041Y10165D01*
X3041Y10165D01*
X3040Y10164D01*
X3006D01*
X3005Y10164D01*
X3005D01*
X3005Y10165D01*
X3005Y10165D01*
X3005Y10165D01*
X3005Y10165D01*
X2992Y10170D01*
X2992Y10170D01*
X2991Y10170D01*
X2991Y10170D01*
X2991Y10170D01*
X2991Y10170D01*
X2991Y10171D01*
X2981Y10180D01*
X2981Y10181D01*
X2981Y10181D01*
X2981Y10181D01*
X2981Y10181D01*
X2981Y10181D01*
X2980Y10181D01*
X2975Y10194D01*
X2975Y10194D01*
X2975Y10194D01*
X2975Y10195D01*
X2975Y10195D01*
Y10195D01*
X2975Y10195D01*
Y10202D01*
Y10209D01*
X2975Y10209D01*
Y10209D01*
X2975Y10209D01*
X2975Y10210D01*
X2975Y10210D01*
X2975Y10210D01*
X2980Y10223D01*
X2981Y10223D01*
X2981Y10223D01*
X2981Y10223D01*
X2981Y10223D01*
X2981Y10223D01*
X2981Y10224D01*
X2991Y10233D01*
X2991Y10234D01*
X2991Y10234D01*
X2991Y10234D01*
X2991Y10234D01*
X2992Y10234D01*
X2992Y10234D01*
X3005Y10239D01*
X3005Y10239D01*
X3005Y10239D01*
X3005Y10239D01*
X3005Y10239D01*
X3005D01*
X3006Y10240D01*
X3040D01*
X3041Y10239D01*
D02*
G37*
G36*
Y10324D02*
X3041Y10324D01*
X3042Y10324D01*
X3042Y10323D01*
X3042Y10323D01*
X3043Y10322D01*
Y10252D01*
X3042Y10251D01*
X3042Y10251D01*
X3042Y10250D01*
X3041Y10250D01*
X3041Y10250D01*
X3040Y10249D01*
X3006D01*
X3005Y10250D01*
X3005D01*
X3005Y10250D01*
X3005Y10250D01*
X3005Y10250D01*
X3005Y10250D01*
X2992Y10255D01*
X2992Y10255D01*
X2991Y10255D01*
X2991Y10255D01*
X2991Y10255D01*
X2991Y10255D01*
X2991Y10256D01*
X2981Y10265D01*
X2981Y10266D01*
X2981Y10266D01*
X2981Y10266D01*
X2981Y10266D01*
X2981Y10266D01*
X2980Y10266D01*
X2975Y10279D01*
X2975Y10279D01*
X2975Y10279D01*
X2975Y10280D01*
X2975Y10280D01*
Y10280D01*
X2975Y10280D01*
Y10287D01*
Y10294D01*
X2975Y10294D01*
Y10294D01*
X2975Y10294D01*
X2975Y10295D01*
X2975Y10295D01*
X2975Y10295D01*
X2980Y10308D01*
X2981Y10308D01*
X2981Y10308D01*
X2981Y10308D01*
X2981Y10308D01*
X2981Y10308D01*
X2981Y10309D01*
X2991Y10318D01*
X2991Y10319D01*
X2991Y10319D01*
X2991Y10319D01*
X2991Y10319D01*
X2992Y10319D01*
X2992Y10319D01*
X3005Y10324D01*
X3005Y10324D01*
X3005Y10324D01*
X3005Y10324D01*
X3005Y10325D01*
X3005D01*
X3006Y10325D01*
X3040D01*
X3041Y10324D01*
D02*
G37*
G36*
X3210Y10239D02*
X3210D01*
X3210Y10239D01*
X3210Y10239D01*
X3210Y10239D01*
X3210Y10239D01*
X3223Y10234D01*
X3223Y10234D01*
X3224Y10234D01*
X3224Y10234D01*
X3224Y10234D01*
X3224Y10234D01*
X3224Y10233D01*
X3234Y10224D01*
X3234Y10223D01*
X3234Y10223D01*
X3234Y10223D01*
X3234Y10223D01*
X3234Y10223D01*
X3235Y10223D01*
X3240Y10210D01*
X3240Y10210D01*
X3240Y10210D01*
X3240Y10209D01*
X3240Y10209D01*
Y10209D01*
X3240Y10209D01*
Y10202D01*
Y10195D01*
X3240Y10195D01*
Y10195D01*
X3240Y10195D01*
X3240Y10194D01*
X3240Y10194D01*
X3240Y10194D01*
X3235Y10181D01*
X3234Y10181D01*
X3234Y10181D01*
X3234Y10181D01*
X3234Y10181D01*
X3234Y10181D01*
X3234Y10180D01*
X3224Y10171D01*
X3224Y10170D01*
X3224Y10170D01*
X3224Y10170D01*
X3224Y10170D01*
X3223Y10170D01*
X3223Y10170D01*
X3210Y10165D01*
X3210Y10165D01*
X3210Y10165D01*
X3210Y10165D01*
X3210Y10164D01*
X3210D01*
X3209Y10164D01*
X3175D01*
X3174Y10165D01*
X3174Y10165D01*
X3173Y10165D01*
X3173Y10166D01*
X3173Y10166D01*
X3172Y10167D01*
Y10237D01*
X3173Y10238D01*
X3173Y10238D01*
X3173Y10239D01*
X3174Y10239D01*
X3174Y10239D01*
X3175Y10240D01*
X3209D01*
X3210Y10239D01*
D02*
G37*
G36*
Y10325D02*
X3210D01*
X3210Y10324D01*
X3210Y10324D01*
X3210Y10324D01*
X3210Y10324D01*
X3223Y10319D01*
X3223Y10319D01*
X3224Y10319D01*
X3224Y10319D01*
X3224Y10319D01*
X3224Y10319D01*
X3224Y10318D01*
X3234Y10309D01*
X3234Y10308D01*
X3234Y10308D01*
X3234Y10308D01*
X3234Y10308D01*
X3234Y10308D01*
X3235Y10308D01*
X3240Y10295D01*
X3240Y10295D01*
X3240Y10295D01*
X3240Y10294D01*
X3240Y10294D01*
Y10294D01*
X3240Y10294D01*
Y10287D01*
Y10280D01*
X3240Y10280D01*
Y10280D01*
X3240Y10280D01*
X3240Y10279D01*
X3240Y10279D01*
X3240Y10279D01*
X3235Y10266D01*
X3234Y10266D01*
X3234Y10266D01*
X3234Y10266D01*
X3234Y10266D01*
X3234Y10266D01*
X3234Y10265D01*
X3224Y10256D01*
X3224Y10255D01*
X3224Y10255D01*
X3224Y10255D01*
X3224Y10255D01*
X3223Y10255D01*
X3223Y10255D01*
X3210Y10250D01*
X3210Y10250D01*
X3210Y10250D01*
X3210Y10250D01*
X3210Y10250D01*
X3210D01*
X3209Y10249D01*
X3175D01*
X3174Y10250D01*
X3174Y10250D01*
X3173Y10250D01*
X3173Y10251D01*
X3173Y10251D01*
X3172Y10252D01*
Y10322D01*
X3173Y10323D01*
X3173Y10323D01*
X3173Y10324D01*
X3174Y10324D01*
X3174Y10324D01*
X3175Y10325D01*
X3209D01*
X3210Y10325D01*
D02*
G37*
G36*
X3041Y10409D02*
X3041Y10409D01*
X3042Y10409D01*
X3042Y10408D01*
X3042Y10408D01*
X3043Y10407D01*
Y10337D01*
X3042Y10336D01*
X3042Y10336D01*
X3042Y10335D01*
X3041Y10335D01*
X3041Y10335D01*
X3040Y10334D01*
X3006D01*
X3005Y10335D01*
X3005D01*
X3005Y10335D01*
X3005Y10335D01*
X3005Y10335D01*
X3005Y10335D01*
X2992Y10340D01*
X2992Y10340D01*
X2991Y10340D01*
X2991Y10340D01*
X2991Y10340D01*
X2991Y10340D01*
X2991Y10341D01*
X2981Y10350D01*
X2981Y10351D01*
X2981Y10351D01*
X2981Y10351D01*
X2981Y10351D01*
X2981Y10351D01*
X2980Y10351D01*
X2975Y10364D01*
X2975Y10364D01*
X2975Y10364D01*
X2975Y10365D01*
X2975Y10365D01*
Y10365D01*
X2975Y10365D01*
Y10372D01*
Y10379D01*
X2975Y10379D01*
Y10379D01*
X2975Y10379D01*
X2975Y10380D01*
X2975Y10380D01*
X2975Y10380D01*
X2980Y10393D01*
X2981Y10393D01*
X2981Y10393D01*
X2981Y10393D01*
X2981Y10393D01*
X2981Y10393D01*
X2981Y10394D01*
X2991Y10403D01*
X2991Y10404D01*
X2991Y10404D01*
X2991Y10404D01*
X2991Y10404D01*
X2992Y10404D01*
X2992Y10404D01*
X3005Y10409D01*
X3005Y10409D01*
X3005Y10409D01*
X3005Y10409D01*
X3005Y10410D01*
X3005D01*
X3006Y10410D01*
X3040D01*
X3041Y10409D01*
D02*
G37*
G36*
Y10494D02*
X3041Y10494D01*
X3042Y10494D01*
X3042Y10493D01*
X3042Y10493D01*
X3043Y10492D01*
Y10422D01*
X3042Y10421D01*
X3042Y10421D01*
X3042Y10420D01*
X3041Y10420D01*
X3041Y10420D01*
X3040Y10419D01*
X3006D01*
X3005Y10419D01*
X3005D01*
X3005Y10420D01*
X3005Y10420D01*
X3005Y10420D01*
X3005Y10420D01*
X2992Y10425D01*
X2992Y10425D01*
X2991Y10425D01*
X2991Y10425D01*
X2991Y10425D01*
X2991Y10425D01*
X2991Y10426D01*
X2981Y10435D01*
X2981Y10436D01*
X2981Y10436D01*
X2981Y10436D01*
X2981Y10436D01*
X2981Y10436D01*
X2980Y10436D01*
X2975Y10449D01*
X2975Y10449D01*
X2975Y10449D01*
X2975Y10450D01*
X2975Y10450D01*
Y10450D01*
X2975Y10450D01*
Y10457D01*
Y10464D01*
X2975Y10464D01*
Y10464D01*
X2975Y10464D01*
X2975Y10465D01*
X2975Y10465D01*
X2975Y10465D01*
X2980Y10478D01*
X2981Y10478D01*
X2981Y10478D01*
X2981Y10478D01*
X2981Y10478D01*
X2981Y10478D01*
X2981Y10479D01*
X2991Y10488D01*
X2991Y10489D01*
X2991Y10489D01*
X2991Y10489D01*
X2991Y10489D01*
X2992Y10489D01*
X2992Y10489D01*
X3005Y10494D01*
X3005Y10494D01*
X3005Y10494D01*
X3005Y10494D01*
X3005Y10494D01*
X3005D01*
X3006Y10495D01*
X3040D01*
X3041Y10494D01*
D02*
G37*
G36*
X3210Y10410D02*
X3210D01*
X3210Y10409D01*
X3210Y10409D01*
X3210Y10409D01*
X3210Y10409D01*
X3223Y10404D01*
X3223Y10404D01*
X3224Y10404D01*
X3224Y10404D01*
X3224Y10404D01*
X3224Y10404D01*
X3224Y10403D01*
X3234Y10394D01*
X3234Y10393D01*
X3234Y10393D01*
X3234Y10393D01*
X3234Y10393D01*
X3234Y10393D01*
X3235Y10393D01*
X3240Y10380D01*
X3240Y10380D01*
X3240Y10380D01*
X3240Y10379D01*
X3240Y10379D01*
Y10379D01*
X3240Y10379D01*
Y10372D01*
Y10365D01*
X3240Y10365D01*
Y10365D01*
X3240Y10365D01*
X3240Y10364D01*
X3240Y10364D01*
X3240Y10364D01*
X3235Y10351D01*
X3234Y10351D01*
X3234Y10351D01*
X3234Y10351D01*
X3234Y10351D01*
X3234Y10351D01*
X3234Y10350D01*
X3224Y10341D01*
X3224Y10340D01*
X3224Y10340D01*
X3224Y10340D01*
X3224Y10340D01*
X3223Y10340D01*
X3223Y10340D01*
X3210Y10335D01*
X3210Y10335D01*
X3210Y10335D01*
X3210Y10335D01*
X3210Y10335D01*
X3210D01*
X3209Y10334D01*
X3175D01*
X3174Y10335D01*
X3174Y10335D01*
X3173Y10335D01*
X3173Y10336D01*
X3173Y10336D01*
X3172Y10337D01*
Y10407D01*
X3173Y10408D01*
X3173Y10408D01*
X3173Y10409D01*
X3174Y10409D01*
X3174Y10409D01*
X3175Y10410D01*
X3209D01*
X3210Y10410D01*
D02*
G37*
G36*
Y10494D02*
X3210D01*
X3210Y10494D01*
X3210Y10494D01*
X3210Y10494D01*
X3210Y10494D01*
X3223Y10489D01*
X3223Y10489D01*
X3224Y10489D01*
X3224Y10489D01*
X3224Y10489D01*
X3224Y10489D01*
X3224Y10488D01*
X3234Y10479D01*
X3234Y10478D01*
X3234Y10478D01*
X3234Y10478D01*
X3234Y10478D01*
X3234Y10478D01*
X3235Y10478D01*
X3240Y10465D01*
X3240Y10465D01*
X3240Y10465D01*
X3240Y10464D01*
X3240Y10464D01*
Y10464D01*
X3240Y10464D01*
Y10457D01*
Y10450D01*
X3240Y10450D01*
Y10450D01*
X3240Y10450D01*
X3240Y10449D01*
X3240Y10449D01*
X3240Y10449D01*
X3235Y10436D01*
X3234Y10436D01*
X3234Y10436D01*
X3234Y10436D01*
X3234Y10436D01*
X3234Y10436D01*
X3234Y10435D01*
X3224Y10426D01*
X3224Y10425D01*
X3224Y10425D01*
X3224Y10425D01*
X3224Y10425D01*
X3223Y10425D01*
X3223Y10425D01*
X3210Y10420D01*
X3210Y10420D01*
X3210Y10420D01*
X3210Y10420D01*
X3210Y10419D01*
X3210D01*
X3209Y10419D01*
X3175D01*
X3174Y10420D01*
X3174Y10420D01*
X3173Y10420D01*
X3173Y10421D01*
X3173Y10421D01*
X3172Y10422D01*
Y10492D01*
X3173Y10493D01*
X3173Y10493D01*
X3173Y10494D01*
X3174Y10494D01*
X3174Y10494D01*
X3175Y10495D01*
X3209D01*
X3210Y10494D01*
D02*
G37*
D30*
X5271Y11160D02*
D03*
D31*
X4600Y10878D02*
D03*
X3950D02*
D03*
X4600Y11328D02*
D03*
D32*
X3950D02*
D03*
D33*
X7610Y10632D02*
D03*
X7409D02*
D03*
X7209D02*
D03*
X7008D02*
D03*
X6807D02*
D03*
X6607D02*
D03*
X6406D02*
D03*
X6205D02*
D03*
X6005D02*
D03*
X5804Y8433D02*
D03*
X6005D02*
D03*
X6205D02*
D03*
X6406D02*
D03*
X6607D02*
D03*
X6807D02*
D03*
X7008D02*
D03*
X7209D02*
D03*
X7409D02*
D03*
X7610D02*
D03*
D34*
X5804Y10632D02*
D03*
D35*
X2680Y10592D02*
D03*
Y9728D02*
D03*
D36*
X3125D02*
D03*
Y10592D02*
D03*
D37*
X3040Y9862D02*
D03*
Y9947D02*
D03*
Y10032D02*
D03*
Y10117D02*
D03*
Y10202D02*
D03*
Y10287D02*
D03*
Y10372D02*
D03*
Y10457D02*
D03*
X3175Y9862D02*
D03*
Y9947D02*
D03*
Y10032D02*
D03*
Y10117D02*
D03*
Y10202D02*
D03*
Y10287D02*
D03*
Y10372D02*
D03*
Y10457D02*
D03*
D38*
X4267Y8636D02*
D03*
X3912Y9449D02*
D03*
X4750Y10249D02*
D03*
X3581Y10719D02*
D03*
X6312Y9296D02*
D03*
X3696Y11443D02*
D03*
X6325Y9030D02*
D03*
X5488Y10257D02*
D03*
X5258Y10770D02*
D03*
X5359Y9639D02*
D03*
X5182Y10262D02*
D03*
X5004D02*
D03*
X5182Y9639D02*
D03*
X5017Y9373D02*
D03*
X2705Y10833D02*
D03*
X3289Y11011D02*
D03*
X4851Y11430D02*
D03*
X4699Y9525D02*
D03*
X2794Y9347D02*
D03*
X3518Y10084D02*
D03*
M02*
