G04*
G04 #@! TF.GenerationSoftware,Altium Limited,CircuitMaker,2.2.1 (2.2.1.6)*
G04*
G04 Layer_Color=7318015*
%FSLAX42Y42*%
%MOMM*%
G71*
G04*
G04 #@! TF.SameCoordinates,5355ADBA-153D-489E-8AFD-21DFC59981DC*
G04*
G04*
G04 #@! TF.FilePolarity,Positive*
G04*
G01*
G75*
%ADD14R,0.38X1.14*%
%ADD15R,1.20X0.55*%
%ADD16R,1.70X1.10*%
%ADD17R,1.40X1.02*%
%ADD18R,0.55X0.55*%
%ADD19R,2.80X1.50*%
%ADD20R,1.90X1.50*%
%ADD21R,1.35X1.10*%
D14*
X4261Y9841D02*
D03*
X4197D02*
D03*
X4134D02*
D03*
X4070D02*
D03*
X4007D02*
D03*
X3943D02*
D03*
X4324D02*
D03*
X4388D02*
D03*
X4451D02*
D03*
X4515D02*
D03*
X4197Y10377D02*
D03*
X4261D02*
D03*
X4324D02*
D03*
X4388D02*
D03*
X4451D02*
D03*
X4515D02*
D03*
X4134D02*
D03*
X4070D02*
D03*
X4007D02*
D03*
X3943D02*
D03*
D15*
X3115Y11030D02*
D03*
Y11125D02*
D03*
Y11220D02*
D03*
X2854D02*
D03*
Y11030D02*
D03*
D16*
X5271Y11290D02*
D03*
Y11030D02*
D03*
X5791Y11293D02*
D03*
Y11033D02*
D03*
X6274Y11293D02*
D03*
Y11033D02*
D03*
D17*
X4635Y8941D02*
D03*
Y9131D02*
D03*
X3645Y9125D02*
D03*
Y8934D02*
D03*
X3048D02*
D03*
Y9125D02*
D03*
X3353D02*
D03*
Y8934D02*
D03*
X3950Y9125D02*
D03*
Y8934D02*
D03*
X4267Y8941D02*
D03*
Y9131D02*
D03*
D18*
X3416Y11100D02*
D03*
Y11010D02*
D03*
X3594Y11100D02*
D03*
Y11010D02*
D03*
D19*
X6680Y11001D02*
D03*
Y11301D02*
D03*
D20*
X7125Y11013D02*
D03*
Y11313D02*
D03*
D21*
X7468Y11176D02*
D03*
Y11316D02*
D03*
M02*
