G04*
G04 #@! TF.GenerationSoftware,Altium Limited,CircuitMaker,2.2.1 (2.2.1.6)*
G04*
G04 Layer_Color=15132400*
%FSLAX42Y42*%
%MOMM*%
G71*
G04*
G04 #@! TF.SameCoordinates,594ED0CD-E859-4A23-B6EA-3589AB250A5C*
G04*
G04*
G04 #@! TF.FilePolarity,Positive*
G04*
G01*
G75*
%ADD10C,0.10*%
%ADD11C,0.25*%
%ADD12C,0.15*%
%ADD13C,0.25*%
%ADD14C,0.81*%
%ADD15C,0.20*%
%ADD16C,0.20*%
%ADD17C,0.13*%
%ADD18C,0.51*%
%ADD19C,0.05*%
%ADD20C,0.12*%
%ADD21C,0.18*%
%ADD22C,0.03*%
%ADD23R,0.58X4.31*%
G36*
X4785Y10308D02*
X4781D01*
Y10310D01*
X4777D01*
Y10312D01*
X4751D01*
Y10288D01*
X4779D01*
Y10279D01*
X4751D01*
Y10249D01*
X4755D01*
Y10242D01*
X4735D01*
Y10249D01*
X4739D01*
Y10260D01*
Y10261D01*
Y10315D01*
X4735D01*
Y10322D01*
X4736D01*
Y10323D01*
X4785D01*
Y10308D01*
D02*
G37*
G36*
X4544D02*
X4540D01*
Y10310D01*
X4537D01*
Y10311D01*
X4536D01*
Y10312D01*
X4521D01*
Y10295D01*
Y10293D01*
Y10249D01*
X4525D01*
Y10243D01*
X4523D01*
Y10242D01*
X4504D01*
Y10249D01*
X4508D01*
Y10312D01*
X4494D01*
Y10310D01*
X4492D01*
Y10308D01*
X4491D01*
Y10310D01*
X4485D01*
Y10323D01*
X4544D01*
Y10308D01*
D02*
G37*
G36*
X4296D02*
X4292D01*
Y10310D01*
X4289D01*
Y10312D01*
X4262D01*
Y10288D01*
X4292D01*
Y10279D01*
X4262D01*
Y10251D01*
X4290D01*
Y10256D01*
X4299D01*
Y10242D01*
X4246D01*
Y10249D01*
X4250D01*
Y10315D01*
X4246D01*
Y10322D01*
X4247D01*
Y10323D01*
X4296D01*
Y10308D01*
D02*
G37*
G36*
X3899D02*
X3895D01*
Y10310D01*
X3892D01*
Y10312D01*
X3865D01*
Y10288D01*
X3895D01*
Y10279D01*
X3865D01*
Y10251D01*
X3893D01*
Y10256D01*
X3902D01*
Y10242D01*
X3849D01*
Y10249D01*
X3853D01*
Y10281D01*
Y10283D01*
Y10315D01*
X3849D01*
Y10323D01*
X3899D01*
Y10308D01*
D02*
G37*
G36*
X3754D02*
X3750D01*
Y10310D01*
X3747D01*
Y10311D01*
X3746D01*
Y10312D01*
X3731D01*
Y10277D01*
Y10276D01*
Y10249D01*
X3735D01*
Y10242D01*
X3715D01*
Y10249D01*
X3719D01*
Y10312D01*
X3704D01*
Y10308D01*
X3701D01*
Y10310D01*
X3696D01*
Y10323D01*
X3754D01*
Y10308D01*
D02*
G37*
G36*
X4426Y10322D02*
X4433D01*
Y10306D01*
X4427D01*
Y10307D01*
X4423D01*
Y10314D01*
X4408D01*
Y10312D01*
X4404D01*
Y10311D01*
X4401D01*
Y10308D01*
X4400D01*
Y10307D01*
X4399D01*
Y10296D01*
X4400D01*
Y10295D01*
X4401D01*
Y10293D01*
X4404D01*
Y10292D01*
X4406D01*
Y10291D01*
X4408D01*
Y10289D01*
X4412D01*
Y10288D01*
X4415D01*
Y10287D01*
X4419D01*
Y10285D01*
X4422D01*
Y10284D01*
X4426D01*
Y10283D01*
X4427D01*
Y10281D01*
X4430D01*
Y10280D01*
X4431D01*
Y10279D01*
X4433D01*
Y10277D01*
X4434D01*
Y10274D01*
X4435D01*
Y10273D01*
X4437D01*
Y10256D01*
X4435D01*
Y10251D01*
X4434D01*
Y10250D01*
X4433D01*
Y10249D01*
X4431D01*
Y10247D01*
X4430D01*
Y10246D01*
X4427D01*
Y10245D01*
X4426D01*
Y10243D01*
X4423D01*
Y10242D01*
X4415D01*
Y10241D01*
X4401D01*
Y10242D01*
X4393D01*
Y10243D01*
X4388D01*
Y10245D01*
X4385D01*
Y10258D01*
X4387D01*
Y10260D01*
X4392D01*
Y10258D01*
X4395D01*
Y10253D01*
X4396D01*
Y10251D01*
X4406D01*
Y10250D01*
X4411D01*
Y10251D01*
X4419D01*
Y10253D01*
X4422D01*
Y10254D01*
X4423D01*
Y10256D01*
X4425D01*
Y10258D01*
X4426D01*
Y10268D01*
X4425D01*
Y10270D01*
X4423D01*
Y10272D01*
X4422D01*
Y10273D01*
X4420D01*
Y10274D01*
X4416D01*
Y10276D01*
X4414D01*
Y10277D01*
X4410D01*
Y10279D01*
X4407D01*
Y10280D01*
X4403D01*
Y10281D01*
X4400D01*
Y10283D01*
X4397D01*
Y10284D01*
X4395D01*
Y10285D01*
X4393D01*
Y10287D01*
X4392D01*
Y10288D01*
X4391D01*
Y10289D01*
X4389D01*
Y10292D01*
X4388D01*
Y10293D01*
X4387D01*
Y10310D01*
X4388D01*
Y10312D01*
X4389D01*
Y10315D01*
X4392D01*
Y10318D01*
X4395D01*
Y10319D01*
X4396D01*
Y10321D01*
X4399D01*
Y10322D01*
X4406D01*
Y10323D01*
X4426D01*
Y10322D01*
D02*
G37*
G36*
X3834Y10315D02*
X3830D01*
Y10312D01*
Y10311D01*
Y10249D01*
X3834D01*
Y10242D01*
X3814D01*
Y10249D01*
X3818D01*
Y10277D01*
X3781D01*
Y10249D01*
X3785D01*
Y10242D01*
X3765D01*
Y10249D01*
X3769D01*
Y10315D01*
X3765D01*
Y10322D01*
X3766D01*
Y10323D01*
X3785D01*
Y10315D01*
X3781D01*
Y10287D01*
X3818D01*
Y10315D01*
X3814D01*
Y10322D01*
X3815D01*
Y10323D01*
X3834D01*
Y10315D01*
D02*
G37*
G36*
X4616Y10322D02*
X4617D01*
Y10315D01*
X4611D01*
Y10312D01*
X4610D01*
Y10310D01*
X4609D01*
Y10307D01*
X4607D01*
Y10303D01*
X4606D01*
Y10302D01*
X4605D01*
Y10299D01*
X4603D01*
Y10296D01*
X4602D01*
Y10293D01*
X4601D01*
Y10291D01*
X4599D01*
Y10288D01*
X4598D01*
Y10285D01*
X4597D01*
Y10283D01*
X4595D01*
Y10280D01*
X4594D01*
Y10277D01*
X4592D01*
Y10274D01*
X4591D01*
Y10273D01*
X4590D01*
Y10249D01*
X4594D01*
Y10245D01*
X4592D01*
Y10242D01*
X4574D01*
Y10249D01*
X4578D01*
Y10270D01*
X4576D01*
Y10274D01*
X4575D01*
Y10276D01*
X4574D01*
Y10280D01*
X4572D01*
Y10281D01*
X4571D01*
Y10284D01*
X4569D01*
Y10287D01*
X4568D01*
Y10289D01*
X4567D01*
Y10292D01*
X4565D01*
Y10295D01*
X4564D01*
Y10297D01*
X4563D01*
Y10300D01*
X4561D01*
Y10303D01*
X4560D01*
Y10306D01*
X4559D01*
Y10308D01*
X4557D01*
Y10311D01*
X4556D01*
Y10314D01*
X4555D01*
Y10315D01*
X4550D01*
Y10322D01*
X4552D01*
Y10323D01*
X4571D01*
Y10315D01*
X4567D01*
Y10314D01*
X4568D01*
Y10311D01*
X4569D01*
Y10308D01*
X4571D01*
Y10306D01*
X4572D01*
Y10303D01*
X4574D01*
Y10299D01*
X4575D01*
Y10297D01*
X4576D01*
Y10293D01*
X4578D01*
Y10291D01*
X4579D01*
Y10289D01*
X4580D01*
Y10285D01*
X4582D01*
Y10283D01*
X4583D01*
Y10281D01*
X4584D01*
Y10284D01*
X4586D01*
Y10287D01*
X4587D01*
Y10289D01*
X4588D01*
Y10292D01*
X4590D01*
Y10295D01*
X4591D01*
Y10297D01*
X4592D01*
Y10300D01*
X4594D01*
Y10303D01*
X4595D01*
Y10306D01*
X4597D01*
Y10308D01*
X4598D01*
Y10311D01*
X4599D01*
Y10314D01*
X4601D01*
Y10315D01*
X4597D01*
Y10323D01*
X4616D01*
Y10322D01*
D02*
G37*
G36*
X4112Y10315D02*
X4106D01*
Y10242D01*
X4097D01*
Y10243D01*
X4095D01*
Y10246D01*
X4094D01*
Y10247D01*
X4093D01*
Y10249D01*
X4091D01*
Y10251D01*
X4090D01*
Y10253D01*
X4089D01*
Y10256D01*
X4087D01*
Y10257D01*
X4086D01*
Y10258D01*
X4084D01*
Y10261D01*
X4083D01*
Y10262D01*
X4082D01*
Y10264D01*
X4080D01*
Y10266D01*
X4079D01*
Y10269D01*
X4078D01*
Y10270D01*
X4076D01*
Y10273D01*
X4074D01*
Y10276D01*
X4072D01*
Y10277D01*
X4071D01*
Y10280D01*
X4070D01*
Y10283D01*
X4068D01*
Y10284D01*
X4067D01*
Y10285D01*
X4066D01*
Y10287D01*
X4064D01*
Y10289D01*
X4063D01*
Y10291D01*
X4061D01*
Y10293D01*
X4060D01*
Y10295D01*
X4059D01*
Y10296D01*
X4057D01*
Y10299D01*
X4056D01*
Y10300D01*
X4055D01*
Y10266D01*
Y10265D01*
Y10249D01*
X4060D01*
Y10243D01*
X4059D01*
Y10242D01*
X4038D01*
Y10243D01*
X4040D01*
Y10249D01*
X4042D01*
Y10315D01*
X4038D01*
Y10318D01*
X4040D01*
Y10323D01*
X4052D01*
Y10322D01*
X4055D01*
Y10319D01*
X4056D01*
Y10318D01*
X4057D01*
Y10315D01*
X4059D01*
Y10314D01*
X4060D01*
Y10312D01*
X4061D01*
Y10310D01*
X4063D01*
Y10308D01*
X4064D01*
Y10306D01*
X4066D01*
Y10304D01*
X4067D01*
Y10302D01*
X4070D01*
Y10299D01*
X4071D01*
Y10296D01*
X4072D01*
Y10295D01*
X4074D01*
Y10292D01*
X4075D01*
Y10291D01*
X4076D01*
Y10289D01*
X4078D01*
Y10287D01*
X4079D01*
Y10285D01*
X4080D01*
Y10283D01*
X4082D01*
Y10281D01*
X4083D01*
Y10280D01*
X4084D01*
Y10277D01*
X4086D01*
Y10276D01*
X4087D01*
Y10274D01*
X4089D01*
Y10272D01*
X4090D01*
Y10270D01*
X4091D01*
Y10268D01*
X4093D01*
Y10266D01*
X4094D01*
Y10265D01*
X4095D01*
Y10315D01*
X4091D01*
Y10322D01*
X4093D01*
Y10323D01*
X4112D01*
Y10315D01*
D02*
G37*
G36*
X4234Y10322D02*
X4235D01*
Y10315D01*
X4231D01*
Y10314D01*
X4229D01*
Y10310D01*
X4228D01*
Y10306D01*
X4227D01*
Y10302D01*
X4225D01*
Y10299D01*
X4224D01*
Y10295D01*
X4223D01*
Y10291D01*
X4221D01*
Y10288D01*
X4220D01*
Y10284D01*
X4219D01*
Y10280D01*
X4217D01*
Y10276D01*
X4216D01*
Y10273D01*
X4215D01*
Y10269D01*
X4213D01*
Y10266D01*
X4212D01*
Y10262D01*
X4210D01*
Y10258D01*
X4209D01*
Y10254D01*
X4208D01*
Y10250D01*
X4206D01*
Y10247D01*
X4205D01*
Y10243D01*
X4204D01*
Y10242D01*
X4192D01*
Y10245D01*
X4190D01*
Y10247D01*
X4189D01*
Y10251D01*
X4187D01*
Y10254D01*
X4186D01*
Y10258D01*
X4185D01*
Y10261D01*
X4183D01*
Y10265D01*
X4182D01*
Y10270D01*
X4181D01*
Y10273D01*
X4179D01*
Y10277D01*
X4178D01*
Y10280D01*
X4177D01*
Y10284D01*
X4175D01*
Y10287D01*
X4174D01*
Y10291D01*
X4173D01*
Y10293D01*
X4171D01*
Y10297D01*
X4170D01*
Y10302D01*
X4168D01*
Y10306D01*
X4167D01*
Y10310D01*
X4166D01*
Y10312D01*
X4164D01*
Y10315D01*
X4160D01*
Y10323D01*
X4179D01*
Y10322D01*
X4181D01*
Y10315D01*
X4177D01*
Y10312D01*
X4178D01*
Y10308D01*
X4179D01*
Y10304D01*
X4181D01*
Y10302D01*
X4182D01*
Y10297D01*
X4183D01*
Y10293D01*
X4185D01*
Y10289D01*
X4186D01*
Y10285D01*
X4187D01*
Y10283D01*
X4189D01*
Y10279D01*
X4190D01*
Y10274D01*
X4192D01*
Y10270D01*
X4193D01*
Y10266D01*
X4194D01*
Y10262D01*
X4196D01*
Y10258D01*
X4197D01*
Y10256D01*
X4198D01*
Y10260D01*
X4200D01*
Y10262D01*
X4201D01*
Y10266D01*
X4202D01*
Y10270D01*
X4204D01*
Y10274D01*
X4205D01*
Y10279D01*
X4206D01*
Y10281D01*
X4208D01*
Y10283D01*
Y10285D01*
X4209D01*
Y10289D01*
X4210D01*
Y10293D01*
X4212D01*
Y10297D01*
X4213D01*
Y10300D01*
X4215D01*
Y10306D01*
X4216D01*
Y10308D01*
X4217D01*
Y10312D01*
X4219D01*
Y10315D01*
X4215D01*
Y10323D01*
X4234D01*
Y10322D01*
D02*
G37*
G36*
X4022D02*
X4024D01*
Y10315D01*
X4019D01*
Y10306D01*
Y10304D01*
Y10266D01*
X4018D01*
Y10258D01*
X4017D01*
Y10254D01*
X4015D01*
Y10251D01*
X4014D01*
Y10249D01*
X4013D01*
Y10247D01*
X4011D01*
Y10246D01*
X4009D01*
Y10245D01*
X4007D01*
Y10243D01*
X4005D01*
Y10242D01*
X4001D01*
Y10241D01*
X3992D01*
Y10239D01*
X3986D01*
Y10241D01*
X3977D01*
Y10242D01*
X3972D01*
Y10243D01*
X3969D01*
Y10245D01*
X3968D01*
Y10246D01*
X3967D01*
Y10247D01*
X3965D01*
Y10249D01*
X3964D01*
Y10251D01*
X3963D01*
Y10254D01*
X3961D01*
Y10261D01*
X3960D01*
Y10315D01*
X3956D01*
Y10323D01*
X3976D01*
Y10315D01*
X3972D01*
Y10261D01*
X3973D01*
Y10256D01*
X3975D01*
Y10254D01*
X3976D01*
Y10253D01*
X3977D01*
Y10251D01*
X3980D01*
Y10250D01*
X3984D01*
Y10249D01*
X3994D01*
Y10250D01*
X3998D01*
Y10251D01*
X4001D01*
Y10253D01*
X4002D01*
Y10254D01*
X4003D01*
Y10256D01*
X4005D01*
Y10258D01*
X4006D01*
Y10262D01*
X4007D01*
Y10315D01*
X4003D01*
Y10323D01*
X4022D01*
Y10322D01*
D02*
G37*
G36*
X4472D02*
X4473D01*
Y10318D01*
X4472D01*
Y10315D01*
X4468D01*
Y10249D01*
X4473D01*
Y10243D01*
X4472D01*
Y10242D01*
X4452D01*
Y10243D01*
X4453D01*
Y10249D01*
X4456D01*
Y10315D01*
X4452D01*
Y10318D01*
X4453D01*
Y10323D01*
X4472D01*
Y10322D01*
D02*
G37*
G36*
X4345D02*
X4354D01*
Y10321D01*
X4358D01*
Y10319D01*
X4359D01*
Y10318D01*
X4362D01*
Y10316D01*
X4364D01*
Y10315D01*
X4365D01*
Y10312D01*
X4366D01*
Y10311D01*
X4368D01*
Y10307D01*
X4369D01*
Y10291D01*
X4368D01*
Y10287D01*
X4366D01*
Y10285D01*
X4365D01*
Y10283D01*
X4364D01*
Y10281D01*
X4362D01*
Y10280D01*
X4361D01*
Y10279D01*
X4359D01*
Y10277D01*
X4357D01*
Y10276D01*
X4355D01*
Y10274D01*
X4354D01*
Y10273D01*
X4355D01*
Y10270D01*
X4357D01*
Y10269D01*
X4358D01*
Y10266D01*
X4359D01*
Y10265D01*
X4361D01*
Y10261D01*
X4362D01*
Y10260D01*
X4364D01*
Y10257D01*
X4365D01*
Y10254D01*
X4366D01*
Y10253D01*
X4368D01*
Y10250D01*
X4369D01*
Y10249D01*
X4373D01*
Y10242D01*
X4358D01*
Y10246D01*
X4357D01*
Y10247D01*
X4355D01*
Y10250D01*
X4354D01*
Y10253D01*
X4353D01*
Y10254D01*
X4351D01*
Y10257D01*
X4350D01*
Y10260D01*
X4349D01*
Y10262D01*
X4347D01*
Y10264D01*
X4346D01*
Y10266D01*
X4345D01*
Y10269D01*
X4343D01*
Y10272D01*
X4342D01*
Y10273D01*
X4330D01*
Y10249D01*
X4334D01*
Y10242D01*
X4313D01*
Y10243D01*
X4315D01*
Y10249D01*
X4319D01*
Y10306D01*
Y10307D01*
Y10315D01*
X4315D01*
Y10323D01*
X4345D01*
Y10322D01*
D02*
G37*
G36*
X4148Y10315D02*
X4144D01*
Y10308D01*
Y10307D01*
Y10249D01*
X4150D01*
Y10247D01*
X4148D01*
Y10242D01*
X4129D01*
Y10249D01*
X4133D01*
Y10315D01*
X4129D01*
Y10323D01*
X4148D01*
Y10315D01*
D02*
G37*
G36*
X4697Y10322D02*
X4702D01*
Y10321D01*
X4705D01*
Y10319D01*
X4708D01*
Y10318D01*
X4709D01*
Y10316D01*
X4710D01*
Y10315D01*
X4712D01*
Y10314D01*
X4713D01*
Y10312D01*
X4714D01*
Y10311D01*
X4716D01*
Y10308D01*
X4717D01*
Y10306D01*
X4718D01*
Y10303D01*
X4720D01*
Y10297D01*
X4721D01*
Y10284D01*
X4723D01*
Y10280D01*
X4721D01*
Y10266D01*
X4720D01*
Y10261D01*
X4718D01*
Y10258D01*
X4717D01*
Y10256D01*
X4716D01*
Y10253D01*
X4714D01*
Y10251D01*
X4713D01*
Y10250D01*
X4712D01*
Y10249D01*
X4710D01*
Y10246D01*
X4708D01*
Y10245D01*
X4705D01*
Y10243D01*
X4702D01*
Y10242D01*
X4695D01*
Y10241D01*
X4682D01*
Y10242D01*
X4676D01*
Y10243D01*
X4672D01*
Y10245D01*
X4671D01*
Y10246D01*
X4670D01*
Y10247D01*
X4667D01*
Y10249D01*
X4666D01*
Y10251D01*
X4664D01*
Y10253D01*
X4663D01*
Y10254D01*
X4662D01*
Y10257D01*
X4660D01*
Y10260D01*
X4659D01*
Y10264D01*
X4658D01*
Y10272D01*
X4656D01*
Y10288D01*
Y10289D01*
Y10292D01*
X4658D01*
Y10299D01*
X4659D01*
Y10304D01*
X4660D01*
Y10306D01*
X4662D01*
Y10310D01*
X4663D01*
Y10311D01*
X4664D01*
Y10312D01*
X4666D01*
Y10314D01*
X4667D01*
Y10315D01*
X4668D01*
Y10316D01*
X4670D01*
Y10318D01*
X4671D01*
Y10319D01*
X4672D01*
Y10321D01*
X4676D01*
Y10322D01*
X4682D01*
Y10323D01*
X4697D01*
Y10322D01*
D02*
G37*
G36*
X4450Y10173D02*
X4434D01*
Y10176D01*
X4433D01*
Y10181D01*
X4374D01*
Y10127D01*
X4441D01*
Y10123D01*
Y10121D01*
Y10105D01*
X4374D01*
Y10044D01*
X4437D01*
Y10052D01*
X4438D01*
Y10054D01*
X4450D01*
Y10052D01*
X4454D01*
Y10023D01*
X4339D01*
Y10039D01*
X4342D01*
Y10040D01*
X4349D01*
Y10185D01*
X4345D01*
Y10186D01*
X4339D01*
Y10203D01*
X4342D01*
Y10204D01*
X4450D01*
Y10173D01*
D02*
G37*
G36*
X4322D02*
X4305D01*
Y10177D01*
X4304D01*
Y10182D01*
X4269D01*
Y10040D01*
X4275D01*
Y10039D01*
X4278D01*
Y10029D01*
Y10028D01*
X4277D01*
Y10023D01*
X4234D01*
Y10039D01*
X4236D01*
Y10040D01*
X4243D01*
Y10182D01*
X4210D01*
Y10181D01*
X4209D01*
Y10173D01*
X4193D01*
Y10174D01*
X4192D01*
Y10204D01*
X4322D01*
Y10173D01*
D02*
G37*
G36*
X4047D02*
X4030D01*
Y10174D01*
X4029D01*
Y10181D01*
X3971D01*
Y10127D01*
X4037D01*
Y10105D01*
X3971D01*
Y10044D01*
X4033D01*
Y10052D01*
X4034D01*
Y10054D01*
X4045D01*
Y10052D01*
X4051D01*
Y10023D01*
X3935D01*
Y10039D01*
X3938D01*
Y10040D01*
X3945D01*
Y10185D01*
X3940D01*
Y10186D01*
X3935D01*
Y10203D01*
X3937D01*
Y10204D01*
X4047D01*
Y10173D01*
D02*
G37*
G36*
X4154Y10203D02*
X4162D01*
Y10201D01*
X4170D01*
Y10200D01*
X4171D01*
Y10167D01*
X4170D01*
Y10166D01*
X4160D01*
Y10167D01*
X4151D01*
Y10182D01*
X4135D01*
Y10184D01*
X4129D01*
Y10182D01*
X4118D01*
Y10181D01*
X4114D01*
Y10180D01*
X4110D01*
Y10178D01*
X4109D01*
Y10177D01*
X4106D01*
Y10176D01*
X4105D01*
Y10174D01*
X4102D01*
Y10173D01*
X4101D01*
Y10170D01*
X4099D01*
Y10169D01*
X4098D01*
Y10165D01*
X4097D01*
Y10161D01*
X4095D01*
Y10153D01*
X4097D01*
Y10148D01*
X4098D01*
Y10144D01*
X4099D01*
Y10143D01*
X4101D01*
Y10142D01*
X4102D01*
Y10139D01*
X4105D01*
Y10138D01*
X4106D01*
Y10136D01*
X4108D01*
Y10135D01*
X4110D01*
Y10134D01*
X4113D01*
Y10132D01*
X4116D01*
Y10131D01*
X4118D01*
Y10130D01*
X4121D01*
Y10128D01*
X4124D01*
Y10127D01*
X4129D01*
Y10125D01*
X4131D01*
Y10124D01*
X4136D01*
Y10123D01*
X4140D01*
Y10121D01*
X4143D01*
Y10120D01*
X4147D01*
Y10119D01*
X4150D01*
Y10117D01*
X4152D01*
Y10116D01*
X4155D01*
Y10115D01*
X4158D01*
Y10113D01*
X4160D01*
Y10112D01*
X4162D01*
Y10111D01*
X4164D01*
Y10109D01*
X4166D01*
Y10108D01*
X4167D01*
Y10106D01*
X4168D01*
Y10105D01*
X4170D01*
Y10104D01*
X4171D01*
Y10102D01*
X4173D01*
Y10101D01*
X4174D01*
Y10098D01*
X4175D01*
Y10097D01*
X4177D01*
Y10094D01*
X4178D01*
Y10093D01*
X4179D01*
Y10089D01*
X4181D01*
Y10085D01*
X4182D01*
Y10059D01*
X4181D01*
Y10055D01*
X4179D01*
Y10051D01*
X4178D01*
Y10050D01*
X4177D01*
Y10046D01*
X4175D01*
Y10044D01*
X4174D01*
Y10043D01*
X4173D01*
Y10041D01*
X4171D01*
Y10039D01*
X4170D01*
Y10037D01*
X4168D01*
Y10036D01*
X4167D01*
Y10035D01*
X4164D01*
Y10033D01*
X4163D01*
Y10032D01*
X4160D01*
Y10031D01*
X4159D01*
Y10029D01*
X4156D01*
Y10028D01*
X4154D01*
Y10027D01*
X4150D01*
Y10025D01*
X4145D01*
Y10024D01*
X4141D01*
Y10023D01*
X4131D01*
Y10021D01*
X4108D01*
Y10023D01*
X4095D01*
Y10024D01*
X4090D01*
Y10025D01*
X4083D01*
Y10027D01*
X4078D01*
Y10028D01*
X4075D01*
Y10029D01*
X4071D01*
Y10031D01*
X4068D01*
Y10062D01*
X4071D01*
Y10063D01*
X4074D01*
Y10062D01*
X4087D01*
Y10060D01*
X4089D01*
Y10047D01*
X4090D01*
Y10046D01*
X4098D01*
Y10044D01*
X4110D01*
Y10043D01*
X4128D01*
Y10044D01*
X4136D01*
Y10046D01*
X4141D01*
Y10047D01*
X4143D01*
Y10048D01*
X4145D01*
Y10050D01*
X4147D01*
Y10051D01*
X4150D01*
Y10052D01*
X4151D01*
Y10054D01*
X4152D01*
Y10056D01*
X4154D01*
Y10058D01*
X4155D01*
Y10063D01*
X4156D01*
Y10078D01*
X4155D01*
Y10083D01*
X4154D01*
Y10085D01*
X4152D01*
Y10088D01*
X4151D01*
Y10089D01*
X4150D01*
Y10090D01*
X4148D01*
Y10092D01*
X4147D01*
Y10093D01*
X4145D01*
Y10094D01*
X4143D01*
Y10096D01*
X4139D01*
Y10097D01*
X4137D01*
Y10098D01*
X4133D01*
Y10100D01*
X4131D01*
Y10101D01*
X4126D01*
Y10102D01*
X4124D01*
Y10104D01*
X4120D01*
Y10105D01*
X4116D01*
Y10106D01*
X4113D01*
Y10108D01*
X4109D01*
Y10109D01*
X4106D01*
Y10111D01*
X4102D01*
Y10112D01*
X4101D01*
Y10113D01*
X4097D01*
Y10115D01*
X4094D01*
Y10116D01*
X4093D01*
Y10117D01*
X4090D01*
Y10119D01*
X4089D01*
Y10120D01*
X4086D01*
Y10121D01*
X4084D01*
Y10123D01*
X4083D01*
Y10124D01*
X4080D01*
Y10127D01*
X4079D01*
Y10128D01*
X4078D01*
Y10130D01*
X4076D01*
Y10132D01*
X4075D01*
Y10134D01*
X4074D01*
Y10136D01*
X4072D01*
Y10139D01*
X4071D01*
Y10143D01*
X4070D01*
Y10151D01*
X4068D01*
Y10161D01*
X4070D01*
Y10170D01*
X4071D01*
Y10174D01*
X4072D01*
Y10177D01*
X4074D01*
Y10180D01*
X4075D01*
Y10181D01*
X4076D01*
Y10184D01*
X4078D01*
Y10185D01*
X4079D01*
Y10186D01*
X4080D01*
Y10189D01*
X4083D01*
Y10190D01*
X4084D01*
Y10192D01*
X4086D01*
Y10193D01*
X4089D01*
Y10195D01*
X4090D01*
Y10196D01*
X4093D01*
Y10197D01*
X4095D01*
Y10199D01*
X4099D01*
Y10200D01*
X4102D01*
Y10201D01*
X4108D01*
Y10203D01*
X4112D01*
Y10204D01*
X4154D01*
Y10203D01*
D02*
G37*
G36*
X4783D02*
X4786D01*
Y10188D01*
X4785D01*
Y10186D01*
X4781D01*
Y10185D01*
X4774D01*
Y10023D01*
X4755D01*
Y10024D01*
X4754D01*
Y10025D01*
X4752D01*
Y10028D01*
X4751D01*
Y10029D01*
X4750D01*
Y10032D01*
X4748D01*
Y10033D01*
X4747D01*
Y10035D01*
X4746D01*
Y10037D01*
X4744D01*
Y10039D01*
X4743D01*
Y10041D01*
X4742D01*
Y10043D01*
X4740D01*
Y10044D01*
X4739D01*
Y10047D01*
X4737D01*
Y10048D01*
X4736D01*
Y10051D01*
X4735D01*
Y10052D01*
X4733D01*
Y10054D01*
X4732D01*
Y10055D01*
X4731D01*
Y10058D01*
X4729D01*
Y10060D01*
X4728D01*
Y10062D01*
X4727D01*
Y10064D01*
X4724D01*
Y10067D01*
X4723D01*
Y10069D01*
X4721D01*
Y10071D01*
X4720D01*
Y10074D01*
X4718D01*
Y10075D01*
X4717D01*
Y10077D01*
X4716D01*
Y10079D01*
X4714D01*
Y10081D01*
X4713D01*
Y10082D01*
X4712D01*
Y10085D01*
X4710D01*
Y10086D01*
X4709D01*
Y10089D01*
X4708D01*
Y10090D01*
X4706D01*
Y10092D01*
X4705D01*
Y10094D01*
X4704D01*
Y10096D01*
X4702D01*
Y10098D01*
X4701D01*
Y10100D01*
X4700D01*
Y10101D01*
X4698D01*
Y10104D01*
X4697D01*
Y10105D01*
X4695D01*
Y10108D01*
X4694D01*
Y10109D01*
X4693D01*
Y10111D01*
X4691D01*
Y10113D01*
X4690D01*
Y10115D01*
X4689D01*
Y10117D01*
X4687D01*
Y10119D01*
X4686D01*
Y10120D01*
X4685D01*
Y10123D01*
X4683D01*
Y10124D01*
X4682D01*
Y10125D01*
X4681D01*
Y10128D01*
X4679D01*
Y10130D01*
X4678D01*
Y10132D01*
X4676D01*
Y10134D01*
X4675D01*
Y10135D01*
X4674D01*
Y10138D01*
X4672D01*
Y10139D01*
X4671D01*
Y10142D01*
X4670D01*
Y10144D01*
X4667D01*
Y10147D01*
X4666D01*
Y10148D01*
X4664D01*
Y10151D01*
X4663D01*
Y10153D01*
X4662D01*
Y10155D01*
X4659D01*
Y10040D01*
X4668D01*
Y10039D01*
X4671D01*
Y10031D01*
X4670D01*
Y10023D01*
X4626D01*
Y10039D01*
X4629D01*
Y10040D01*
X4634D01*
Y10185D01*
X4630D01*
Y10186D01*
X4626D01*
Y10203D01*
X4628D01*
Y10204D01*
X4655D01*
Y10203D01*
X4656D01*
Y10201D01*
X4658D01*
Y10200D01*
X4659D01*
Y10197D01*
X4660D01*
Y10196D01*
X4662D01*
Y10193D01*
X4663D01*
Y10192D01*
X4664D01*
Y10190D01*
X4666D01*
Y10189D01*
X4667D01*
Y10186D01*
X4668D01*
Y10185D01*
X4670D01*
Y10182D01*
X4671D01*
Y10181D01*
X4672D01*
Y10180D01*
X4674D01*
Y10177D01*
X4675D01*
Y10176D01*
X4676D01*
Y10173D01*
X4678D01*
Y10172D01*
X4679D01*
Y10170D01*
X4681D01*
Y10167D01*
X4682D01*
Y10166D01*
X4683D01*
Y10163D01*
X4685D01*
Y10162D01*
X4686D01*
Y10161D01*
X4687D01*
Y10158D01*
X4689D01*
Y10157D01*
X4690D01*
Y10154D01*
X4691D01*
Y10153D01*
X4693D01*
Y10151D01*
X4694D01*
Y10148D01*
X4695D01*
Y10147D01*
X4697D01*
Y10146D01*
X4698D01*
Y10143D01*
X4700D01*
Y10140D01*
X4701D01*
Y10139D01*
X4702D01*
Y10136D01*
X4705D01*
Y10134D01*
X4706D01*
Y10132D01*
X4708D01*
Y10130D01*
X4709D01*
Y10128D01*
X4710D01*
Y10125D01*
X4712D01*
Y10124D01*
X4713D01*
Y10123D01*
X4714D01*
Y10120D01*
X4716D01*
Y10119D01*
X4717D01*
Y10116D01*
X4718D01*
Y10115D01*
X4720D01*
Y10113D01*
X4721D01*
Y10111D01*
X4723D01*
Y10109D01*
X4724D01*
Y10106D01*
X4725D01*
Y10105D01*
X4727D01*
Y10104D01*
X4728D01*
Y10101D01*
X4729D01*
Y10100D01*
X4731D01*
Y10097D01*
X4732D01*
Y10096D01*
X4733D01*
Y10094D01*
X4735D01*
Y10092D01*
X4736D01*
Y10090D01*
X4737D01*
Y10089D01*
X4739D01*
Y10086D01*
X4740D01*
Y10085D01*
X4742D01*
Y10082D01*
X4743D01*
Y10081D01*
X4744D01*
Y10079D01*
X4746D01*
Y10077D01*
X4747D01*
Y10075D01*
X4748D01*
Y10073D01*
X4750D01*
Y10071D01*
X4751D01*
Y10182D01*
Y10184D01*
Y10185D01*
X4746D01*
Y10186D01*
X4742D01*
Y10188D01*
X4740D01*
Y10189D01*
X4742D01*
Y10203D01*
X4743D01*
Y10204D01*
X4783D01*
Y10203D01*
D02*
G37*
G36*
X3921D02*
X3922D01*
Y10189D01*
X3921D01*
Y10186D01*
X3917D01*
Y10185D01*
X3912D01*
Y10181D01*
X3911D01*
Y10174D01*
X3910D01*
Y10170D01*
X3908D01*
Y10165D01*
X3907D01*
Y10158D01*
X3906D01*
Y10154D01*
X3904D01*
Y10148D01*
X3903D01*
Y10144D01*
X3902D01*
Y10138D01*
X3900D01*
Y10134D01*
X3899D01*
Y10127D01*
X3898D01*
Y10121D01*
X3896D01*
Y10117D01*
X3895D01*
Y10111D01*
X3893D01*
Y10106D01*
X3892D01*
Y10101D01*
X3891D01*
Y10096D01*
X3889D01*
Y10090D01*
X3888D01*
Y10086D01*
X3887D01*
Y10079D01*
X3885D01*
Y10074D01*
X3884D01*
Y10070D01*
X3883D01*
Y10063D01*
X3881D01*
Y10059D01*
X3880D01*
Y10052D01*
X3879D01*
Y10048D01*
X3877D01*
Y10041D01*
X3876D01*
Y10036D01*
X3875D01*
Y10032D01*
X3873D01*
Y10028D01*
X3872D01*
Y10027D01*
X3870D01*
Y10025D01*
X3869D01*
Y10024D01*
X3868D01*
Y10023D01*
X3843D01*
Y10024D01*
X3842D01*
Y10025D01*
X3841D01*
Y10028D01*
X3839D01*
Y10035D01*
X3838D01*
Y10039D01*
X3837D01*
Y10046D01*
X3835D01*
Y10054D01*
X3834D01*
Y10058D01*
X3833D01*
Y10064D01*
X3831D01*
Y10069D01*
X3830D01*
Y10075D01*
X3828D01*
Y10081D01*
X3827D01*
Y10088D01*
X3826D01*
Y10094D01*
X3824D01*
Y10098D01*
X3823D01*
Y10105D01*
X3822D01*
Y10111D01*
X3820D01*
Y10117D01*
X3819D01*
Y10121D01*
X3818D01*
Y10128D01*
X3816D01*
Y10135D01*
X3815D01*
Y10139D01*
X3814D01*
Y10146D01*
X3812D01*
Y10151D01*
X3811D01*
Y10158D01*
X3809D01*
Y10162D01*
X3808D01*
Y10159D01*
X3807D01*
Y10155D01*
X3805D01*
Y10148D01*
X3804D01*
Y10142D01*
X3803D01*
Y10136D01*
X3801D01*
Y10131D01*
X3800D01*
Y10125D01*
X3799D01*
Y10120D01*
X3797D01*
Y10115D01*
X3796D01*
Y10111D01*
Y10109D01*
Y10108D01*
X3795D01*
Y10102D01*
X3793D01*
Y10097D01*
X3792D01*
Y10092D01*
X3791D01*
Y10086D01*
X3789D01*
Y10079D01*
X3788D01*
Y10075D01*
X3786D01*
Y10069D01*
X3785D01*
Y10062D01*
X3784D01*
Y10058D01*
X3782D01*
Y10051D01*
X3781D01*
Y10047D01*
X3780D01*
Y10040D01*
X3778D01*
Y10036D01*
X3777D01*
Y10031D01*
X3776D01*
Y10027D01*
X3774D01*
Y10025D01*
X3772D01*
Y10024D01*
X3770D01*
Y10023D01*
X3746D01*
Y10024D01*
X3744D01*
Y10025D01*
X3743D01*
Y10029D01*
X3742D01*
Y10036D01*
X3740D01*
Y10041D01*
X3739D01*
Y10047D01*
X3738D01*
Y10051D01*
X3736D01*
Y10058D01*
X3735D01*
Y10064D01*
X3734D01*
Y10069D01*
X3732D01*
Y10075D01*
X3731D01*
Y10079D01*
X3730D01*
Y10086D01*
X3728D01*
Y10092D01*
X3727D01*
Y10097D01*
X3726D01*
Y10102D01*
X3724D01*
Y10108D01*
X3723D01*
Y10115D01*
X3721D01*
Y10120D01*
X3720D01*
Y10125D01*
X3719D01*
Y10130D01*
X3717D01*
Y10136D01*
X3716D01*
Y10142D01*
X3715D01*
Y10147D01*
X3713D01*
Y10154D01*
X3712D01*
Y10158D01*
X3711D01*
Y10165D01*
X3709D01*
Y10170D01*
X3708D01*
Y10176D01*
X3707D01*
Y10181D01*
X3705D01*
Y10185D01*
X3701D01*
Y10186D01*
X3696D01*
Y10201D01*
X3697D01*
Y10203D01*
X3698D01*
Y10204D01*
X3738D01*
Y10203D01*
X3739D01*
Y10186D01*
X3735D01*
Y10185D01*
X3731D01*
Y10181D01*
X3732D01*
Y10173D01*
X3734D01*
Y10169D01*
X3735D01*
Y10161D01*
X3736D01*
Y10154D01*
X3738D01*
Y10150D01*
X3739D01*
Y10142D01*
X3740D01*
Y10138D01*
X3742D01*
Y10130D01*
X3743D01*
Y10125D01*
X3744D01*
Y10117D01*
X3746D01*
Y10111D01*
X3747D01*
Y10106D01*
X3749D01*
Y10098D01*
X3750D01*
Y10094D01*
X3751D01*
Y10086D01*
X3753D01*
Y10082D01*
X3754D01*
Y10075D01*
X3755D01*
Y10067D01*
X3757D01*
Y10063D01*
X3758D01*
Y10055D01*
X3759D01*
Y10051D01*
X3761D01*
Y10054D01*
X3762D01*
Y10059D01*
X3763D01*
Y10066D01*
X3765D01*
Y10073D01*
X3766D01*
Y10077D01*
X3767D01*
Y10083D01*
X3769D01*
Y10089D01*
X3770D01*
Y10096D01*
X3772D01*
Y10100D01*
X3773D01*
Y10106D01*
X3774D01*
Y10111D01*
X3776D01*
Y10117D01*
X3777D01*
Y10124D01*
X3778D01*
Y10130D01*
X3780D01*
Y10136D01*
X3781D01*
Y10140D01*
X3782D01*
Y10147D01*
X3784D01*
Y10151D01*
X3785D01*
Y10158D01*
X3786D01*
Y10165D01*
X3788D01*
Y10170D01*
X3789D01*
Y10177D01*
X3791D01*
Y10181D01*
X3792D01*
Y10188D01*
X3793D01*
Y10192D01*
X3795D01*
Y10197D01*
X3796D01*
Y10200D01*
X3797D01*
Y10201D01*
X3800D01*
Y10203D01*
X3804D01*
Y10204D01*
X3805D01*
Y10203D01*
X3820D01*
Y10201D01*
X3822D01*
Y10199D01*
X3823D01*
Y10192D01*
X3824D01*
Y10188D01*
X3826D01*
Y10181D01*
X3827D01*
Y10174D01*
X3828D01*
Y10169D01*
X3830D01*
Y10162D01*
X3831D01*
Y10158D01*
X3833D01*
Y10151D01*
X3834D01*
Y10146D01*
X3835D01*
Y10139D01*
X3837D01*
Y10132D01*
X3838D01*
Y10127D01*
X3839D01*
Y10120D01*
X3841D01*
Y10116D01*
X3842D01*
Y10109D01*
X3843D01*
Y10104D01*
X3845D01*
Y10097D01*
X3846D01*
Y10090D01*
X3847D01*
Y10086D01*
X3849D01*
Y10079D01*
X3850D01*
Y10074D01*
X3851D01*
Y10067D01*
X3853D01*
Y10063D01*
X3854D01*
Y10055D01*
X3856D01*
Y10051D01*
X3857D01*
Y10054D01*
X3858D01*
Y10060D01*
X3860D01*
Y10066D01*
X3861D01*
Y10073D01*
X3862D01*
Y10077D01*
X3864D01*
Y10085D01*
X3865D01*
Y10089D01*
X3866D01*
Y10096D01*
X3868D01*
Y10102D01*
X3869D01*
Y10106D01*
X3870D01*
Y10113D01*
X3872D01*
Y10119D01*
X3873D01*
Y10125D01*
X3875D01*
Y10130D01*
X3876D01*
Y10136D01*
X3877D01*
Y10144D01*
X3879D01*
Y10148D01*
X3880D01*
Y10155D01*
X3881D01*
Y10159D01*
X3883D01*
Y10166D01*
X3884D01*
Y10172D01*
X3885D01*
Y10178D01*
X3887D01*
Y10185D01*
X3884D01*
Y10186D01*
X3879D01*
Y10199D01*
X3880D01*
Y10204D01*
X3921D01*
Y10203D01*
D02*
G37*
G36*
X3578Y10161D02*
X3576D01*
Y10139D01*
X3575D01*
Y10130D01*
X3574D01*
Y10119D01*
X3572D01*
Y10111D01*
X3571D01*
Y10105D01*
X3570D01*
Y10098D01*
X3568D01*
Y10093D01*
X3567D01*
Y10088D01*
X3566D01*
Y10083D01*
X3564D01*
Y10078D01*
X3563D01*
Y10075D01*
X3562D01*
Y10070D01*
X3560D01*
Y10064D01*
X3559D01*
Y10062D01*
X3558D01*
Y10058D01*
X3556D01*
Y10055D01*
X3555D01*
Y10051D01*
X3552D01*
Y10052D01*
X3551D01*
Y10054D01*
X3549D01*
Y10055D01*
X3548D01*
Y10056D01*
X3547D01*
Y10058D01*
X3545D01*
Y10059D01*
X3544D01*
Y10060D01*
X3541D01*
Y10063D01*
X3539D01*
Y10064D01*
X3537D01*
Y10066D01*
X3536D01*
Y10067D01*
X3534D01*
Y10069D01*
X3533D01*
Y10070D01*
X3532D01*
Y10071D01*
X3530D01*
Y10073D01*
X3529D01*
Y10074D01*
X3528D01*
Y10075D01*
X3526D01*
Y10077D01*
X3524D01*
Y10079D01*
X3521D01*
Y10081D01*
X3520D01*
Y10082D01*
X3518D01*
Y10083D01*
X3517D01*
Y10085D01*
X3516D01*
Y10086D01*
X3514D01*
Y10088D01*
X3513D01*
Y10089D01*
X3511D01*
Y10090D01*
X3510D01*
Y10092D01*
X3509D01*
Y10093D01*
X3507D01*
Y10094D01*
X3505D01*
Y10096D01*
X3503D01*
Y10097D01*
X3502D01*
Y10098D01*
X3501D01*
Y10100D01*
X3499D01*
Y10101D01*
X3498D01*
Y10102D01*
X3497D01*
Y10104D01*
X3495D01*
Y10105D01*
X3494D01*
Y10106D01*
X3492D01*
Y10108D01*
X3491D01*
Y10109D01*
X3490D01*
Y10111D01*
X3488D01*
Y10112D01*
X3487D01*
Y10113D01*
X3484D01*
Y10115D01*
X3483D01*
Y10116D01*
X3482D01*
Y10117D01*
X3480D01*
Y10119D01*
X3479D01*
Y10120D01*
X3478D01*
Y10121D01*
X3476D01*
Y10123D01*
X3475D01*
Y10124D01*
X3474D01*
Y10125D01*
X3471D01*
Y10127D01*
X3469D01*
Y10130D01*
X3467D01*
Y10132D01*
X3464D01*
Y10134D01*
X3463D01*
Y10135D01*
X3461D01*
Y10136D01*
X3460D01*
Y10138D01*
X3459D01*
Y10139D01*
X3457D01*
Y10140D01*
X3456D01*
Y10142D01*
X3455D01*
Y10143D01*
X3453D01*
Y10144D01*
X3452D01*
Y10146D01*
X3449D01*
Y10147D01*
X3448D01*
Y10148D01*
X3446D01*
Y10150D01*
X3445D01*
Y10151D01*
X3444D01*
Y10153D01*
X3442D01*
Y10154D01*
X3441D01*
Y10155D01*
X3440D01*
Y10157D01*
X3438D01*
Y10158D01*
X3436D01*
Y10161D01*
X3433D01*
Y10163D01*
X3430D01*
Y10165D01*
X3429D01*
Y10166D01*
X3427D01*
Y10167D01*
X3426D01*
Y10169D01*
X3425D01*
Y10170D01*
X3423D01*
Y10172D01*
X3422D01*
Y10173D01*
X3421D01*
Y10174D01*
X3419D01*
Y10176D01*
X3418D01*
Y10177D01*
X3415D01*
Y10178D01*
X3414D01*
Y10180D01*
X3413D01*
Y10181D01*
X3411D01*
Y10182D01*
X3410D01*
Y10184D01*
X3409D01*
Y10185D01*
X3407D01*
Y10186D01*
X3406D01*
Y10188D01*
X3404D01*
Y10189D01*
X3403D01*
Y10190D01*
X3402D01*
Y10192D01*
X3399D01*
Y10193D01*
X3398D01*
Y10196D01*
X3395D01*
Y10195D01*
X3394D01*
Y10193D01*
X3392D01*
Y10192D01*
X3391D01*
Y10190D01*
X3390D01*
Y10189D01*
X3388D01*
Y10188D01*
X3387D01*
Y10186D01*
X3385D01*
Y10185D01*
X3384D01*
Y10184D01*
X3381D01*
Y10182D01*
X3380D01*
Y10181D01*
X3379D01*
Y10180D01*
X3377D01*
Y10178D01*
X3376D01*
Y10177D01*
X3375D01*
Y10176D01*
X3373D01*
Y10174D01*
X3372D01*
Y10173D01*
X3371D01*
Y10172D01*
X3369D01*
Y10170D01*
X3367D01*
Y10167D01*
X3364D01*
Y10165D01*
X3361D01*
Y10163D01*
X3360D01*
Y10162D01*
X3358D01*
Y10161D01*
X3357D01*
Y10159D01*
X3356D01*
Y10158D01*
X3354D01*
Y10157D01*
X3353D01*
Y10155D01*
X3352D01*
Y10154D01*
X3349D01*
Y10151D01*
X3346D01*
Y10150D01*
X3345D01*
Y10148D01*
X3343D01*
Y10147D01*
X3342D01*
Y10146D01*
X3341D01*
Y10144D01*
X3339D01*
Y10143D01*
X3338D01*
Y10142D01*
X3337D01*
Y10140D01*
X3335D01*
Y10139D01*
X3333D01*
Y10136D01*
X3330D01*
Y10134D01*
X3329D01*
Y10132D01*
X3326D01*
Y10131D01*
X3325D01*
Y10130D01*
X3323D01*
Y10128D01*
X3322D01*
Y10127D01*
X3320D01*
Y10125D01*
X3319D01*
Y10124D01*
X3318D01*
Y10123D01*
X3316D01*
Y10121D01*
X3315D01*
Y10120D01*
X3314D01*
Y10119D01*
X3311D01*
Y10117D01*
X3310D01*
Y10116D01*
X3308D01*
Y10115D01*
X3307D01*
Y10113D01*
X3306D01*
Y10112D01*
X3304D01*
Y10111D01*
X3303D01*
Y10109D01*
X3301D01*
Y10108D01*
X3300D01*
Y10106D01*
X3299D01*
Y10105D01*
X3297D01*
Y10104D01*
X3295D01*
Y10101D01*
X3292D01*
Y10100D01*
X3291D01*
Y10098D01*
X3289D01*
Y10097D01*
X3288D01*
Y10096D01*
X3287D01*
Y10094D01*
X3285D01*
Y10093D01*
X3284D01*
Y10092D01*
X3283D01*
Y10090D01*
X3281D01*
Y10089D01*
X3280D01*
Y10088D01*
X3278D01*
Y10086D01*
X3276D01*
Y10085D01*
X3274D01*
Y10083D01*
X3273D01*
Y10082D01*
X3272D01*
Y10081D01*
X3270D01*
Y10079D01*
X3269D01*
Y10078D01*
X3268D01*
Y10077D01*
X3266D01*
Y10075D01*
X3265D01*
Y10074D01*
X3264D01*
Y10073D01*
X3261D01*
Y10070D01*
X3258D01*
Y10067D01*
X3255D01*
Y10066D01*
X3254D01*
Y10064D01*
X3253D01*
Y10063D01*
X3251D01*
Y10062D01*
X3250D01*
Y10060D01*
X3249D01*
Y10059D01*
X3247D01*
Y10058D01*
X3246D01*
Y10056D01*
X3245D01*
Y10055D01*
X3243D01*
Y10054D01*
X3241D01*
Y10052D01*
X3239D01*
Y10051D01*
X3238D01*
Y10052D01*
X3236D01*
Y10056D01*
X3235D01*
Y10060D01*
X3234D01*
Y10063D01*
X3232D01*
Y10069D01*
X3231D01*
Y10071D01*
X3230D01*
Y10077D01*
X3228D01*
Y10079D01*
X3227D01*
Y10085D01*
X3226D01*
Y10092D01*
X3224D01*
Y10096D01*
X3223D01*
Y10102D01*
X3222D01*
Y10108D01*
X3220D01*
Y10116D01*
X3219D01*
Y10123D01*
X3218D01*
Y10135D01*
X3216D01*
Y10153D01*
X3215D01*
Y10323D01*
X3578D01*
Y10161D01*
D02*
G37*
G36*
X3326Y10069D02*
X3327D01*
Y10067D01*
X3329D01*
Y10066D01*
X3330D01*
Y10063D01*
X3331D01*
Y10062D01*
X3330D01*
Y10059D01*
X3329D01*
Y10055D01*
X3327D01*
Y10054D01*
X3326D01*
Y10051D01*
X3325D01*
Y10048D01*
X3322D01*
Y10055D01*
X3323D01*
Y10070D01*
X3326D01*
Y10069D01*
D02*
G37*
G36*
X4536Y10203D02*
X4550D01*
Y10201D01*
X4559D01*
Y10200D01*
X4564D01*
Y10199D01*
X4568D01*
Y10197D01*
X4571D01*
Y10196D01*
X4574D01*
Y10195D01*
X4576D01*
Y10193D01*
X4579D01*
Y10192D01*
X4580D01*
Y10190D01*
X4583D01*
Y10189D01*
X4584D01*
Y10188D01*
X4586D01*
Y10186D01*
X4587D01*
Y10185D01*
X4588D01*
Y10184D01*
X4590D01*
Y10181D01*
X4591D01*
Y10180D01*
X4592D01*
Y10177D01*
X4594D01*
Y10174D01*
X4595D01*
Y10170D01*
X4597D01*
Y10166D01*
X4598D01*
Y10155D01*
X4599D01*
Y10143D01*
X4598D01*
Y10134D01*
X4597D01*
Y10130D01*
X4595D01*
Y10125D01*
X4594D01*
Y10123D01*
X4592D01*
Y10120D01*
X4591D01*
Y10119D01*
X4590D01*
Y10116D01*
X4588D01*
Y10113D01*
X4586D01*
Y10111D01*
X4584D01*
Y10109D01*
X4583D01*
Y10108D01*
X4580D01*
Y10105D01*
X4578D01*
Y10104D01*
X4576D01*
Y10102D01*
X4574D01*
Y10101D01*
X4571D01*
Y10100D01*
X4569D01*
Y10098D01*
X4565D01*
Y10097D01*
X4564D01*
Y10096D01*
X4565D01*
Y10094D01*
X4567D01*
Y10092D01*
X4568D01*
Y10089D01*
X4569D01*
Y10088D01*
X4571D01*
Y10085D01*
X4572D01*
Y10082D01*
X4574D01*
Y10079D01*
X4575D01*
Y10078D01*
X4576D01*
Y10075D01*
X4578D01*
Y10073D01*
X4579D01*
Y10071D01*
X4580D01*
Y10069D01*
X4582D01*
Y10066D01*
X4583D01*
Y10063D01*
X4584D01*
Y10062D01*
X4586D01*
Y10059D01*
X4587D01*
Y10058D01*
X4588D01*
Y10055D01*
X4590D01*
Y10052D01*
X4591D01*
Y10050D01*
X4592D01*
Y10047D01*
X4594D01*
Y10046D01*
X4595D01*
Y10043D01*
X4597D01*
Y10041D01*
X4598D01*
Y10040D01*
X4605D01*
Y10039D01*
X4607D01*
Y10032D01*
X4606D01*
Y10023D01*
X4578D01*
Y10024D01*
X4576D01*
Y10027D01*
X4575D01*
Y10028D01*
X4574D01*
Y10031D01*
X4572D01*
Y10032D01*
X4571D01*
Y10036D01*
X4569D01*
Y10037D01*
X4568D01*
Y10040D01*
X4567D01*
Y10043D01*
X4565D01*
Y10044D01*
X4564D01*
Y10048D01*
X4563D01*
Y10050D01*
X4561D01*
Y10052D01*
X4560D01*
Y10054D01*
X4559D01*
Y10056D01*
X4557D01*
Y10060D01*
X4556D01*
Y10062D01*
X4555D01*
Y10064D01*
X4553D01*
Y10066D01*
X4552D01*
Y10069D01*
X4550D01*
Y10071D01*
X4549D01*
Y10074D01*
X4548D01*
Y10077D01*
X4546D01*
Y10078D01*
X4545D01*
Y10081D01*
X4544D01*
Y10083D01*
X4542D01*
Y10086D01*
X4541D01*
Y10088D01*
X4540D01*
Y10090D01*
X4538D01*
Y10092D01*
X4513D01*
Y10040D01*
X4519D01*
Y10039D01*
X4521D01*
Y10037D01*
X4522D01*
Y10035D01*
X4521D01*
Y10023D01*
X4477D01*
Y10025D01*
X4476D01*
Y10027D01*
X4477D01*
Y10039D01*
X4480D01*
Y10040D01*
X4485D01*
Y10185D01*
X4481D01*
Y10186D01*
X4477D01*
Y10188D01*
X4476D01*
Y10190D01*
X4477D01*
Y10203D01*
X4479D01*
Y10204D01*
X4536D01*
Y10203D01*
D02*
G37*
G36*
X3442Y10136D02*
X3444D01*
Y10135D01*
X3445D01*
Y10132D01*
X3446D01*
Y10131D01*
X3448D01*
Y10128D01*
X3449D01*
Y10127D01*
X3451D01*
Y10121D01*
X3453D01*
Y10120D01*
X3455D01*
Y10119D01*
X3457D01*
Y10116D01*
X3459D01*
Y10115D01*
X3460D01*
Y10111D01*
X3461D01*
Y10100D01*
X3463D01*
Y10098D01*
X3464D01*
Y10097D01*
X3465D01*
Y10096D01*
X3467D01*
Y10093D01*
X3468D01*
Y10090D01*
X3469D01*
Y10079D01*
X3468D01*
Y10077D01*
X3467D01*
Y10075D01*
X3468D01*
Y10074D01*
X3469D01*
Y10071D01*
X3471D01*
Y10059D01*
X3469D01*
Y10052D01*
X3471D01*
Y10040D01*
X3469D01*
Y10037D01*
X3468D01*
Y10035D01*
X3469D01*
Y10025D01*
X3468D01*
Y10023D01*
X3467D01*
Y10020D01*
X3465D01*
Y10018D01*
X3464D01*
Y10017D01*
X3463D01*
Y10016D01*
X3461D01*
Y10014D01*
X3460D01*
Y10008D01*
X3459D01*
Y10005D01*
X3457D01*
Y10002D01*
X3456D01*
Y10001D01*
X3455D01*
Y9999D01*
X3453D01*
Y9998D01*
X3451D01*
Y9997D01*
X3449D01*
Y9994D01*
X3448D01*
Y9990D01*
X3446D01*
Y9989D01*
X3445D01*
Y9987D01*
X3444D01*
Y9986D01*
X3442D01*
Y9979D01*
X3441D01*
Y9978D01*
X3440D01*
Y9976D01*
X3438D01*
Y9975D01*
X3437D01*
Y9974D01*
X3433D01*
Y9972D01*
X3429D01*
Y9971D01*
X3427D01*
Y9970D01*
X3425D01*
Y9968D01*
X3423D01*
Y9966D01*
X3426D01*
Y9963D01*
X3429D01*
Y9962D01*
X3430D01*
Y9960D01*
X3433D01*
Y9959D01*
X3436D01*
Y9957D01*
X3438D01*
Y9956D01*
X3444D01*
Y9955D01*
X3448D01*
Y9953D01*
X3453D01*
Y9952D01*
X3452D01*
Y9949D01*
X3451D01*
Y9948D01*
X3449D01*
Y9947D01*
X3448D01*
Y9945D01*
X3446D01*
Y9944D01*
X3445D01*
Y9943D01*
X3444D01*
Y9941D01*
X3442D01*
Y9940D01*
X3441D01*
Y9939D01*
X3438D01*
Y9937D01*
X3437D01*
Y9936D01*
X3436D01*
Y9934D01*
X3433D01*
Y9933D01*
X3430D01*
Y9932D01*
X3427D01*
Y9930D01*
X3425D01*
Y9929D01*
X3421D01*
Y9928D01*
X3417D01*
Y9926D01*
X3410D01*
Y9925D01*
X3380D01*
Y9926D01*
X3373D01*
Y9928D01*
X3371D01*
Y9929D01*
X3367D01*
Y9930D01*
X3364D01*
Y9932D01*
X3361D01*
Y9933D01*
X3358D01*
Y9934D01*
X3357D01*
Y9936D01*
X3354D01*
Y9937D01*
X3352D01*
Y9939D01*
X3350D01*
Y9940D01*
X3349D01*
Y9941D01*
X3348D01*
Y9943D01*
X3346D01*
Y9944D01*
X3345D01*
Y9945D01*
X3343D01*
Y9947D01*
X3342D01*
Y9948D01*
X3341D01*
Y9951D01*
X3339D01*
Y9953D01*
X3338D01*
Y9956D01*
X3337D01*
Y9957D01*
X3335D01*
Y9960D01*
X3334D01*
Y9963D01*
X3333D01*
Y9968D01*
X3331D01*
Y9974D01*
X3330D01*
Y9990D01*
X3331D01*
Y9995D01*
X3333D01*
Y10001D01*
X3334D01*
Y10004D01*
X3335D01*
Y10008D01*
X3337D01*
Y10010D01*
X3338D01*
Y10013D01*
X3339D01*
Y10016D01*
X3341D01*
Y10017D01*
X3342D01*
Y10020D01*
X3343D01*
Y10023D01*
X3345D01*
Y10025D01*
X3346D01*
Y10027D01*
X3348D01*
Y10028D01*
X3349D01*
Y10031D01*
X3350D01*
Y10032D01*
X3352D01*
Y10035D01*
X3353D01*
Y10036D01*
X3354D01*
Y10039D01*
X3356D01*
Y10040D01*
X3357D01*
Y10041D01*
X3358D01*
Y10044D01*
X3360D01*
Y10046D01*
X3361D01*
Y10048D01*
X3362D01*
Y10050D01*
X3364D01*
Y10052D01*
X3365D01*
Y10054D01*
X3367D01*
Y10055D01*
X3368D01*
Y10058D01*
X3369D01*
Y10060D01*
X3371D01*
Y10063D01*
X3372D01*
Y10064D01*
X3373D01*
Y10067D01*
X3375D01*
Y10070D01*
X3376D01*
Y10078D01*
X3377D01*
Y10082D01*
X3376D01*
Y10088D01*
X3375D01*
Y10089D01*
X3373D01*
Y10092D01*
X3372D01*
Y10093D01*
X3371D01*
Y10094D01*
X3365D01*
Y10096D01*
X3361D01*
Y10094D01*
X3356D01*
Y10093D01*
X3354D01*
Y10092D01*
X3352D01*
Y10090D01*
X3350D01*
Y10089D01*
X3349D01*
Y10085D01*
X3348D01*
Y10081D01*
X3346D01*
Y10078D01*
X3345D01*
Y10075D01*
X3343D01*
Y10074D01*
X3342D01*
Y10073D01*
X3341D01*
Y10071D01*
X3339D01*
Y10070D01*
X3338D01*
Y10069D01*
X3334D01*
Y10067D01*
X3333D01*
Y10069D01*
X3329D01*
Y10075D01*
X3330D01*
Y10079D01*
X3326D01*
Y10074D01*
X3325D01*
Y10073D01*
X3322D01*
Y10074D01*
X3320D01*
Y10082D01*
X3322D01*
Y10086D01*
X3323D01*
Y10089D01*
X3325D01*
Y10092D01*
X3326D01*
Y10094D01*
X3329D01*
Y10096D01*
X3330D01*
Y10098D01*
X3333D01*
Y10100D01*
X3334D01*
Y10101D01*
X3338D01*
Y10102D01*
X3339D01*
Y10104D01*
X3342D01*
Y10105D01*
X3346D01*
Y10106D01*
X3349D01*
Y10108D01*
X3353D01*
Y10109D01*
X3357D01*
Y10111D01*
X3372D01*
Y10109D01*
X3375D01*
Y10108D01*
X3377D01*
Y10106D01*
X3379D01*
Y10105D01*
X3380D01*
Y10104D01*
X3383D01*
Y10101D01*
X3384D01*
Y10100D01*
X3385D01*
Y10097D01*
X3387D01*
Y10094D01*
X3388D01*
Y10089D01*
X3390D01*
Y10073D01*
X3388D01*
Y10063D01*
X3387D01*
Y10059D01*
X3385D01*
Y10052D01*
X3384D01*
Y10048D01*
X3383D01*
Y10043D01*
X3381D01*
Y10039D01*
X3380D01*
Y10035D01*
X3379D01*
Y10029D01*
X3377D01*
Y10025D01*
X3376D01*
Y10018D01*
X3375D01*
Y10014D01*
X3373D01*
Y10004D01*
X3375D01*
Y10005D01*
X3376D01*
Y10006D01*
X3377D01*
Y10008D01*
X3379D01*
Y10009D01*
X3380D01*
Y10010D01*
X3381D01*
Y10012D01*
X3383D01*
Y10014D01*
X3384D01*
Y10016D01*
X3385D01*
Y10017D01*
X3387D01*
Y10020D01*
X3388D01*
Y10023D01*
X3390D01*
Y10027D01*
X3391D01*
Y10029D01*
X3392D01*
Y10033D01*
X3394D01*
Y10036D01*
X3395D01*
Y10041D01*
X3396D01*
Y10044D01*
X3398D01*
Y10050D01*
X3399D01*
Y10054D01*
X3400D01*
Y10058D01*
X3402D01*
Y10063D01*
X3403D01*
Y10066D01*
X3404D01*
Y10070D01*
X3406D01*
Y10073D01*
X3407D01*
Y10077D01*
X3409D01*
Y10079D01*
X3410D01*
Y10082D01*
X3411D01*
Y10085D01*
X3413D01*
Y10086D01*
X3414D01*
Y10089D01*
X3415D01*
Y10090D01*
X3417D01*
Y10093D01*
X3418D01*
Y10094D01*
X3419D01*
Y10096D01*
X3421D01*
Y10098D01*
X3422D01*
Y10101D01*
X3423D01*
Y10102D01*
X3425D01*
Y10104D01*
X3426D01*
Y10106D01*
X3427D01*
Y10108D01*
X3429D01*
Y10111D01*
X3430D01*
Y10115D01*
X3432D01*
Y10116D01*
X3433D01*
Y10120D01*
X3434D01*
Y10121D01*
X3436D01*
Y10125D01*
X3437D01*
Y10127D01*
X3438D01*
Y10132D01*
X3440D01*
Y10138D01*
X3442D01*
Y10136D01*
D02*
G37*
G36*
X4196Y9959D02*
X4183D01*
Y9960D01*
X4181D01*
Y9967D01*
X4151D01*
Y9846D01*
X4155D01*
Y9845D01*
X4158D01*
Y9830D01*
X4121D01*
Y9831D01*
X4120D01*
Y9844D01*
X4121D01*
Y9845D01*
X4124D01*
Y9846D01*
X4128D01*
Y9886D01*
Y9887D01*
Y9967D01*
X4099D01*
Y9960D01*
X4098D01*
Y9959D01*
X4090D01*
Y9960D01*
X4084D01*
Y9986D01*
X4196D01*
Y9959D01*
D02*
G37*
G36*
X4049Y9985D02*
X4060D01*
Y9983D01*
X4064D01*
Y9955D01*
X4063D01*
Y9953D01*
X4056D01*
Y9955D01*
X4047D01*
Y9967D01*
X4038D01*
Y9968D01*
X4024D01*
Y9967D01*
X4017D01*
Y9966D01*
X4013D01*
Y9964D01*
X4010D01*
Y9963D01*
X4007D01*
Y9960D01*
X4005D01*
Y9959D01*
Y9957D01*
X4002D01*
Y9953D01*
X4001D01*
Y9951D01*
X3999D01*
Y9940D01*
X4001D01*
Y9937D01*
X4002D01*
Y9934D01*
X4003D01*
Y9933D01*
X4005D01*
Y9932D01*
X4006D01*
Y9930D01*
X4007D01*
Y9929D01*
X4009D01*
Y9928D01*
X4010D01*
Y9926D01*
X4014D01*
Y9925D01*
X4017D01*
Y9924D01*
X4019D01*
Y9922D01*
X4022D01*
Y9921D01*
X4025D01*
Y9920D01*
X4029D01*
Y9918D01*
X4032D01*
Y9917D01*
X4036D01*
Y9915D01*
X4040D01*
Y9914D01*
X4042D01*
Y9913D01*
X4047D01*
Y9911D01*
X4049D01*
Y9910D01*
X4052D01*
Y9909D01*
X4053D01*
Y9907D01*
X4056D01*
Y9906D01*
X4059D01*
Y9905D01*
X4060D01*
Y9903D01*
X4061D01*
Y9902D01*
X4063D01*
Y9901D01*
X4064D01*
Y9899D01*
X4066D01*
Y9898D01*
X4067D01*
Y9895D01*
X4068D01*
Y9894D01*
X4070D01*
Y9891D01*
X4071D01*
Y9887D01*
X4072D01*
Y9883D01*
X4074D01*
Y9864D01*
X4072D01*
Y9860D01*
X4071D01*
Y9856D01*
X4070D01*
Y9852D01*
X4068D01*
Y9850D01*
X4067D01*
Y9848D01*
X4066D01*
Y9846D01*
X4064D01*
Y9845D01*
X4063D01*
Y9844D01*
X4061D01*
Y9842D01*
X4060D01*
Y9841D01*
X4057D01*
Y9840D01*
X4056D01*
Y9838D01*
X4055D01*
Y9837D01*
X4051D01*
Y9836D01*
X4049D01*
Y9834D01*
X4045D01*
Y9833D01*
X4041D01*
Y9831D01*
X4034D01*
Y9830D01*
X4024D01*
Y9829D01*
X4017D01*
Y9830D01*
X4003D01*
Y9831D01*
X3995D01*
Y9833D01*
X3990D01*
Y9834D01*
X3984D01*
Y9836D01*
X3982D01*
Y9837D01*
X3977D01*
Y9838D01*
X3976D01*
Y9865D01*
X3986D01*
Y9864D01*
X3992D01*
Y9863D01*
X3994D01*
Y9852D01*
X3995D01*
Y9850D01*
X4003D01*
Y9849D01*
X4011D01*
Y9848D01*
X4028D01*
Y9849D01*
X4033D01*
Y9850D01*
X4038D01*
Y9852D01*
X4040D01*
Y9853D01*
X4042D01*
Y9855D01*
X4044D01*
Y9856D01*
X4045D01*
Y9857D01*
X4048D01*
Y9860D01*
X4049D01*
Y9864D01*
X4051D01*
Y9868D01*
X4052D01*
Y9875D01*
X4051D01*
Y9880D01*
X4049D01*
Y9884D01*
X4048D01*
Y9887D01*
X4047D01*
Y9888D01*
X4045D01*
Y9890D01*
X4042D01*
Y9891D01*
X4041D01*
Y9892D01*
X4038D01*
Y9894D01*
X4036D01*
Y9895D01*
X4033D01*
Y9897D01*
X4030D01*
Y9898D01*
X4026D01*
Y9899D01*
X4024D01*
Y9901D01*
X4019D01*
Y9902D01*
X4015D01*
Y9903D01*
X4011D01*
Y9905D01*
X4009D01*
Y9906D01*
X4005D01*
Y9907D01*
X4002D01*
Y9909D01*
X3999D01*
Y9910D01*
X3998D01*
Y9911D01*
X3995D01*
Y9913D01*
X3992D01*
Y9915D01*
X3990D01*
Y9917D01*
X3988D01*
Y9918D01*
X3987D01*
Y9920D01*
X3986D01*
Y9921D01*
X3984D01*
Y9922D01*
X3983D01*
Y9925D01*
X3982D01*
Y9926D01*
X3980D01*
Y9929D01*
X3979D01*
Y9933D01*
X3977D01*
Y9937D01*
X3976D01*
Y9953D01*
X3977D01*
Y9957D01*
X3979D01*
Y9962D01*
X3980D01*
Y9966D01*
X3982D01*
Y9967D01*
X3983D01*
Y9970D01*
X3986D01*
Y9972D01*
X3987D01*
Y9974D01*
X3988D01*
Y9975D01*
X3990D01*
Y9976D01*
X3992D01*
Y9978D01*
X3995D01*
Y9979D01*
X3998D01*
Y9981D01*
X3999D01*
Y9982D01*
X4003D01*
Y9983D01*
X4007D01*
Y9985D01*
X4014D01*
Y9986D01*
X4049D01*
Y9985D01*
D02*
G37*
G36*
X3587Y10016D02*
X3589D01*
Y10012D01*
X3590D01*
Y10009D01*
X3591D01*
Y10005D01*
X3593D01*
Y10001D01*
X3594D01*
Y9998D01*
X3595D01*
Y9994D01*
X3597D01*
Y9991D01*
X3598D01*
Y9987D01*
X3600D01*
Y9985D01*
X3601D01*
Y9983D01*
X3602D01*
Y9982D01*
X3614D01*
Y9981D01*
X3623D01*
Y9979D01*
X3632D01*
Y9978D01*
X3631D01*
Y9976D01*
X3629D01*
Y9972D01*
X3628D01*
Y9971D01*
X3627D01*
Y9967D01*
X3625D01*
Y9966D01*
X3624D01*
Y9963D01*
X3623D01*
Y9959D01*
X3621D01*
Y9957D01*
X3620D01*
Y9955D01*
X3618D01*
Y9952D01*
X3617D01*
Y9949D01*
X3616D01*
Y9947D01*
X3614D01*
Y9944D01*
X3613D01*
Y9945D01*
X3612D01*
Y9947D01*
X3610D01*
Y9948D01*
X3609D01*
Y9949D01*
X3608D01*
Y9951D01*
X3605D01*
Y9953D01*
X3602D01*
Y9956D01*
X3601D01*
Y9957D01*
X3598D01*
Y9959D01*
X3597D01*
Y9960D01*
X3595D01*
Y9962D01*
X3594D01*
Y9963D01*
X3593D01*
Y9964D01*
X3591D01*
Y9966D01*
X3590D01*
Y9967D01*
X3589D01*
Y9968D01*
X3587D01*
Y9970D01*
X3586D01*
Y9971D01*
X3583D01*
Y9972D01*
X3582D01*
Y9975D01*
X3581D01*
Y9972D01*
X3579D01*
Y9970D01*
X3578D01*
Y9968D01*
X3576D01*
Y9966D01*
X3575D01*
Y9964D01*
X3574D01*
Y9962D01*
X3572D01*
Y9959D01*
X3571D01*
Y9957D01*
X3570D01*
Y9956D01*
X3568D01*
Y9953D01*
X3567D01*
Y9952D01*
X3566D01*
Y9951D01*
X3564D01*
Y9948D01*
X3563D01*
Y9947D01*
X3562D01*
Y9945D01*
X3560D01*
Y9943D01*
X3559D01*
Y9941D01*
X3558D01*
Y9944D01*
X3555D01*
Y9945D01*
X3553D01*
Y9947D01*
X3552D01*
Y9948D01*
X3551D01*
Y9949D01*
X3549D01*
Y9951D01*
X3551D01*
Y9953D01*
X3552D01*
Y9955D01*
X3553D01*
Y9956D01*
X3555D01*
Y9957D01*
X3556D01*
Y9960D01*
X3558D01*
Y9962D01*
X3559D01*
Y9963D01*
X3560D01*
Y9966D01*
X3562D01*
Y9968D01*
X3563D01*
Y9970D01*
X3564D01*
Y9972D01*
X3566D01*
Y9974D01*
X3567D01*
Y9976D01*
X3568D01*
Y9979D01*
X3570D01*
Y9982D01*
X3571D01*
Y9983D01*
X3572D01*
Y9986D01*
X3574D01*
Y9990D01*
X3575D01*
Y9993D01*
X3576D01*
Y9995D01*
X3578D01*
Y9998D01*
X3579D01*
Y10002D01*
X3581D01*
Y10005D01*
X3582D01*
Y10009D01*
X3583D01*
Y10014D01*
X3585D01*
Y10017D01*
X3586D01*
Y10018D01*
X3587D01*
Y10016D01*
D02*
G37*
G36*
X3207Y10018D02*
Y10016D01*
X3208D01*
Y10010D01*
X3209D01*
Y10008D01*
X3211D01*
Y10004D01*
X3212D01*
Y10001D01*
X3213D01*
Y9997D01*
X3215D01*
Y9994D01*
X3216D01*
Y9991D01*
X3218D01*
Y9987D01*
X3219D01*
Y9985D01*
X3220D01*
Y9982D01*
X3222D01*
Y9981D01*
X3223D01*
Y9978D01*
X3224D01*
Y9975D01*
X3226D01*
Y9972D01*
X3227D01*
Y9970D01*
X3228D01*
Y9968D01*
X3230D01*
Y9966D01*
X3231D01*
Y9964D01*
X3232D01*
Y9963D01*
X3234D01*
Y9960D01*
X3235D01*
Y9959D01*
X3236D01*
Y9956D01*
X3239D01*
Y9953D01*
X3241D01*
Y9952D01*
X3242D01*
Y9948D01*
X3239D01*
Y9947D01*
X3238D01*
Y9945D01*
X3236D01*
Y9944D01*
X3235D01*
Y9943D01*
X3232D01*
Y9944D01*
X3231D01*
Y9945D01*
X3230D01*
Y9947D01*
X3228D01*
Y9948D01*
X3227D01*
Y9951D01*
X3226D01*
Y9953D01*
X3224D01*
Y9955D01*
X3223D01*
Y9956D01*
X3222D01*
Y9957D01*
X3220D01*
Y9960D01*
X3219D01*
Y9962D01*
X3218D01*
Y9964D01*
X3216D01*
Y9967D01*
X3215D01*
Y9968D01*
X3213D01*
Y9971D01*
X3212D01*
Y9972D01*
X3211D01*
Y9974D01*
X3209D01*
Y9972D01*
X3208D01*
Y9971D01*
X3207D01*
Y9970D01*
X3205D01*
Y9968D01*
X3204D01*
Y9967D01*
X3203D01*
Y9966D01*
X3200D01*
Y9964D01*
X3199D01*
Y9963D01*
X3197D01*
Y9962D01*
X3196D01*
Y9960D01*
X3194D01*
Y9959D01*
X3193D01*
Y9957D01*
X3192D01*
Y9956D01*
X3190D01*
Y9955D01*
X3189D01*
Y9953D01*
X3186D01*
Y9951D01*
X3185D01*
Y9949D01*
X3184D01*
Y9948D01*
X3182D01*
Y9947D01*
X3180D01*
Y9945D01*
X3178D01*
Y9944D01*
X3177D01*
Y9948D01*
X3176D01*
Y9951D01*
X3174D01*
Y9953D01*
X3173D01*
Y9956D01*
X3171D01*
Y9957D01*
X3170D01*
Y9962D01*
X3169D01*
Y9963D01*
X3167D01*
Y9967D01*
X3166D01*
Y9970D01*
X3165D01*
Y9972D01*
X3163D01*
Y9975D01*
X3162D01*
Y9976D01*
X3161D01*
Y9979D01*
X3170D01*
Y9981D01*
X3177D01*
Y9982D01*
X3189D01*
Y9983D01*
X3192D01*
Y9986D01*
X3193D01*
Y9989D01*
X3194D01*
Y9993D01*
X3196D01*
Y9997D01*
X3197D01*
Y9999D01*
X3199D01*
Y10004D01*
X3200D01*
Y10006D01*
X3201D01*
Y10010D01*
X3203D01*
Y10013D01*
X3204D01*
Y10017D01*
X3205D01*
Y10020D01*
X3207D01*
Y10018D01*
D02*
G37*
G36*
X3583Y9963D02*
X3585D01*
Y9962D01*
X3586D01*
Y9960D01*
X3587D01*
Y9959D01*
X3589D01*
Y9957D01*
X3590D01*
Y9956D01*
X3591D01*
Y9955D01*
X3593D01*
Y9953D01*
X3595D01*
Y9951D01*
X3598D01*
Y9948D01*
X3601D01*
Y9947D01*
X3602D01*
Y9945D01*
X3604D01*
Y9944D01*
X3605D01*
Y9943D01*
X3606D01*
Y9941D01*
X3608D01*
Y9940D01*
X3609D01*
Y9939D01*
X3610D01*
Y9937D01*
X3613D01*
Y9936D01*
X3614D01*
Y9934D01*
X3616D01*
Y9933D01*
X3617D01*
Y9932D01*
X3618D01*
Y9930D01*
X3620D01*
Y9929D01*
X3621D01*
Y9928D01*
X3623D01*
Y9926D01*
X3624D01*
Y9925D01*
X3623D01*
Y9924D01*
X3621D01*
Y9922D01*
X3620D01*
Y9920D01*
X3618D01*
Y9918D01*
X3617D01*
Y9915D01*
X3614D01*
Y9913D01*
X3613D01*
Y9910D01*
X3612D01*
Y9909D01*
X3610D01*
Y9907D01*
X3609D01*
Y9906D01*
X3608D01*
Y9903D01*
X3605D01*
Y9901D01*
X3604D01*
Y9899D01*
X3602D01*
Y9898D01*
X3601D01*
Y9897D01*
X3600D01*
Y9895D01*
X3598D01*
Y9892D01*
X3597D01*
Y9891D01*
X3595D01*
Y9890D01*
X3594D01*
Y9888D01*
X3593D01*
Y9887D01*
X3591D01*
Y9886D01*
X3590D01*
Y9884D01*
X3589D01*
Y9883D01*
X3587D01*
Y9882D01*
X3586D01*
Y9880D01*
X3585D01*
Y9879D01*
X3583D01*
Y9878D01*
X3582D01*
Y9876D01*
X3581D01*
Y9875D01*
X3579D01*
Y9873D01*
X3578D01*
Y9872D01*
X3576D01*
Y9871D01*
X3575D01*
Y9869D01*
X3574D01*
Y9868D01*
X3572D01*
Y9867D01*
X3570D01*
Y9865D01*
X3568D01*
Y9864D01*
X3567D01*
Y9863D01*
X3564D01*
Y9860D01*
X3562D01*
Y9859D01*
X3560D01*
Y9857D01*
X3559D01*
Y9856D01*
X3556D01*
Y9855D01*
X3555D01*
Y9853D01*
X3552D01*
Y9852D01*
X3551D01*
Y9850D01*
X3549D01*
Y9849D01*
X3548D01*
Y9848D01*
X3545D01*
Y9846D01*
X3543D01*
Y9845D01*
X3541D01*
Y9844D01*
X3539D01*
Y9842D01*
X3537D01*
Y9841D01*
X3534D01*
Y9840D01*
X3532D01*
Y9838D01*
X3529D01*
Y9837D01*
X3526D01*
Y9836D01*
X3525D01*
Y9834D01*
X3521D01*
Y9833D01*
X3520D01*
Y9831D01*
X3517D01*
Y9830D01*
X3514D01*
Y9829D01*
X3511D01*
Y9827D01*
X3507D01*
Y9826D01*
X3505D01*
Y9825D01*
X3501D01*
Y9823D01*
X3498D01*
Y9822D01*
X3495D01*
Y9821D01*
X3491D01*
Y9819D01*
X3487D01*
Y9818D01*
X3483D01*
Y9817D01*
X3479D01*
Y9815D01*
X3474D01*
Y9814D01*
X3471D01*
Y9813D01*
X3464D01*
Y9811D01*
X3460D01*
Y9810D01*
X3453D01*
Y9808D01*
X3445D01*
Y9807D01*
X3440D01*
Y9806D01*
X3429D01*
Y9804D01*
X3417D01*
Y9803D01*
X3375D01*
Y9804D01*
X3364D01*
Y9806D01*
X3353D01*
Y9807D01*
X3346D01*
Y9808D01*
X3338D01*
Y9810D01*
X3331D01*
Y9811D01*
X3327D01*
Y9813D01*
X3320D01*
Y9814D01*
X3318D01*
Y9815D01*
X3312D01*
Y9817D01*
X3310D01*
Y9818D01*
X3304D01*
Y9819D01*
X3300D01*
Y9821D01*
X3297D01*
Y9822D01*
X3293D01*
Y9823D01*
X3291D01*
Y9825D01*
X3288D01*
Y9826D01*
X3285D01*
Y9827D01*
X3281D01*
Y9829D01*
X3277D01*
Y9830D01*
X3276D01*
Y9831D01*
X3273D01*
Y9833D01*
X3270D01*
Y9834D01*
X3268D01*
Y9836D01*
X3265D01*
Y9837D01*
X3262D01*
Y9838D01*
X3259D01*
Y9840D01*
X3258D01*
Y9841D01*
X3255D01*
Y9842D01*
X3254D01*
Y9844D01*
X3251D01*
Y9845D01*
X3249D01*
Y9846D01*
X3247D01*
Y9848D01*
X3245D01*
Y9849D01*
X3243D01*
Y9850D01*
X3241D01*
Y9852D01*
X3239D01*
Y9853D01*
X3236D01*
Y9855D01*
X3235D01*
Y9856D01*
X3232D01*
Y9857D01*
X3231D01*
Y9859D01*
X3230D01*
Y9860D01*
X3227D01*
Y9861D01*
X3226D01*
Y9863D01*
X3224D01*
Y9864D01*
X3223D01*
Y9865D01*
X3220D01*
Y9867D01*
X3219D01*
Y9868D01*
X3218D01*
Y9869D01*
X3216D01*
Y9871D01*
X3215D01*
Y9872D01*
X3213D01*
Y9873D01*
X3212D01*
Y9875D01*
X3209D01*
Y9876D01*
X3208D01*
Y9878D01*
X3207D01*
Y9879D01*
X3205D01*
Y9880D01*
X3204D01*
Y9882D01*
X3203D01*
Y9883D01*
X3201D01*
Y9884D01*
X3200D01*
Y9886D01*
X3199D01*
Y9887D01*
X3197D01*
Y9888D01*
X3196D01*
Y9890D01*
X3194D01*
Y9892D01*
X3193D01*
Y9894D01*
X3192D01*
Y9895D01*
X3190D01*
Y9897D01*
X3189D01*
Y9898D01*
X3188D01*
Y9899D01*
X3186D01*
Y9901D01*
X3185D01*
Y9903D01*
X3184D01*
Y9905D01*
X3182D01*
Y9906D01*
X3181D01*
Y9907D01*
X3180D01*
Y9910D01*
X3177D01*
Y9913D01*
X3176D01*
Y9915D01*
X3174D01*
Y9917D01*
X3173D01*
Y9918D01*
X3171D01*
Y9920D01*
X3170D01*
Y9922D01*
X3169D01*
Y9925D01*
X3167D01*
Y9926D01*
X3170D01*
Y9929D01*
X3173D01*
Y9930D01*
X3174D01*
Y9932D01*
X3176D01*
Y9933D01*
X3177D01*
Y9934D01*
X3178D01*
Y9936D01*
X3180D01*
Y9937D01*
X3181D01*
Y9939D01*
X3182D01*
Y9940D01*
X3184D01*
Y9941D01*
X3186D01*
Y9944D01*
X3189D01*
Y9947D01*
X3192D01*
Y9948D01*
X3193D01*
Y9949D01*
X3194D01*
Y9951D01*
X3196D01*
Y9952D01*
X3197D01*
Y9953D01*
X3199D01*
Y9955D01*
X3200D01*
Y9956D01*
X3201D01*
Y9957D01*
X3204D01*
Y9960D01*
X3207D01*
Y9962D01*
X3208D01*
Y9963D01*
X3211D01*
Y9960D01*
X3212D01*
Y9959D01*
X3213D01*
Y9956D01*
X3215D01*
Y9955D01*
X3216D01*
Y9953D01*
X3218D01*
Y9951D01*
X3219D01*
Y9949D01*
X3220D01*
Y9947D01*
X3222D01*
Y9945D01*
X3223D01*
Y9944D01*
X3224D01*
Y9943D01*
X3226D01*
Y9940D01*
X3227D01*
Y9939D01*
X3228D01*
Y9937D01*
X3230D01*
Y9934D01*
X3232D01*
Y9932D01*
X3234D01*
Y9930D01*
X3235D01*
Y9929D01*
X3236D01*
Y9928D01*
X3238D01*
Y9926D01*
X3239D01*
Y9925D01*
X3241D01*
Y9924D01*
X3242D01*
Y9922D01*
X3243D01*
Y9921D01*
X3245D01*
Y9920D01*
X3246D01*
Y9918D01*
X3247D01*
Y9917D01*
X3249D01*
Y9915D01*
X3251D01*
Y9913D01*
X3254D01*
Y9911D01*
X3255D01*
Y9910D01*
X3257D01*
Y9909D01*
X3258D01*
Y9907D01*
X3259D01*
Y9906D01*
X3262D01*
Y9905D01*
X3264D01*
Y9903D01*
X3265D01*
Y9902D01*
X3266D01*
Y9901D01*
X3269D01*
Y9899D01*
X3270D01*
Y9898D01*
X3273D01*
Y9897D01*
X3276D01*
Y9895D01*
X3277D01*
Y9894D01*
X3280D01*
Y9892D01*
X3281D01*
Y9891D01*
X3284D01*
Y9890D01*
X3285D01*
Y9888D01*
X3288D01*
Y9887D01*
X3291D01*
Y9886D01*
X3292D01*
Y9884D01*
X3296D01*
Y9883D01*
X3297D01*
Y9882D01*
X3301D01*
Y9880D01*
X3303D01*
Y9879D01*
X3307D01*
Y9878D01*
X3311D01*
Y9876D01*
X3312D01*
Y9875D01*
X3316D01*
Y9873D01*
X3319D01*
Y9872D01*
X3325D01*
Y9871D01*
X3327D01*
Y9869D01*
X3333D01*
Y9868D01*
X3335D01*
Y9867D01*
X3342D01*
Y9865D01*
X3348D01*
Y9864D01*
X3353D01*
Y9863D01*
X3362D01*
Y9861D01*
X3371D01*
Y9860D01*
X3422D01*
Y9861D01*
X3430D01*
Y9863D01*
X3438D01*
Y9864D01*
X3444D01*
Y9865D01*
X3451D01*
Y9867D01*
X3456D01*
Y9868D01*
X3460D01*
Y9869D01*
X3465D01*
Y9871D01*
X3468D01*
Y9872D01*
X3472D01*
Y9873D01*
X3475D01*
Y9875D01*
X3479D01*
Y9876D01*
X3482D01*
Y9878D01*
X3486D01*
Y9879D01*
X3488D01*
Y9880D01*
X3491D01*
Y9882D01*
X3494D01*
Y9883D01*
X3497D01*
Y9884D01*
X3499D01*
Y9886D01*
X3502D01*
Y9887D01*
X3505D01*
Y9888D01*
X3507D01*
Y9890D01*
X3509D01*
Y9891D01*
X3511D01*
Y9892D01*
X3513D01*
Y9894D01*
X3516D01*
Y9895D01*
X3517D01*
Y9897D01*
X3520D01*
Y9898D01*
X3521D01*
Y9899D01*
X3524D01*
Y9901D01*
X3525D01*
Y9902D01*
X3526D01*
Y9903D01*
X3529D01*
Y9905D01*
X3530D01*
Y9906D01*
X3532D01*
Y9907D01*
X3534D01*
Y9909D01*
X3536D01*
Y9910D01*
X3537D01*
Y9911D01*
X3539D01*
Y9913D01*
X3540D01*
Y9914D01*
X3541D01*
Y9915D01*
X3543D01*
Y9917D01*
X3545D01*
Y9920D01*
X3548D01*
Y9922D01*
X3551D01*
Y9925D01*
X3552D01*
Y9926D01*
X3555D01*
Y9929D01*
X3558D01*
Y9932D01*
X3559D01*
Y9933D01*
X3560D01*
Y9934D01*
X3562D01*
Y9937D01*
X3564D01*
Y9940D01*
X3566D01*
Y9941D01*
X3567D01*
Y9943D01*
X3568D01*
Y9944D01*
X3570D01*
Y9947D01*
X3571D01*
Y9948D01*
X3572D01*
Y9949D01*
X3574D01*
Y9952D01*
X3575D01*
Y9953D01*
X3576D01*
Y9956D01*
X3578D01*
Y9957D01*
X3579D01*
Y9960D01*
X3581D01*
Y9962D01*
X3582D01*
Y9964D01*
X3583D01*
Y9963D01*
D02*
G37*
G36*
X3961Y9985D02*
X3963D01*
Y9971D01*
X3959D01*
Y9970D01*
X3954D01*
Y9875D01*
X3953D01*
Y9867D01*
X3952D01*
Y9861D01*
X3950D01*
Y9857D01*
X3949D01*
Y9853D01*
X3948D01*
Y9850D01*
X3946D01*
Y9849D01*
X3945D01*
Y9846D01*
X3944D01*
Y9845D01*
X3942D01*
Y9844D01*
X3941D01*
Y9842D01*
X3940D01*
Y9841D01*
X3938D01*
Y9838D01*
X3935D01*
Y9837D01*
X3933D01*
Y9836D01*
X3931D01*
Y9834D01*
X3927D01*
Y9833D01*
X3926D01*
Y9831D01*
X3921D01*
Y9830D01*
X3915D01*
Y9829D01*
X3879D01*
Y9830D01*
X3875D01*
Y9831D01*
X3869D01*
Y9833D01*
X3866D01*
Y9834D01*
X3864D01*
Y9836D01*
X3861D01*
Y9837D01*
X3860D01*
Y9838D01*
X3857D01*
Y9841D01*
X3854D01*
Y9844D01*
X3853D01*
Y9845D01*
X3851D01*
Y9848D01*
X3850D01*
Y9849D01*
X3849D01*
Y9853D01*
X3847D01*
Y9856D01*
X3846D01*
Y9861D01*
X3845D01*
Y9869D01*
X3843D01*
Y9970D01*
X3838D01*
Y9971D01*
X3835D01*
Y9985D01*
X3837D01*
Y9986D01*
X3872D01*
Y9985D01*
X3873D01*
Y9971D01*
X3870D01*
Y9970D01*
X3865D01*
Y9879D01*
X3866D01*
Y9867D01*
X3868D01*
Y9861D01*
X3869D01*
Y9860D01*
X3870D01*
Y9857D01*
X3872D01*
Y9856D01*
X3873D01*
Y9853D01*
X3876D01*
Y9850D01*
X3879D01*
Y9849D01*
X3881D01*
Y9848D01*
X3885D01*
Y9846D01*
X3911D01*
Y9848D01*
X3915D01*
Y9849D01*
X3918D01*
Y9850D01*
X3921D01*
Y9853D01*
X3923D01*
Y9856D01*
X3926D01*
Y9859D01*
X3927D01*
Y9861D01*
X3929D01*
Y9864D01*
X3930D01*
Y9869D01*
X3931D01*
Y9878D01*
X3933D01*
Y9897D01*
Y9898D01*
Y9970D01*
X3927D01*
Y9971D01*
X3925D01*
Y9985D01*
X3926D01*
Y9986D01*
X3961D01*
Y9985D01*
D02*
G37*
G36*
X4725Y9983D02*
X4727D01*
Y9979D01*
X4728D01*
Y9976D01*
X4729D01*
Y9972D01*
X4731D01*
Y9968D01*
X4732D01*
Y9966D01*
X4733D01*
Y9962D01*
X4735D01*
Y9959D01*
X4736D01*
Y9955D01*
X4737D01*
Y9952D01*
X4739D01*
Y9948D01*
X4740D01*
Y9944D01*
X4742D01*
Y9941D01*
X4743D01*
Y9937D01*
X4744D01*
Y9934D01*
X4746D01*
Y9929D01*
X4747D01*
Y9926D01*
X4748D01*
Y9922D01*
X4750D01*
Y9920D01*
X4751D01*
Y9915D01*
X4752D01*
Y9911D01*
X4754D01*
Y9909D01*
X4755D01*
Y9905D01*
X4756D01*
Y9902D01*
X4758D01*
Y9898D01*
X4759D01*
Y9895D01*
X4760D01*
Y9891D01*
X4762D01*
Y9887D01*
X4763D01*
Y9884D01*
X4765D01*
Y9880D01*
X4766D01*
Y9878D01*
X4767D01*
Y9873D01*
X4769D01*
Y9869D01*
X4770D01*
Y9867D01*
X4771D01*
Y9863D01*
X4773D01*
Y9860D01*
X4774D01*
Y9856D01*
X4775D01*
Y9853D01*
X4777D01*
Y9848D01*
X4778D01*
Y9846D01*
X4783D01*
Y9845D01*
X4786D01*
Y9831D01*
X4785D01*
Y9830D01*
X4748D01*
Y9831D01*
X4747D01*
Y9840D01*
X4748D01*
Y9845D01*
X4751D01*
Y9846D01*
X4755D01*
Y9848D01*
X4754D01*
Y9850D01*
X4752D01*
Y9855D01*
X4751D01*
Y9860D01*
X4750D01*
Y9863D01*
X4748D01*
Y9867D01*
X4747D01*
Y9868D01*
X4683D01*
Y9864D01*
X4682D01*
Y9860D01*
X4681D01*
Y9856D01*
X4679D01*
Y9850D01*
X4678D01*
Y9848D01*
X4676D01*
Y9846D01*
X4681D01*
Y9845D01*
X4685D01*
Y9837D01*
X4683D01*
Y9830D01*
X4648D01*
Y9831D01*
X4647D01*
Y9845D01*
X4649D01*
Y9846D01*
X4655D01*
Y9850D01*
X4656D01*
Y9853D01*
X4658D01*
Y9857D01*
X4659D01*
Y9863D01*
X4660D01*
Y9865D01*
X4662D01*
Y9869D01*
X4663D01*
Y9872D01*
X4664D01*
Y9878D01*
X4666D01*
Y9879D01*
X4667D01*
Y9884D01*
X4668D01*
Y9887D01*
X4670D01*
Y9891D01*
X4671D01*
Y9897D01*
X4672D01*
Y9898D01*
X4674D01*
Y9903D01*
X4675D01*
Y9906D01*
X4676D01*
Y9910D01*
X4678D01*
Y9913D01*
X4679D01*
Y9917D01*
X4681D01*
Y9922D01*
X4682D01*
Y9925D01*
X4683D01*
Y9929D01*
X4685D01*
Y9932D01*
X4686D01*
Y9937D01*
X4687D01*
Y9940D01*
X4689D01*
Y9944D01*
X4690D01*
Y9948D01*
X4691D01*
Y9952D01*
X4693D01*
Y9956D01*
X4694D01*
Y9959D01*
X4695D01*
Y9963D01*
X4697D01*
Y9966D01*
X4698D01*
Y9970D01*
X4694D01*
Y9971D01*
X4691D01*
Y9972D01*
X4690D01*
Y9974D01*
X4691D01*
Y9985D01*
X4693D01*
Y9986D01*
X4725D01*
Y9983D01*
D02*
G37*
G36*
X4632Y9985D02*
X4633D01*
Y9971D01*
X4629D01*
Y9970D01*
X4625D01*
Y9846D01*
X4630D01*
Y9845D01*
X4633D01*
Y9831D01*
X4632D01*
Y9830D01*
X4597D01*
Y9831D01*
X4595D01*
Y9845D01*
X4598D01*
Y9846D01*
X4602D01*
Y9915D01*
Y9917D01*
Y9970D01*
X4598D01*
Y9971D01*
X4595D01*
Y9985D01*
X4597D01*
Y9986D01*
X4632D01*
Y9985D01*
D02*
G37*
G36*
X4521D02*
X4522D01*
Y9971D01*
X4518D01*
Y9970D01*
X4514D01*
Y9859D01*
Y9857D01*
Y9849D01*
X4568D01*
Y9857D01*
X4580D01*
Y9856D01*
X4583D01*
Y9830D01*
X4485D01*
Y9831D01*
X4484D01*
Y9845D01*
X4487D01*
Y9846D01*
X4492D01*
Y9970D01*
X4487D01*
Y9971D01*
X4484D01*
Y9985D01*
X4485D01*
Y9986D01*
X4521D01*
Y9985D01*
D02*
G37*
G36*
X4410D02*
X4411D01*
Y9981D01*
X4412D01*
Y9978D01*
X4414D01*
Y9974D01*
X4415D01*
Y9970D01*
X4416D01*
Y9967D01*
X4418D01*
Y9963D01*
X4419D01*
Y9960D01*
X4420D01*
Y9956D01*
X4422D01*
Y9953D01*
X4423D01*
Y9949D01*
X4425D01*
Y9947D01*
X4426D01*
Y9943D01*
X4427D01*
Y9939D01*
X4429D01*
Y9936D01*
X4430D01*
Y9932D01*
X4431D01*
Y9929D01*
X4433D01*
Y9925D01*
X4434D01*
Y9922D01*
X4435D01*
Y9917D01*
X4437D01*
Y9913D01*
X4438D01*
Y9910D01*
X4439D01*
Y9906D01*
X4441D01*
Y9903D01*
X4442D01*
Y9899D01*
X4443D01*
Y9897D01*
X4445D01*
Y9892D01*
X4446D01*
Y9888D01*
X4448D01*
Y9886D01*
X4449D01*
Y9882D01*
X4450D01*
Y9879D01*
X4452D01*
Y9875D01*
X4453D01*
Y9872D01*
X4454D01*
Y9868D01*
X4456D01*
Y9864D01*
X4457D01*
Y9861D01*
X4458D01*
Y9857D01*
X4460D01*
Y9855D01*
X4461D01*
Y9850D01*
X4462D01*
Y9848D01*
X4464D01*
Y9846D01*
X4468D01*
Y9845D01*
X4471D01*
Y9830D01*
X4434D01*
Y9831D01*
X4433D01*
Y9845D01*
X4435D01*
Y9846D01*
X4439D01*
Y9849D01*
X4438D01*
Y9852D01*
X4437D01*
Y9857D01*
X4435D01*
Y9861D01*
X4434D01*
Y9864D01*
X4433D01*
Y9868D01*
X4369D01*
Y9867D01*
X4368D01*
Y9861D01*
X4366D01*
Y9859D01*
X4365D01*
Y9853D01*
X4364D01*
Y9849D01*
X4362D01*
Y9846D01*
X4366D01*
Y9845D01*
X4369D01*
Y9831D01*
X4368D01*
Y9830D01*
X4332D01*
Y9831D01*
X4331D01*
Y9837D01*
X4332D01*
Y9845D01*
X4335D01*
Y9846D01*
X4339D01*
Y9848D01*
X4341D01*
Y9850D01*
X4342D01*
Y9856D01*
X4343D01*
Y9859D01*
X4345D01*
Y9863D01*
X4346D01*
Y9867D01*
X4347D01*
Y9869D01*
X4349D01*
Y9875D01*
X4350D01*
Y9878D01*
X4351D01*
Y9882D01*
X4353D01*
Y9884D01*
X4354D01*
Y9890D01*
X4355D01*
Y9894D01*
X4357D01*
Y9897D01*
X4358D01*
Y9901D01*
X4359D01*
Y9903D01*
X4361D01*
Y9909D01*
X4362D01*
Y9911D01*
X4364D01*
Y9915D01*
X4365D01*
Y9920D01*
X4366D01*
Y9924D01*
X4368D01*
Y9928D01*
X4369D01*
Y9930D01*
X4370D01*
Y9934D01*
X4372D01*
Y9939D01*
X4373D01*
Y9943D01*
X4374D01*
Y9947D01*
X4376D01*
Y9949D01*
X4377D01*
Y9953D01*
X4378D01*
Y9957D01*
X4380D01*
Y9962D01*
X4381D01*
Y9964D01*
X4383D01*
Y9968D01*
X4384D01*
Y9970D01*
X4380D01*
Y9971D01*
X4376D01*
Y9979D01*
X4377D01*
Y9986D01*
X4410D01*
Y9985D01*
D02*
G37*
G36*
X4263D02*
X4278D01*
Y9983D01*
X4284D01*
Y9982D01*
X4289D01*
Y9981D01*
X4292D01*
Y9979D01*
X4294D01*
Y9978D01*
X4296D01*
Y9976D01*
X4299D01*
Y9975D01*
X4301D01*
Y9974D01*
X4303D01*
Y9972D01*
X4304D01*
Y9971D01*
X4305D01*
Y9970D01*
X4307D01*
Y9968D01*
X4308D01*
Y9966D01*
X4309D01*
Y9964D01*
X4311D01*
Y9960D01*
X4312D01*
Y9957D01*
X4313D01*
Y9952D01*
X4315D01*
Y9926D01*
X4313D01*
Y9922D01*
X4312D01*
Y9920D01*
X4311D01*
Y9915D01*
X4309D01*
Y9914D01*
X4308D01*
Y9911D01*
X4307D01*
Y9910D01*
X4305D01*
Y9907D01*
X4304D01*
Y9906D01*
X4303D01*
Y9905D01*
X4301D01*
Y9903D01*
X4300D01*
Y9902D01*
X4299D01*
Y9901D01*
X4296D01*
Y9899D01*
X4294D01*
Y9898D01*
X4292D01*
Y9897D01*
X4289D01*
Y9895D01*
X4286D01*
Y9892D01*
X4288D01*
Y9891D01*
X4289D01*
Y9888D01*
X4290D01*
Y9886D01*
X4292D01*
Y9883D01*
X4293D01*
Y9880D01*
X4294D01*
Y9879D01*
X4296D01*
Y9876D01*
X4297D01*
Y9875D01*
X4299D01*
Y9872D01*
X4300D01*
Y9869D01*
X4301D01*
Y9867D01*
X4303D01*
Y9865D01*
X4304D01*
Y9863D01*
X4305D01*
Y9860D01*
X4307D01*
Y9857D01*
X4308D01*
Y9856D01*
X4309D01*
Y9853D01*
X4311D01*
Y9850D01*
X4312D01*
Y9849D01*
X4313D01*
Y9846D01*
X4319D01*
Y9845D01*
X4322D01*
Y9844D01*
X4323D01*
Y9840D01*
X4322D01*
Y9831D01*
X4320D01*
Y9830D01*
X4297D01*
Y9831D01*
X4296D01*
Y9834D01*
X4294D01*
Y9837D01*
X4293D01*
Y9838D01*
X4292D01*
Y9841D01*
X4290D01*
Y9844D01*
X4289D01*
Y9846D01*
X4288D01*
Y9848D01*
X4286D01*
Y9850D01*
X4285D01*
Y9853D01*
X4284D01*
Y9856D01*
X4282D01*
Y9859D01*
X4281D01*
Y9860D01*
X4280D01*
Y9863D01*
X4278D01*
Y9865D01*
X4277D01*
Y9868D01*
X4275D01*
Y9869D01*
X4274D01*
Y9872D01*
X4273D01*
Y9875D01*
X4271D01*
Y9878D01*
X4270D01*
Y9880D01*
X4269D01*
Y9882D01*
X4267D01*
Y9884D01*
X4266D01*
Y9887D01*
X4265D01*
Y9888D01*
X4263D01*
Y9891D01*
X4242D01*
Y9846D01*
X4246D01*
Y9845D01*
X4248D01*
Y9844D01*
X4250D01*
Y9840D01*
X4248D01*
Y9830D01*
X4212D01*
Y9831D01*
X4210D01*
Y9840D01*
X4212D01*
Y9845D01*
X4215D01*
Y9846D01*
X4219D01*
Y9970D01*
X4215D01*
Y9971D01*
X4210D01*
Y9979D01*
X4212D01*
Y9986D01*
X4263D01*
Y9985D01*
D02*
G37*
G36*
X3774D02*
X3776D01*
Y9982D01*
X3777D01*
Y9976D01*
X3778D01*
Y9974D01*
X3780D01*
Y9970D01*
X3781D01*
Y9967D01*
X3782D01*
Y9963D01*
X3784D01*
Y9960D01*
X3785D01*
Y9956D01*
X3786D01*
Y9952D01*
X3788D01*
Y9949D01*
X3789D01*
Y9945D01*
X3791D01*
Y9943D01*
X3792D01*
Y9939D01*
X3793D01*
Y9936D01*
X3795D01*
Y9932D01*
X3796D01*
Y9928D01*
X3797D01*
Y9925D01*
X3799D01*
Y9921D01*
X3800D01*
Y9917D01*
X3801D01*
Y9914D01*
X3803D01*
Y9910D01*
X3804D01*
Y9907D01*
X3805D01*
Y9903D01*
X3807D01*
Y9899D01*
X3808D01*
Y9897D01*
X3809D01*
Y9892D01*
X3811D01*
Y9888D01*
X3812D01*
Y9886D01*
X3814D01*
Y9882D01*
X3815D01*
Y9879D01*
X3816D01*
Y9875D01*
X3818D01*
Y9871D01*
X3819D01*
Y9868D01*
X3820D01*
Y9864D01*
X3822D01*
Y9861D01*
X3823D01*
Y9857D01*
X3824D01*
Y9855D01*
X3826D01*
Y9850D01*
X3827D01*
Y9846D01*
X3833D01*
Y9845D01*
X3835D01*
Y9830D01*
X3799D01*
Y9831D01*
X3796D01*
Y9837D01*
X3797D01*
Y9845D01*
X3800D01*
Y9846D01*
X3804D01*
Y9849D01*
X3803D01*
Y9853D01*
X3801D01*
Y9857D01*
X3800D01*
Y9860D01*
X3799D01*
Y9864D01*
X3797D01*
Y9867D01*
X3796D01*
Y9868D01*
X3734D01*
Y9867D01*
X3732D01*
Y9861D01*
X3731D01*
Y9859D01*
X3730D01*
Y9853D01*
X3728D01*
Y9850D01*
X3727D01*
Y9846D01*
X3731D01*
Y9845D01*
X3734D01*
Y9844D01*
X3735D01*
Y9842D01*
X3734D01*
Y9831D01*
X3732D01*
Y9830D01*
X3697D01*
Y9831D01*
X3696D01*
Y9844D01*
X3697D01*
Y9845D01*
X3700D01*
Y9846D01*
X3704D01*
Y9848D01*
X3705D01*
Y9853D01*
X3707D01*
Y9856D01*
X3708D01*
Y9860D01*
X3709D01*
Y9863D01*
X3711D01*
Y9867D01*
X3712D01*
Y9869D01*
X3713D01*
Y9875D01*
X3715D01*
Y9879D01*
X3716D01*
Y9882D01*
X3717D01*
Y9887D01*
X3719D01*
Y9888D01*
X3720D01*
Y9894D01*
X3721D01*
Y9897D01*
X3723D01*
Y9901D01*
X3724D01*
Y9906D01*
X3726D01*
Y9909D01*
X3727D01*
Y9913D01*
X3728D01*
Y9915D01*
X3730D01*
Y9920D01*
X3731D01*
Y9922D01*
X3732D01*
Y9928D01*
X3734D01*
Y9930D01*
X3735D01*
Y9934D01*
X3736D01*
Y9939D01*
X3738D01*
Y9943D01*
X3739D01*
Y9947D01*
X3740D01*
Y9949D01*
X3742D01*
Y9953D01*
X3743D01*
Y9956D01*
X3744D01*
Y9962D01*
X3746D01*
Y9966D01*
X3747D01*
Y9968D01*
X3749D01*
Y9970D01*
X3744D01*
Y9971D01*
X3740D01*
Y9978D01*
X3742D01*
Y9986D01*
X3774D01*
Y9985D01*
D02*
G37*
G36*
X6122Y8037D02*
X6122Y8037D01*
Y8036D01*
X6122Y8036D01*
X6122Y8035D01*
X6122Y8035D01*
X6122Y8034D01*
X6122Y8034D01*
Y8034D01*
X6122Y8034D01*
X6122Y8034D01*
X6122Y8034D01*
X6122Y8033D01*
X6121Y8033D01*
X6121Y8033D01*
X6121Y8032D01*
X6120Y8032D01*
X6120Y8032D01*
X6120Y8032D01*
X6120Y8032D01*
X6120Y8032D01*
X6119Y8032D01*
X6119Y8032D01*
X6119Y8032D01*
X6118Y8032D01*
X6118D01*
X6118D01*
X6118D01*
X6118Y8032D01*
X6118D01*
X6117Y8032D01*
X6117Y8032D01*
X6117Y8032D01*
X6116Y8032D01*
X6116Y8032D01*
X6115Y8032D01*
X6115Y8033D01*
X6115Y8033D01*
X6115Y8033D01*
X6115Y8033D01*
X6115Y8033D01*
X6115Y8033D01*
X6115Y8033D01*
X6115Y8033D01*
X6114Y8034D01*
X6114Y8034D01*
X6114Y8034D01*
X6114Y8035D01*
X6114Y8035D01*
X6114Y8035D01*
X6114Y8036D01*
X6114Y8036D01*
X6114Y8036D01*
X6114Y8036D01*
X6114Y8036D01*
X6113Y8036D01*
X6113Y8035D01*
X6113Y8035D01*
X6113Y8035D01*
X6113Y8035D01*
X6113Y8035D01*
X6113Y8034D01*
X6112Y8034D01*
X6112Y8034D01*
X6112Y8034D01*
X6111Y8033D01*
X6111Y8033D01*
X6106Y8030D01*
Y8033D01*
X6110Y8035D01*
X6110D01*
X6110Y8035D01*
X6110Y8035D01*
X6110Y8035D01*
X6110Y8035D01*
X6111Y8036D01*
X6111Y8036D01*
X6111Y8036D01*
X6112Y8036D01*
X6112Y8037D01*
X6112Y8037D01*
X6112Y8037D01*
X6112Y8037D01*
X6112Y8037D01*
X6113Y8037D01*
X6113Y8037D01*
X6113Y8038D01*
X6113Y8038D01*
X6113Y8038D01*
X6113Y8038D01*
X6113Y8038D01*
X6113Y8038D01*
X6113Y8039D01*
Y8039D01*
X6113Y8039D01*
Y8039D01*
X6113Y8039D01*
Y8039D01*
X6114Y8039D01*
Y8042D01*
X6106D01*
Y8044D01*
X6122D01*
Y8037D01*
D02*
G37*
G36*
X6118Y8027D02*
X6118Y8027D01*
X6119Y8027D01*
X6119Y8027D01*
X6119Y8027D01*
X6119Y8027D01*
X6119Y8027D01*
X6119Y8026D01*
X6120Y8026D01*
X6120Y8025D01*
X6120Y8025D01*
X6120Y8025D01*
X6120Y8025D01*
X6121Y8024D01*
X6121Y8024D01*
X6121Y8024D01*
X6121Y8024D01*
X6122Y8023D01*
X6122Y8023D01*
X6123Y8023D01*
Y8022D01*
X6106D01*
Y8024D01*
X6119D01*
X6119Y8024D01*
X6119Y8024D01*
X6119Y8024D01*
X6119Y8024D01*
X6118Y8024D01*
X6118Y8025D01*
X6118Y8025D01*
X6118Y8025D01*
X6118Y8025D01*
X6117Y8026D01*
X6117Y8026D01*
X6117Y8026D01*
X6117Y8026D01*
X6117Y8027D01*
X6117Y8027D01*
X6117Y8027D01*
X6118D01*
Y8027D01*
D02*
G37*
G36*
X6103Y8005D02*
X6102D01*
Y8018D01*
X6103D01*
Y8005D01*
D02*
G37*
G36*
X6122Y7992D02*
X6121D01*
Y8001D01*
X6116D01*
Y7994D01*
X6114D01*
Y8001D01*
X6106D01*
Y8003D01*
X6122D01*
Y7992D01*
D02*
G37*
G36*
X6115Y7990D02*
X6115D01*
X6115Y7990D01*
X6115Y7990D01*
X6116Y7990D01*
X6116Y7990D01*
X6117Y7990D01*
X6118Y7990D01*
X6119Y7989D01*
X6119D01*
X6119Y7989D01*
X6119Y7989D01*
X6119Y7989D01*
X6119Y7989D01*
X6119Y7989D01*
X6120Y7988D01*
X6120Y7988D01*
X6121Y7988D01*
X6121Y7987D01*
X6122Y7986D01*
Y7986D01*
X6122Y7986D01*
X6122Y7986D01*
X6122Y7986D01*
X6122Y7986D01*
X6122Y7986D01*
X6122Y7985D01*
X6122Y7985D01*
X6122Y7985D01*
X6122Y7985D01*
X6123Y7984D01*
X6123Y7983D01*
X6123Y7982D01*
Y7982D01*
X6123Y7982D01*
Y7982D01*
X6123Y7981D01*
X6123Y7981D01*
X6122Y7980D01*
X6122Y7980D01*
X6122Y7979D01*
Y7979D01*
X6122Y7979D01*
X6122Y7979D01*
X6122Y7979D01*
X6122Y7979D01*
X6122Y7978D01*
X6121Y7978D01*
X6121Y7978D01*
X6121Y7977D01*
X6121Y7977D01*
X6121Y7977D01*
X6120Y7977D01*
X6120Y7977D01*
X6120Y7976D01*
X6119Y7976D01*
X6119Y7976D01*
X6119Y7976D01*
X6118Y7976D01*
X6117Y7978D01*
X6117D01*
X6117Y7978D01*
X6118Y7978D01*
X6118Y7978D01*
X6118Y7978D01*
X6118Y7978D01*
X6119Y7978D01*
X6119Y7978D01*
X6119Y7978D01*
X6119Y7978D01*
X6119Y7979D01*
X6120Y7979D01*
X6120Y7979D01*
X6120Y7979D01*
X6120Y7979D01*
X6120Y7980D01*
X6120Y7980D01*
X6121Y7980D01*
X6121Y7980D01*
X6121Y7980D01*
X6121Y7981D01*
X6121Y7981D01*
X6121Y7981D01*
X6121Y7982D01*
X6121Y7982D01*
Y7982D01*
X6121Y7983D01*
X6121Y7983D01*
X6121Y7983D01*
X6121Y7984D01*
X6121Y7984D01*
X6120Y7985D01*
X6120Y7985D01*
X6120Y7985D01*
X6120Y7985D01*
X6120Y7985D01*
X6120Y7986D01*
X6120Y7986D01*
X6120Y7986D01*
X6119Y7986D01*
X6119Y7986D01*
X6119Y7986D01*
X6119Y7987D01*
X6119Y7987D01*
X6119Y7987D01*
X6118Y7987D01*
X6118Y7987D01*
X6118Y7987D01*
X6118D01*
X6118Y7987D01*
X6118Y7987D01*
X6117Y7987D01*
X6117Y7988D01*
X6117Y7988D01*
X6117Y7988D01*
X6116Y7988D01*
X6116Y7988D01*
X6115Y7988D01*
X6114Y7988D01*
X6114D01*
X6114D01*
X6114D01*
X6114D01*
X6114Y7988D01*
X6114Y7988D01*
X6113Y7988D01*
X6113Y7988D01*
X6112Y7988D01*
X6111Y7987D01*
X6111Y7987D01*
X6111D01*
X6111Y7987D01*
X6111Y7987D01*
X6111Y7987D01*
X6110Y7987D01*
X6110Y7987D01*
X6110Y7986D01*
X6109Y7986D01*
X6109Y7986D01*
X6109Y7985D01*
Y7985D01*
X6109Y7985D01*
X6109Y7985D01*
X6109Y7985D01*
X6109Y7985D01*
X6108Y7985D01*
X6108Y7984D01*
X6108Y7984D01*
X6108Y7983D01*
X6108Y7983D01*
X6108Y7982D01*
Y7982D01*
X6108Y7982D01*
X6108Y7981D01*
X6108Y7981D01*
X6108Y7980D01*
X6108Y7980D01*
X6109Y7979D01*
Y7979D01*
X6109Y7979D01*
X6109Y7979D01*
X6109Y7979D01*
X6109Y7979D01*
X6109Y7978D01*
X6109Y7978D01*
X6109Y7978D01*
X6110Y7977D01*
X6113D01*
Y7982D01*
X6115D01*
Y7975D01*
X6109D01*
X6109Y7975D01*
X6109Y7975D01*
X6108Y7976D01*
X6108Y7976D01*
X6108Y7976D01*
X6108Y7976D01*
X6108Y7976D01*
X6108Y7977D01*
X6107Y7977D01*
X6107Y7978D01*
X6107Y7979D01*
Y7979D01*
X6107Y7979D01*
X6107Y7979D01*
X6107Y7979D01*
X6107Y7979D01*
X6107Y7979D01*
X6106Y7980D01*
X6106Y7980D01*
X6106Y7981D01*
X6106Y7981D01*
X6106Y7982D01*
Y7982D01*
X6106Y7982D01*
Y7983D01*
X6106Y7983D01*
X6106Y7983D01*
X6106Y7983D01*
X6106Y7984D01*
X6107Y7985D01*
X6107Y7986D01*
X6107Y7986D01*
Y7986D01*
X6107Y7986D01*
X6107Y7986D01*
X6107Y7987D01*
X6107Y7987D01*
X6108Y7987D01*
X6108Y7987D01*
X6108Y7988D01*
X6109Y7988D01*
X6109Y7989D01*
X6110Y7989D01*
X6110D01*
X6110Y7989D01*
X6110Y7989D01*
X6110Y7989D01*
X6111Y7989D01*
X6111Y7989D01*
X6111Y7990D01*
X6111Y7990D01*
X6112Y7990D01*
X6112Y7990D01*
X6113Y7990D01*
X6113Y7990D01*
X6114Y7990D01*
X6114D01*
X6114D01*
X6115D01*
X6115Y7990D01*
D02*
G37*
G36*
X6864Y6929D02*
X6856D01*
X6846Y6955D01*
X6835Y6929D01*
X6827D01*
Y7000D01*
X6836D01*
X6836Y6949D01*
X6836Y6949D01*
X6845Y6972D01*
X6847D01*
X6856Y6949D01*
X6856Y6949D01*
X6855Y7000D01*
X6864D01*
Y6929D01*
D02*
G37*
G36*
X6800Y7000D02*
X6801D01*
X6802Y7000D01*
X6803Y7000D01*
X6804Y6999D01*
X6806Y6999D01*
X6807Y6998D01*
X6808Y6998D01*
X6809Y6997D01*
X6810Y6996D01*
X6811Y6994D01*
X6812Y6993D01*
X6813Y6991D01*
Y6991D01*
X6814Y6991D01*
X6814Y6990D01*
X6814Y6990D01*
X6814Y6989D01*
X6815Y6987D01*
X6815Y6986D01*
X6816Y6985D01*
X6816Y6983D01*
X6817Y6981D01*
X6817Y6979D01*
X6817Y6976D01*
X6818Y6974D01*
X6818Y6971D01*
X6818Y6968D01*
X6818Y6965D01*
Y6965D01*
Y6964D01*
Y6963D01*
X6818Y6962D01*
Y6961D01*
X6818Y6959D01*
X6818Y6957D01*
X6818Y6955D01*
X6817Y6951D01*
X6816Y6946D01*
X6815Y6942D01*
X6814Y6940D01*
X6813Y6938D01*
X6813Y6938D01*
X6813Y6938D01*
X6813Y6937D01*
X6812Y6937D01*
X6811Y6935D01*
X6810Y6933D01*
X6808Y6931D01*
X6805Y6930D01*
X6804Y6929D01*
X6802Y6929D01*
X6801Y6928D01*
X6799Y6928D01*
X6798D01*
X6797Y6929D01*
X6796Y6929D01*
X6795Y6929D01*
X6793Y6930D01*
X6791Y6931D01*
X6789Y6932D01*
Y6941D01*
X6790Y6941D01*
X6790Y6940D01*
X6791Y6940D01*
X6792Y6939D01*
X6794Y6938D01*
X6795Y6938D01*
X6797Y6937D01*
X6799Y6937D01*
X6799D01*
X6799Y6937D01*
X6800Y6937D01*
X6802Y6938D01*
X6803Y6938D01*
X6804Y6939D01*
X6805Y6940D01*
X6805Y6941D01*
X6806Y6942D01*
X6806Y6943D01*
Y6943D01*
X6806Y6944D01*
X6807Y6944D01*
X6807Y6944D01*
X6807Y6945D01*
X6807Y6946D01*
X6807Y6947D01*
X6808Y6948D01*
X6808Y6950D01*
X6808Y6951D01*
X6808Y6953D01*
X6808Y6955D01*
X6808Y6957D01*
X6809Y6959D01*
X6809Y6962D01*
Y6964D01*
Y6965D01*
Y6965D01*
Y6966D01*
Y6967D01*
X6809Y6968D01*
Y6969D01*
X6808Y6971D01*
X6808Y6973D01*
X6808Y6976D01*
X6808Y6980D01*
X6807Y6981D01*
X6807Y6983D01*
X6807Y6984D01*
X6806Y6986D01*
Y6986D01*
X6806Y6986D01*
X6806Y6987D01*
X6805Y6988D01*
X6804Y6989D01*
X6803Y6990D01*
X6802Y6991D01*
X6800Y6992D01*
X6799Y6992D01*
X6798Y6992D01*
X6798D01*
X6797Y6992D01*
X6797Y6992D01*
X6795Y6991D01*
X6794Y6991D01*
X6792Y6990D01*
X6791Y6989D01*
X6790Y6988D01*
X6789Y6987D01*
Y6997D01*
X6789Y6997D01*
X6789Y6997D01*
X6790Y6998D01*
X6792Y6999D01*
X6793Y6999D01*
X6795Y7000D01*
X6797Y7000D01*
X6799Y7001D01*
X6800D01*
X6800Y7000D01*
D02*
G37*
G36*
X8474Y3585D02*
X8474Y3585D01*
X8474Y3584D01*
X8475Y3584D01*
X8475Y3584D01*
X8476Y3584D01*
X8476Y3584D01*
X8478Y3583D01*
X8479Y3582D01*
X8480Y3582D01*
X8480Y3581D01*
X8481Y3581D01*
X8481Y3580D01*
X8481Y3580D01*
X8482Y3580D01*
X8482Y3580D01*
X8482Y3579D01*
X8482Y3579D01*
X8482Y3579D01*
X8483Y3578D01*
X8483Y3578D01*
X8483Y3577D01*
X8483Y3576D01*
X8484Y3576D01*
X8484Y3575D01*
X8484Y3574D01*
X8484Y3573D01*
X8484Y3572D01*
X8484Y3571D01*
Y3571D01*
X8484Y3571D01*
Y3570D01*
X8484Y3570D01*
X8484Y3569D01*
X8484Y3568D01*
X8484Y3567D01*
X8483Y3566D01*
X8483Y3564D01*
X8482Y3564D01*
X8482Y3563D01*
X8482Y3563D01*
X8482Y3563D01*
X8482Y3563D01*
X8482Y3562D01*
X8481Y3562D01*
X8481Y3562D01*
X8481Y3562D01*
X8481Y3561D01*
X8480Y3561D01*
X8480Y3560D01*
X8479Y3560D01*
X8477Y3559D01*
X8476Y3558D01*
X8476D01*
X8476Y3558D01*
X8476Y3558D01*
X8475Y3558D01*
X8475Y3558D01*
X8474Y3558D01*
X8474Y3557D01*
X8473Y3557D01*
X8473Y3557D01*
X8472Y3557D01*
X8471Y3557D01*
X8469Y3556D01*
X8467Y3556D01*
X8467D01*
X8467D01*
X8467D01*
X8467Y3556D01*
X8466D01*
X8466Y3556D01*
X8465Y3557D01*
X8464Y3557D01*
X8463Y3557D01*
X8462Y3557D01*
X8460Y3558D01*
X8459Y3558D01*
X8459Y3558D01*
X8458Y3558D01*
X8458Y3558D01*
X8458Y3559D01*
X8458Y3559D01*
X8457Y3559D01*
X8457Y3560D01*
X8456Y3560D01*
X8455Y3561D01*
X8454Y3562D01*
X8453Y3564D01*
X8453Y3564D01*
X8453Y3564D01*
X8453Y3564D01*
X8453Y3564D01*
X8453Y3565D01*
X8452Y3565D01*
X8452Y3565D01*
X8452Y3566D01*
X8452Y3567D01*
X8452Y3567D01*
X8451Y3568D01*
X8451Y3570D01*
X8451Y3571D01*
Y3572D01*
X8451Y3572D01*
X8451Y3573D01*
X8451Y3573D01*
X8451Y3574D01*
X8451Y3574D01*
X8452Y3576D01*
X8452Y3577D01*
X8452Y3578D01*
X8453Y3578D01*
X8453Y3579D01*
X8454Y3580D01*
X8454Y3580D01*
X8454Y3580D01*
X8454Y3580D01*
X8454Y3580D01*
X8454Y3580D01*
X8455Y3581D01*
X8455Y3581D01*
X8455Y3581D01*
X8456Y3582D01*
X8456Y3582D01*
X8457Y3583D01*
X8457Y3583D01*
X8458Y3583D01*
X8459Y3584D01*
X8460Y3584D01*
X8460Y3584D01*
X8461Y3580D01*
X8461D01*
X8461Y3580D01*
X8461Y3580D01*
X8461Y3580D01*
X8461Y3580D01*
X8460Y3580D01*
X8459Y3579D01*
X8459Y3579D01*
X8458Y3578D01*
X8457Y3577D01*
X8456Y3577D01*
X8456Y3577D01*
X8456Y3576D01*
X8456Y3576D01*
X8455Y3575D01*
X8455Y3574D01*
X8455Y3574D01*
X8455Y3573D01*
X8455Y3571D01*
Y3571D01*
X8455Y3571D01*
Y3570D01*
X8455Y3570D01*
X8455Y3569D01*
X8455Y3568D01*
X8455Y3567D01*
X8456Y3566D01*
X8456Y3565D01*
Y3565D01*
X8457Y3565D01*
X8457Y3565D01*
X8457Y3564D01*
X8458Y3564D01*
X8458Y3563D01*
X8459Y3563D01*
X8460Y3562D01*
X8461Y3562D01*
X8461D01*
X8461Y3562D01*
X8462Y3562D01*
X8462Y3562D01*
X8462Y3561D01*
X8462Y3561D01*
X8463Y3561D01*
X8464Y3561D01*
X8465Y3561D01*
X8466Y3561D01*
X8467Y3561D01*
X8467D01*
X8468D01*
X8468D01*
X8468D01*
X8468Y3561D01*
X8469D01*
X8469Y3561D01*
X8470Y3561D01*
X8471Y3561D01*
X8472Y3561D01*
X8473Y3562D01*
X8474Y3562D01*
X8475D01*
X8475Y3562D01*
X8475Y3562D01*
X8475Y3562D01*
X8476Y3562D01*
X8476Y3563D01*
X8477Y3563D01*
X8478Y3564D01*
X8478Y3565D01*
X8479Y3566D01*
Y3566D01*
X8479Y3566D01*
X8479Y3566D01*
X8479Y3566D01*
X8479Y3566D01*
X8480Y3567D01*
X8480Y3567D01*
X8480Y3568D01*
X8480Y3569D01*
X8481Y3570D01*
X8481Y3571D01*
Y3571D01*
X8481Y3572D01*
Y3572D01*
X8480Y3572D01*
X8480Y3573D01*
X8480Y3574D01*
X8480Y3575D01*
X8479Y3576D01*
X8479Y3577D01*
X8479Y3577D01*
X8478Y3577D01*
X8478Y3577D01*
X8478Y3577D01*
X8478Y3577D01*
X8478Y3578D01*
X8478Y3578D01*
X8477Y3578D01*
X8477Y3578D01*
X8477Y3579D01*
X8476Y3579D01*
X8476Y3579D01*
X8475Y3580D01*
X8474Y3580D01*
X8474Y3580D01*
X8473Y3580D01*
X8472Y3580D01*
X8473Y3585D01*
X8474D01*
X8474Y3585D01*
D02*
G37*
G36*
X8492Y3529D02*
X8490D01*
Y3555D01*
X8492D01*
Y3529D01*
D02*
G37*
G36*
X8474Y3527D02*
X8474Y3527D01*
X8474Y3527D01*
X8475Y3527D01*
X8475Y3527D01*
X8477Y3527D01*
X8478Y3526D01*
X8478Y3526D01*
X8479Y3526D01*
X8480Y3525D01*
X8480Y3525D01*
X8480Y3525D01*
X8480Y3525D01*
X8481Y3525D01*
X8481Y3524D01*
X8481Y3524D01*
X8482Y3524D01*
X8482Y3523D01*
X8482Y3523D01*
X8483Y3522D01*
X8483Y3522D01*
X8483Y3521D01*
X8484Y3520D01*
X8484Y3519D01*
X8484Y3518D01*
X8484Y3518D01*
X8484Y3517D01*
Y3516D01*
X8484Y3516D01*
X8484Y3515D01*
X8484Y3515D01*
X8484Y3515D01*
X8484Y3514D01*
X8484Y3513D01*
X8483Y3512D01*
X8483Y3511D01*
X8483Y3510D01*
X8482Y3510D01*
X8482Y3509D01*
X8482Y3509D01*
X8482Y3509D01*
X8481Y3509D01*
X8481Y3509D01*
X8481Y3509D01*
X8481Y3509D01*
X8480Y3508D01*
X8480Y3508D01*
X8480Y3508D01*
X8479Y3507D01*
X8478Y3507D01*
X8477Y3507D01*
X8476Y3506D01*
X8475Y3506D01*
X8475Y3510D01*
X8475D01*
X8475D01*
X8475Y3510D01*
X8475Y3510D01*
X8476Y3511D01*
X8477Y3511D01*
X8477Y3511D01*
X8478Y3511D01*
X8479Y3512D01*
X8479Y3512D01*
X8479Y3513D01*
X8480Y3513D01*
X8480Y3513D01*
X8480Y3514D01*
X8480Y3514D01*
X8481Y3515D01*
X8481Y3516D01*
X8481Y3517D01*
Y3517D01*
X8481Y3517D01*
X8481Y3518D01*
X8481Y3518D01*
X8480Y3519D01*
X8480Y3520D01*
X8479Y3521D01*
X8479Y3521D01*
X8479Y3521D01*
X8479Y3521D01*
X8479Y3521D01*
X8479Y3522D01*
X8478Y3522D01*
X8478Y3522D01*
X8477Y3522D01*
X8476Y3523D01*
X8476Y3523D01*
X8474Y3523D01*
X8474Y3523D01*
X8473D01*
X8473D01*
X8473D01*
X8473D01*
X8473Y3523D01*
X8472D01*
X8472Y3523D01*
X8471Y3523D01*
X8470Y3523D01*
X8469Y3523D01*
X8469Y3522D01*
X8468Y3521D01*
X8468D01*
X8468Y3521D01*
X8468Y3521D01*
X8467Y3521D01*
X8467Y3520D01*
X8466Y3519D01*
X8466Y3519D01*
X8466Y3518D01*
X8466Y3517D01*
Y3516D01*
X8466Y3516D01*
X8466Y3515D01*
X8466Y3515D01*
X8466Y3514D01*
X8466Y3514D01*
X8467Y3513D01*
X8467Y3513D01*
X8467Y3513D01*
X8467Y3513D01*
X8467Y3512D01*
X8468Y3512D01*
X8468Y3511D01*
X8468Y3511D01*
X8469Y3511D01*
X8468Y3507D01*
X8452Y3510D01*
Y3526D01*
X8456D01*
Y3513D01*
X8464Y3511D01*
X8464Y3512D01*
X8464Y3512D01*
X8464Y3512D01*
X8464Y3512D01*
X8464Y3512D01*
X8464Y3513D01*
X8463Y3513D01*
X8463Y3514D01*
X8463Y3515D01*
X8462Y3516D01*
X8462Y3517D01*
Y3518D01*
X8462Y3518D01*
X8462Y3519D01*
X8463Y3519D01*
X8463Y3519D01*
X8463Y3520D01*
X8463Y3521D01*
X8463Y3522D01*
X8464Y3522D01*
X8464Y3523D01*
X8464Y3523D01*
X8465Y3524D01*
X8465Y3525D01*
X8465Y3525D01*
X8465Y3525D01*
X8466Y3525D01*
X8466Y3525D01*
X8466Y3525D01*
X8466Y3526D01*
X8467Y3526D01*
X8467Y3526D01*
X8468Y3526D01*
X8468Y3527D01*
X8469Y3527D01*
X8470Y3527D01*
X8470Y3527D01*
X8471Y3527D01*
X8472Y3527D01*
X8473Y3528D01*
X8473D01*
X8473D01*
X8473D01*
X8474Y3527D01*
D02*
G37*
G36*
X8475Y3502D02*
X8476Y3502D01*
X8476Y3502D01*
X8476Y3502D01*
X8477Y3502D01*
X8478Y3502D01*
X8479Y3502D01*
X8479Y3501D01*
X8480Y3501D01*
X8480Y3501D01*
X8481Y3500D01*
X8481Y3500D01*
X8481Y3499D01*
X8482Y3499D01*
X8482Y3499D01*
X8482Y3499D01*
X8482Y3499D01*
X8482Y3498D01*
X8482Y3498D01*
X8483Y3497D01*
X8483Y3497D01*
X8483Y3496D01*
X8484Y3496D01*
X8484Y3495D01*
X8484Y3494D01*
X8484Y3494D01*
X8484Y3493D01*
X8484Y3492D01*
Y3491D01*
X8484Y3491D01*
X8484Y3491D01*
X8484Y3490D01*
X8484Y3490D01*
X8484Y3489D01*
X8483Y3488D01*
X8483Y3487D01*
X8483Y3487D01*
X8483Y3486D01*
X8482Y3485D01*
X8482Y3485D01*
X8481Y3484D01*
X8481Y3484D01*
X8481Y3484D01*
X8481Y3484D01*
X8481Y3484D01*
X8481Y3484D01*
X8480Y3483D01*
X8480Y3483D01*
X8479Y3483D01*
X8479Y3483D01*
X8478Y3482D01*
X8477Y3482D01*
X8477Y3482D01*
X8476Y3482D01*
X8475Y3481D01*
X8474Y3481D01*
X8474D01*
X8474D01*
X8474D01*
X8474Y3481D01*
X8474D01*
X8473Y3481D01*
X8473Y3482D01*
X8472Y3482D01*
X8471Y3482D01*
X8470Y3482D01*
X8469Y3483D01*
X8469D01*
X8469Y3483D01*
X8469Y3483D01*
X8468Y3484D01*
X8468Y3484D01*
X8468Y3485D01*
X8467Y3486D01*
X8467Y3486D01*
X8466Y3487D01*
Y3487D01*
X8466Y3487D01*
X8466Y3487D01*
X8466Y3487D01*
X8466Y3487D01*
X8466Y3486D01*
X8465Y3485D01*
X8465Y3485D01*
X8464Y3484D01*
X8464Y3484D01*
X8464Y3484D01*
X8463Y3484D01*
X8463Y3483D01*
X8463Y3483D01*
X8462Y3483D01*
X8461Y3483D01*
X8461Y3483D01*
X8460Y3483D01*
X8460D01*
X8460D01*
X8459D01*
X8459Y3483D01*
X8459Y3483D01*
X8458Y3483D01*
X8458Y3483D01*
X8457Y3483D01*
X8456Y3484D01*
X8455Y3484D01*
X8455Y3484D01*
X8454Y3485D01*
X8454Y3485D01*
X8454Y3485D01*
X8454Y3485D01*
X8454Y3485D01*
X8454Y3486D01*
X8453Y3486D01*
X8453Y3486D01*
X8453Y3487D01*
X8453Y3487D01*
X8452Y3487D01*
X8452Y3488D01*
X8452Y3488D01*
X8452Y3489D01*
X8452Y3490D01*
X8452Y3491D01*
X8451Y3492D01*
Y3492D01*
X8452Y3493D01*
X8452Y3493D01*
X8452Y3493D01*
X8452Y3494D01*
X8452Y3494D01*
X8452Y3495D01*
X8452Y3496D01*
X8453Y3497D01*
X8453Y3498D01*
X8454Y3498D01*
X8454Y3499D01*
X8454Y3499D01*
X8454Y3499D01*
X8454Y3499D01*
X8454Y3499D01*
X8455Y3499D01*
X8455Y3499D01*
X8456Y3500D01*
X8456Y3500D01*
X8457Y3501D01*
X8459Y3501D01*
X8459Y3501D01*
X8460Y3501D01*
X8460D01*
X8460D01*
X8460D01*
X8461Y3501D01*
X8461Y3501D01*
X8462Y3501D01*
X8462Y3501D01*
X8463Y3500D01*
X8464Y3500D01*
X8464Y3500D01*
X8464Y3500D01*
X8464Y3499D01*
X8465Y3499D01*
X8465Y3499D01*
X8466Y3498D01*
X8466Y3497D01*
X8466Y3496D01*
Y3496D01*
X8466Y3497D01*
X8466Y3497D01*
X8466Y3497D01*
X8467Y3497D01*
X8467Y3498D01*
X8468Y3499D01*
X8468Y3500D01*
X8469Y3500D01*
X8469Y3501D01*
X8469D01*
X8469Y3501D01*
X8470Y3501D01*
X8470Y3501D01*
X8471Y3502D01*
X8472Y3502D01*
X8472Y3502D01*
X8473Y3502D01*
X8474Y3502D01*
X8475D01*
X8475D01*
X8475D01*
X8475Y3502D01*
D02*
G37*
G36*
X8476Y3473D02*
X8484D01*
Y3469D01*
X8476D01*
Y3455D01*
X8472D01*
X8452Y3470D01*
Y3473D01*
X8472D01*
Y3477D01*
X8476D01*
Y3473D01*
D02*
G37*
%LPC*%
G36*
X4345Y10314D02*
X4330D01*
Y10312D01*
Y10311D01*
Y10283D01*
X4347D01*
Y10284D01*
X4351D01*
Y10285D01*
X4353D01*
Y10287D01*
X4354D01*
Y10288D01*
X4355D01*
Y10292D01*
X4357D01*
Y10306D01*
X4355D01*
Y10308D01*
X4354D01*
Y10310D01*
X4353D01*
Y10311D01*
X4350D01*
Y10312D01*
X4345D01*
Y10314D01*
D02*
G37*
G36*
X4693D02*
X4686D01*
Y10312D01*
X4681D01*
Y10311D01*
X4678D01*
Y10310D01*
X4676D01*
Y10308D01*
X4675D01*
Y10307D01*
X4674D01*
Y10304D01*
X4672D01*
Y10302D01*
X4671D01*
Y10297D01*
X4670D01*
Y10287D01*
X4668D01*
Y10277D01*
X4670D01*
Y10266D01*
X4671D01*
Y10262D01*
X4672D01*
Y10260D01*
X4674D01*
Y10258D01*
X4675D01*
Y10256D01*
X4676D01*
Y10254D01*
X4679D01*
Y10253D01*
X4681D01*
Y10251D01*
X4687D01*
Y10250D01*
X4691D01*
Y10251D01*
X4697D01*
Y10253D01*
X4700D01*
Y10254D01*
X4701D01*
Y10256D01*
X4702D01*
Y10257D01*
X4704D01*
Y10258D01*
X4705D01*
Y10261D01*
X4706D01*
Y10264D01*
X4708D01*
Y10269D01*
X4709D01*
Y10276D01*
X4710D01*
Y10279D01*
Y10280D01*
Y10288D01*
X4709D01*
Y10296D01*
X4708D01*
Y10302D01*
X4706D01*
Y10303D01*
X4705D01*
Y10306D01*
X4704D01*
Y10307D01*
X4702D01*
Y10308D01*
X4701D01*
Y10310D01*
X4700D01*
Y10311D01*
X4698D01*
Y10312D01*
X4693D01*
Y10314D01*
D02*
G37*
G36*
X3525Y10291D02*
X3513D01*
Y10289D01*
X3503D01*
Y10288D01*
X3501D01*
Y10287D01*
X3495D01*
Y10285D01*
X3492D01*
Y10284D01*
X3490D01*
Y10283D01*
X3488D01*
Y10281D01*
X3486D01*
Y10280D01*
X3484D01*
Y10209D01*
X3486D01*
Y10211D01*
X3488D01*
Y10212D01*
X3490D01*
Y10214D01*
X3492D01*
Y10215D01*
X3497D01*
Y10216D01*
X3499D01*
Y10218D01*
X3505D01*
Y10219D01*
X3511D01*
Y10220D01*
X3528D01*
Y10219D01*
X3533D01*
Y10218D01*
X3539D01*
Y10287D01*
X3537D01*
Y10288D01*
X3534D01*
Y10289D01*
X3525D01*
Y10291D01*
D02*
G37*
G36*
X3354D02*
X3341D01*
Y10289D01*
X3331D01*
Y10288D01*
X3329D01*
Y10287D01*
X3323D01*
Y10285D01*
X3322D01*
Y10284D01*
X3318D01*
Y10283D01*
X3316D01*
Y10281D01*
X3315D01*
Y10280D01*
X3312D01*
Y10209D01*
X3314D01*
Y10211D01*
X3316D01*
Y10212D01*
X3318D01*
Y10214D01*
X3320D01*
Y10215D01*
X3325D01*
Y10216D01*
X3329D01*
Y10218D01*
X3334D01*
Y10219D01*
X3339D01*
Y10220D01*
X3357D01*
Y10219D01*
X3361D01*
Y10218D01*
X3367D01*
Y10288D01*
X3362D01*
Y10289D01*
X3354D01*
Y10291D01*
D02*
G37*
G36*
X3548Y10281D02*
X3543D01*
Y10211D01*
X3539D01*
Y10212D01*
X3532D01*
Y10214D01*
X3509D01*
Y10212D01*
X3503D01*
Y10211D01*
X3498D01*
Y10209D01*
X3495D01*
Y10208D01*
X3491D01*
Y10207D01*
X3490D01*
Y10205D01*
X3486D01*
Y10204D01*
X3484D01*
Y10203D01*
X3483D01*
Y10201D01*
X3482D01*
Y10203D01*
X3480D01*
Y10204D01*
X3478D01*
Y10205D01*
X3475D01*
Y10207D01*
X3472D01*
Y10208D01*
X3469D01*
Y10209D01*
X3467D01*
Y10211D01*
X3460D01*
Y10212D01*
X3455D01*
Y10214D01*
X3433D01*
Y10212D01*
X3426D01*
Y10211D01*
X3421D01*
Y10281D01*
X3417D01*
Y10262D01*
X3415D01*
Y10261D01*
X3413D01*
Y10262D01*
X3403D01*
Y10253D01*
X3404D01*
Y10251D01*
X3407D01*
Y10253D01*
X3413D01*
Y10254D01*
X3417D01*
Y10232D01*
X3411D01*
Y10234D01*
X3409D01*
Y10232D01*
X3403D01*
Y10223D01*
X3411D01*
Y10224D01*
X3417D01*
Y10204D01*
X3418D01*
Y10205D01*
X3425D01*
Y10207D01*
X3432D01*
Y10208D01*
X3456D01*
Y10207D01*
X3461D01*
Y10205D01*
X3467D01*
Y10204D01*
X3469D01*
Y10203D01*
X3472D01*
Y10201D01*
X3475D01*
Y10200D01*
X3476D01*
Y10199D01*
X3479D01*
Y10197D01*
X3480D01*
Y10196D01*
X3483D01*
Y10197D01*
X3486D01*
Y10199D01*
X3487D01*
Y10200D01*
X3488D01*
Y10201D01*
X3492D01*
Y10203D01*
X3494D01*
Y10204D01*
X3498D01*
Y10205D01*
X3503D01*
Y10207D01*
X3507D01*
Y10208D01*
X3533D01*
Y10207D01*
X3539D01*
Y10205D01*
X3547D01*
Y10204D01*
X3548D01*
Y10224D01*
X3559D01*
Y10226D01*
X3560D01*
Y10228D01*
X3559D01*
Y10230D01*
X3558D01*
Y10231D01*
X3553D01*
Y10232D01*
X3548D01*
Y10254D01*
X3559D01*
Y10256D01*
X3560D01*
Y10258D01*
X3559D01*
Y10260D01*
X3558D01*
Y10261D01*
X3548D01*
Y10281D01*
D02*
G37*
G36*
X3449Y10291D02*
X3441D01*
Y10289D01*
X3430D01*
Y10288D01*
X3427D01*
Y10287D01*
X3426D01*
Y10238D01*
Y10237D01*
Y10218D01*
X3432D01*
Y10219D01*
X3437D01*
Y10220D01*
X3452D01*
Y10219D01*
X3457D01*
Y10218D01*
X3464D01*
Y10216D01*
X3467D01*
Y10215D01*
X3471D01*
Y10214D01*
X3474D01*
Y10212D01*
X3476D01*
Y10211D01*
X3479D01*
Y10280D01*
X3478D01*
Y10281D01*
X3476D01*
Y10283D01*
X3474D01*
Y10284D01*
X3471D01*
Y10285D01*
X3468D01*
Y10287D01*
X3464D01*
Y10288D01*
X3460D01*
Y10289D01*
X3449D01*
Y10291D01*
D02*
G37*
G36*
X3376Y10281D02*
X3371D01*
Y10211D01*
X3367D01*
Y10212D01*
X3360D01*
Y10214D01*
X3338D01*
Y10212D01*
X3331D01*
Y10211D01*
X3326D01*
Y10209D01*
X3323D01*
Y10208D01*
X3319D01*
Y10207D01*
X3318D01*
Y10205D01*
X3315D01*
Y10204D01*
X3312D01*
Y10203D01*
X3311D01*
Y10201D01*
X3310D01*
Y10203D01*
X3308D01*
Y10204D01*
X3306D01*
Y10205D01*
X3303D01*
Y10207D01*
X3301D01*
Y10208D01*
X3297D01*
Y10209D01*
X3295D01*
Y10211D01*
X3289D01*
Y10212D01*
X3283D01*
Y10214D01*
X3261D01*
Y10212D01*
X3254D01*
Y10211D01*
X3249D01*
Y10281D01*
X3245D01*
Y10262D01*
X3243D01*
Y10261D01*
X3241D01*
Y10262D01*
X3232D01*
Y10251D01*
X3235D01*
Y10253D01*
X3241D01*
Y10254D01*
X3245D01*
Y10232D01*
X3239D01*
Y10234D01*
X3236D01*
Y10232D01*
X3232D01*
Y10223D01*
X3241D01*
Y10224D01*
X3245D01*
Y10204D01*
X3246D01*
Y10205D01*
X3253D01*
Y10207D01*
X3259D01*
Y10208D01*
X3284D01*
Y10207D01*
X3289D01*
Y10205D01*
X3295D01*
Y10204D01*
X3299D01*
Y10203D01*
X3300D01*
Y10201D01*
X3303D01*
Y10200D01*
X3304D01*
Y10199D01*
X3307D01*
Y10197D01*
X3308D01*
Y10196D01*
X3312D01*
Y10197D01*
X3314D01*
Y10199D01*
X3316D01*
Y10200D01*
X3318D01*
Y10201D01*
X3320D01*
Y10203D01*
X3323D01*
Y10204D01*
X3326D01*
Y10205D01*
X3331D01*
Y10207D01*
X3337D01*
Y10208D01*
X3361D01*
Y10207D01*
X3368D01*
Y10205D01*
X3375D01*
Y10204D01*
X3376D01*
Y10224D01*
X3387D01*
Y10226D01*
X3388D01*
Y10230D01*
X3385D01*
Y10231D01*
X3381D01*
Y10232D01*
X3376D01*
Y10254D01*
X3387D01*
Y10256D01*
X3388D01*
Y10258D01*
X3387D01*
Y10260D01*
X3385D01*
Y10261D01*
X3377D01*
Y10262D01*
X3376D01*
Y10281D01*
D02*
G37*
G36*
X3277Y10291D02*
X3269D01*
Y10289D01*
X3258D01*
Y10288D01*
X3255D01*
Y10287D01*
X3254D01*
Y10218D01*
X3259D01*
Y10219D01*
X3266D01*
Y10220D01*
X3280D01*
Y10219D01*
X3287D01*
Y10218D01*
X3292D01*
Y10216D01*
X3295D01*
Y10215D01*
X3299D01*
Y10214D01*
X3303D01*
Y10212D01*
X3304D01*
Y10211D01*
X3307D01*
Y10209D01*
X3308D01*
Y10279D01*
X3307D01*
Y10280D01*
X3306D01*
Y10281D01*
X3304D01*
Y10283D01*
X3301D01*
Y10284D01*
X3299D01*
Y10285D01*
X3296D01*
Y10287D01*
X3292D01*
Y10288D01*
X3288D01*
Y10289D01*
X3277D01*
Y10291D01*
D02*
G37*
%LPD*%
G36*
X3524Y10266D02*
X3525D01*
Y10265D01*
X3524D01*
Y10261D01*
X3522D01*
Y10258D01*
X3524D01*
Y10256D01*
X3525D01*
Y10254D01*
X3521D01*
Y10257D01*
X3520D01*
Y10260D01*
X3518D01*
Y10261D01*
X3517D01*
Y10254D01*
X3514D01*
Y10270D01*
X3524D01*
Y10266D01*
D02*
G37*
G36*
X3506Y10269D02*
X3507D01*
Y10265D01*
X3509D01*
Y10262D01*
X3510D01*
Y10258D01*
X3511D01*
Y10254D01*
X3509D01*
Y10256D01*
X3507D01*
Y10258D01*
X3502D01*
Y10257D01*
X3501D01*
Y10254D01*
X3497D01*
Y10256D01*
X3498D01*
Y10260D01*
X3499D01*
Y10261D01*
Y10262D01*
X3501D01*
Y10268D01*
X3502D01*
Y10270D01*
X3506D01*
Y10269D01*
D02*
G37*
G36*
X3529Y10245D02*
X3526D01*
Y10246D01*
X3524D01*
Y10245D01*
X3522D01*
Y10243D01*
X3524D01*
Y10242D01*
X3526D01*
Y10241D01*
X3529D01*
Y10238D01*
X3530D01*
Y10235D01*
X3529D01*
Y10232D01*
X3526D01*
Y10231D01*
X3522D01*
Y10232D01*
X3520D01*
Y10235D01*
X3521D01*
Y10234D01*
X3525D01*
Y10235D01*
X3526D01*
Y10238D01*
X3524D01*
Y10239D01*
X3521D01*
Y10241D01*
X3520D01*
Y10246D01*
X3521D01*
Y10247D01*
X3522D01*
Y10249D01*
X3529D01*
Y10245D01*
D02*
G37*
G36*
X3517D02*
X3510D01*
Y10242D01*
X3516D01*
Y10239D01*
X3510D01*
Y10234D01*
X3517D01*
Y10232D01*
X3507D01*
Y10249D01*
X3517D01*
Y10245D01*
D02*
G37*
G36*
X3505D02*
X3501D01*
Y10232D01*
X3497D01*
Y10245D01*
X3492D01*
Y10249D01*
X3505D01*
Y10245D01*
D02*
G37*
%LPC*%
G36*
X3521Y10268D02*
X3517D01*
Y10266D01*
Y10265D01*
Y10262D01*
X3520D01*
Y10264D01*
X3521D01*
Y10268D01*
D02*
G37*
G36*
X3505Y10265D02*
X3503D01*
Y10261D01*
X3506D01*
Y10262D01*
X3505D01*
Y10265D01*
D02*
G37*
%LPD*%
G36*
X3348Y10269D02*
X3346D01*
Y10266D01*
X3345D01*
Y10265D01*
X3343D01*
Y10261D01*
X3345D01*
Y10258D01*
X3346D01*
Y10257D01*
X3348D01*
Y10254D01*
X3343D01*
Y10257D01*
X3342D01*
Y10260D01*
X3339D01*
Y10258D01*
X3338D01*
Y10254D01*
X3334D01*
Y10257D01*
X3335D01*
Y10260D01*
X3337D01*
Y10261D01*
X3338D01*
Y10265D01*
X3337D01*
Y10266D01*
X3335D01*
Y10269D01*
X3334D01*
Y10270D01*
X3338D01*
Y10268D01*
X3339D01*
Y10266D01*
X3342D01*
Y10269D01*
X3343D01*
Y10270D01*
X3348D01*
Y10269D01*
D02*
G37*
G36*
X3360Y10268D02*
X3353D01*
Y10266D01*
X3352D01*
Y10258D01*
X3354D01*
Y10257D01*
X3358D01*
Y10258D01*
X3360D01*
Y10254D01*
X3352D01*
Y10256D01*
X3349D01*
Y10258D01*
X3348D01*
Y10264D01*
Y10265D01*
X3349D01*
Y10268D01*
X3350D01*
Y10269D01*
X3352D01*
Y10270D01*
X3360D01*
Y10268D01*
D02*
G37*
G36*
X3331D02*
X3326D01*
Y10264D01*
X3331D01*
Y10262D01*
X3330D01*
Y10261D01*
X3326D01*
Y10257D01*
X3333D01*
Y10254D01*
X3322D01*
Y10270D01*
X3331D01*
Y10268D01*
D02*
G37*
G36*
X3360Y10235D02*
X3358D01*
Y10232D01*
X3356D01*
Y10231D01*
X3352D01*
Y10232D01*
X3349D01*
Y10234D01*
X3348D01*
Y10249D01*
X3350D01*
Y10237D01*
X3352D01*
Y10234D01*
X3356D01*
Y10237D01*
X3357D01*
Y10247D01*
Y10249D01*
X3360D01*
Y10235D01*
D02*
G37*
G36*
X3339Y10234D02*
X3346D01*
Y10232D01*
X3335D01*
Y10249D01*
X3339D01*
Y10234D01*
D02*
G37*
G36*
X3330Y10247D02*
X3331D01*
Y10246D01*
X3333D01*
Y10243D01*
X3334D01*
Y10237D01*
X3333D01*
Y10232D01*
X3329D01*
Y10231D01*
X3326D01*
Y10232D01*
X3323D01*
Y10234D01*
X3320D01*
Y10245D01*
X3322D01*
Y10246D01*
X3323D01*
Y10247D01*
X3325D01*
Y10249D01*
X3330D01*
Y10247D01*
D02*
G37*
%LPC*%
G36*
Y10245D02*
X3325D01*
Y10242D01*
X3323D01*
Y10239D01*
X3325D01*
Y10235D01*
X3326D01*
Y10234D01*
X3329D01*
Y10235D01*
X3330D01*
Y10237D01*
Y10238D01*
Y10245D01*
D02*
G37*
%LPD*%
G36*
X3471Y10268D02*
X3465D01*
Y10264D01*
X3471D01*
Y10261D01*
X3465D01*
Y10257D01*
X3472D01*
Y10254D01*
X3461D01*
Y10270D01*
X3471D01*
Y10268D01*
D02*
G37*
G36*
X3457Y10269D02*
X3459D01*
Y10262D01*
X3457D01*
Y10261D01*
X3456D01*
Y10260D01*
X3457D01*
Y10257D01*
X3459D01*
Y10256D01*
X3460D01*
Y10254D01*
X3456D01*
Y10256D01*
X3455D01*
Y10258D01*
X3453D01*
Y10260D01*
X3452D01*
Y10254D01*
X3448D01*
Y10268D01*
Y10269D01*
Y10270D01*
X3457D01*
Y10269D01*
D02*
G37*
G36*
X3445Y10268D02*
X3438D01*
Y10264D01*
X3444D01*
Y10261D01*
X3438D01*
Y10257D01*
X3445D01*
Y10254D01*
X3436D01*
Y10266D01*
Y10268D01*
Y10270D01*
X3445D01*
Y10268D01*
D02*
G37*
G36*
X3468Y10247D02*
X3471D01*
Y10245D01*
X3472D01*
Y10242D01*
X3471D01*
Y10239D01*
X3469D01*
Y10237D01*
X3471D01*
Y10234D01*
X3472D01*
Y10232D01*
X3468D01*
Y10234D01*
X3467D01*
Y10237D01*
X3465D01*
Y10238D01*
X3464D01*
Y10237D01*
Y10232D01*
X3461D01*
Y10249D01*
X3468D01*
Y10247D01*
D02*
G37*
G36*
X3459Y10245D02*
X3452D01*
Y10242D01*
X3457D01*
Y10239D01*
X3452D01*
Y10234D01*
X3459D01*
Y10232D01*
X3448D01*
Y10249D01*
X3459D01*
Y10245D01*
D02*
G37*
G36*
X3442Y10247D02*
X3445D01*
Y10245D01*
X3446D01*
Y10241D01*
X3445D01*
Y10239D01*
X3444D01*
Y10238D01*
X3438D01*
Y10232D01*
X3436D01*
Y10245D01*
Y10246D01*
Y10249D01*
X3442D01*
Y10247D01*
D02*
G37*
%LPC*%
G36*
X3455Y10268D02*
X3452D01*
Y10264D01*
Y10262D01*
X3455D01*
Y10268D01*
D02*
G37*
G36*
X3467Y10246D02*
X3464D01*
Y10241D01*
X3468D01*
Y10245D01*
X3467D01*
Y10246D01*
D02*
G37*
G36*
X3440D02*
X3438D01*
Y10241D01*
X3442D01*
Y10245D01*
X3440D01*
Y10246D01*
D02*
G37*
%LPD*%
G36*
X3277Y10265D02*
X3276D01*
Y10261D01*
X3274D01*
Y10257D01*
X3273D01*
Y10254D01*
X3269D01*
Y10256D01*
X3268D01*
Y10261D01*
X3266D01*
Y10265D01*
X3265D01*
Y10268D01*
X3264D01*
Y10270D01*
X3268D01*
Y10266D01*
X3269D01*
Y10262D01*
X3270D01*
Y10260D01*
X3272D01*
Y10262D01*
X3273D01*
Y10268D01*
X3274D01*
Y10270D01*
X3277D01*
Y10265D01*
D02*
G37*
G36*
X3297Y10268D02*
X3293D01*
Y10254D01*
X3289D01*
Y10268D01*
X3285D01*
Y10270D01*
X3297D01*
Y10268D01*
D02*
G37*
G36*
X3284Y10254D02*
X3280D01*
Y10270D01*
X3284D01*
Y10254D01*
D02*
G37*
G36*
X3296Y10245D02*
Y10243D01*
Y10234D01*
X3297D01*
Y10232D01*
X3293D01*
Y10241D01*
X3292D01*
Y10237D01*
X3291D01*
Y10235D01*
X3289D01*
Y10232D01*
X3288D01*
Y10234D01*
X3287D01*
Y10235D01*
X3285D01*
Y10239D01*
X3283D01*
Y10232D01*
X3280D01*
Y10249D01*
X3284D01*
Y10246D01*
X3285D01*
Y10242D01*
X3287D01*
Y10239D01*
X3288D01*
Y10238D01*
X3289D01*
Y10242D01*
X3291D01*
Y10243D01*
X3292D01*
Y10247D01*
X3293D01*
Y10249D01*
X3296D01*
Y10245D01*
D02*
G37*
G36*
X3272Y10247D02*
X3273D01*
Y10243D01*
X3274D01*
Y10241D01*
X3276D01*
Y10237D01*
X3277D01*
Y10232D01*
X3274D01*
Y10234D01*
X3273D01*
Y10235D01*
X3268D01*
Y10232D01*
X3264D01*
Y10235D01*
X3265D01*
Y10239D01*
X3266D01*
Y10243D01*
X3268D01*
Y10247D01*
X3269D01*
Y10249D01*
X3272D01*
Y10247D01*
D02*
G37*
%LPC*%
G36*
Y10242D02*
X3269D01*
Y10238D01*
X3272D01*
Y10242D01*
D02*
G37*
G36*
X4548Y10182D02*
X4513D01*
Y10113D01*
X4545D01*
Y10115D01*
X4550D01*
Y10116D01*
X4553D01*
Y10117D01*
X4557D01*
Y10119D01*
X4559D01*
Y10120D01*
X4561D01*
Y10123D01*
X4564D01*
Y10124D01*
X4565D01*
Y10125D01*
X4567D01*
Y10128D01*
X4568D01*
Y10132D01*
X4569D01*
Y10134D01*
X4571D01*
Y10142D01*
X4572D01*
Y10157D01*
X4571D01*
Y10163D01*
X4569D01*
Y10166D01*
X4568D01*
Y10169D01*
X4567D01*
Y10172D01*
X4565D01*
Y10173D01*
X4564D01*
Y10174D01*
X4561D01*
Y10176D01*
X4560D01*
Y10177D01*
X4559D01*
Y10178D01*
X4556D01*
Y10180D01*
X4552D01*
Y10181D01*
X4548D01*
Y10182D01*
D02*
G37*
G36*
X3442Y10127D02*
X3441D01*
Y10123D01*
X3440D01*
Y10119D01*
X3438D01*
Y10115D01*
X3437D01*
Y10113D01*
X3436D01*
Y10111D01*
X3434D01*
Y10108D01*
X3433D01*
Y10105D01*
X3432D01*
Y10104D01*
X3430D01*
Y10101D01*
X3429D01*
Y10098D01*
X3427D01*
Y10097D01*
X3426D01*
Y10096D01*
X3425D01*
Y10094D01*
X3423D01*
Y10092D01*
X3422D01*
Y10090D01*
X3421D01*
Y10088D01*
X3419D01*
Y10086D01*
X3418D01*
Y10085D01*
X3417D01*
Y10082D01*
X3415D01*
Y10081D01*
X3417D01*
Y10075D01*
X3415D01*
Y10073D01*
X3414D01*
Y10070D01*
X3413D01*
Y10067D01*
X3411D01*
Y10064D01*
X3413D01*
Y10066D01*
X3414D01*
Y10067D01*
X3415D01*
Y10069D01*
X3417D01*
Y10070D01*
X3418D01*
Y10071D01*
X3419D01*
Y10074D01*
X3421D01*
Y10075D01*
X3422D01*
Y10077D01*
X3423D01*
Y10078D01*
X3425D01*
Y10079D01*
X3426D01*
Y10082D01*
X3427D01*
Y10083D01*
X3429D01*
Y10085D01*
X3430D01*
Y10088D01*
X3432D01*
Y10089D01*
X3433D01*
Y10092D01*
X3434D01*
Y10093D01*
X3436D01*
Y10096D01*
X3437D01*
Y10097D01*
X3438D01*
Y10100D01*
X3440D01*
Y10102D01*
X3441D01*
Y10105D01*
X3442D01*
Y10109D01*
X3444D01*
Y10113D01*
X3445D01*
Y10123D01*
X3444D01*
Y10125D01*
X3442D01*
Y10127D01*
D02*
G37*
G36*
X3451Y10116D02*
X3449D01*
Y10112D01*
X3448D01*
Y10106D01*
X3446D01*
Y10104D01*
X3445D01*
Y10101D01*
X3444D01*
Y10098D01*
X3442D01*
Y10096D01*
X3441D01*
Y10094D01*
X3440D01*
Y10093D01*
Y10092D01*
X3438D01*
Y10089D01*
X3437D01*
Y10088D01*
X3436D01*
Y10085D01*
X3434D01*
Y10083D01*
X3433D01*
Y10082D01*
X3432D01*
Y10081D01*
X3430D01*
Y10078D01*
X3429D01*
Y10077D01*
X3427D01*
Y10075D01*
X3426D01*
Y10074D01*
X3425D01*
Y10073D01*
X3423D01*
Y10070D01*
X3421D01*
Y10063D01*
X3419D01*
Y10060D01*
X3418D01*
Y10059D01*
X3417D01*
Y10058D01*
X3415D01*
Y10056D01*
X3414D01*
Y10055D01*
X3413D01*
Y10054D01*
X3415D01*
Y10055D01*
X3418D01*
Y10056D01*
X3419D01*
Y10058D01*
X3422D01*
Y10059D01*
X3423D01*
Y10060D01*
X3426D01*
Y10063D01*
X3429D01*
Y10064D01*
X3430D01*
Y10066D01*
X3432D01*
Y10067D01*
X3433D01*
Y10069D01*
X3434D01*
Y10070D01*
X3436D01*
Y10071D01*
X3437D01*
Y10073D01*
X3438D01*
Y10074D01*
X3440D01*
Y10075D01*
X3441D01*
Y10077D01*
X3442D01*
Y10078D01*
X3444D01*
Y10079D01*
X3445D01*
Y10082D01*
X3446D01*
Y10083D01*
X3448D01*
Y10085D01*
X3449D01*
Y10086D01*
X3451D01*
Y10089D01*
X3452D01*
Y10092D01*
X3453D01*
Y10094D01*
X3455D01*
Y10098D01*
X3456D01*
Y10108D01*
X3455D01*
Y10112D01*
X3453D01*
Y10113D01*
X3452D01*
Y10115D01*
X3451D01*
Y10116D01*
D02*
G37*
G36*
X3460Y10094D02*
X3459D01*
Y10093D01*
X3457D01*
Y10090D01*
X3456D01*
Y10088D01*
X3455D01*
Y10085D01*
X3453D01*
Y10083D01*
X3452D01*
Y10082D01*
X3451D01*
Y10079D01*
X3449D01*
Y10078D01*
X3448D01*
Y10077D01*
X3446D01*
Y10075D01*
X3445D01*
Y10073D01*
X3442D01*
Y10070D01*
X3440D01*
Y10067D01*
X3438D01*
Y10066D01*
X3437D01*
Y10064D01*
X3436D01*
Y10063D01*
X3433D01*
Y10062D01*
X3432D01*
Y10060D01*
X3430D01*
Y10059D01*
X3429D01*
Y10058D01*
X3426D01*
Y10056D01*
X3425D01*
Y10055D01*
X3422D01*
Y10054D01*
X3421D01*
Y10052D01*
X3419D01*
Y10050D01*
X3418D01*
Y10048D01*
X3417D01*
Y10047D01*
X3415D01*
Y10046D01*
X3414D01*
Y10044D01*
X3417D01*
Y10046D01*
X3421D01*
Y10047D01*
X3423D01*
Y10048D01*
X3426D01*
Y10050D01*
X3427D01*
Y10051D01*
X3430D01*
Y10052D01*
X3433D01*
Y10054D01*
X3436D01*
Y10055D01*
X3438D01*
Y10056D01*
X3440D01*
Y10058D01*
X3442D01*
Y10060D01*
X3445D01*
Y10062D01*
X3446D01*
Y10063D01*
X3449D01*
Y10064D01*
X3451D01*
Y10066D01*
X3452D01*
Y10067D01*
X3453D01*
Y10069D01*
X3455D01*
Y10070D01*
X3456D01*
Y10071D01*
X3457D01*
Y10073D01*
X3459D01*
Y10074D01*
X3460D01*
Y10077D01*
X3461D01*
Y10079D01*
X3463D01*
Y10090D01*
X3461D01*
Y10093D01*
X3460D01*
Y10094D01*
D02*
G37*
G36*
X3464Y10071D02*
X3461D01*
Y10069D01*
X3460D01*
Y10067D01*
X3459D01*
Y10066D01*
X3457D01*
Y10064D01*
X3456D01*
Y10063D01*
X3455D01*
Y10062D01*
X3453D01*
Y10060D01*
X3451D01*
Y10059D01*
X3449D01*
Y10058D01*
X3448D01*
Y10056D01*
X3445D01*
Y10055D01*
X3444D01*
Y10054D01*
X3441D01*
Y10052D01*
X3440D01*
Y10051D01*
X3437D01*
Y10050D01*
X3436D01*
Y10048D01*
X3433D01*
Y10047D01*
X3430D01*
Y10046D01*
X3427D01*
Y10044D01*
X3423D01*
Y10043D01*
X3422D01*
Y10041D01*
X3421D01*
Y10039D01*
X3419D01*
Y10037D01*
X3417D01*
Y10036D01*
X3414D01*
Y10035D01*
X3421D01*
Y10036D01*
X3426D01*
Y10037D01*
X3430D01*
Y10039D01*
X3434D01*
Y10040D01*
X3437D01*
Y10041D01*
X3441D01*
Y10043D01*
X3444D01*
Y10044D01*
X3446D01*
Y10046D01*
X3451D01*
Y10047D01*
X3452D01*
Y10048D01*
X3455D01*
Y10050D01*
X3456D01*
Y10051D01*
X3457D01*
Y10052D01*
X3459D01*
Y10054D01*
X3460D01*
Y10055D01*
X3461D01*
Y10056D01*
X3463D01*
Y10058D01*
X3464D01*
Y10063D01*
X3465D01*
Y10067D01*
X3464D01*
Y10071D01*
D02*
G37*
G36*
X3465Y10051D02*
X3463D01*
Y10050D01*
X3461D01*
Y10048D01*
X3460D01*
Y10047D01*
X3459D01*
Y10046D01*
X3456D01*
Y10044D01*
X3453D01*
Y10043D01*
X3452D01*
Y10041D01*
X3448D01*
Y10040D01*
X3446D01*
Y10039D01*
X3442D01*
Y10037D01*
X3440D01*
Y10036D01*
X3436D01*
Y10035D01*
X3430D01*
Y10033D01*
X3426D01*
Y10032D01*
X3421D01*
Y10029D01*
X3419D01*
Y10028D01*
X3417D01*
Y10027D01*
X3413D01*
Y10024D01*
X3414D01*
Y10025D01*
X3432D01*
Y10027D01*
X3440D01*
Y10028D01*
X3444D01*
Y10029D01*
X3449D01*
Y10031D01*
X3452D01*
Y10032D01*
X3456D01*
Y10033D01*
X3457D01*
Y10035D01*
X3460D01*
Y10036D01*
X3461D01*
Y10039D01*
X3464D01*
Y10043D01*
X3465D01*
Y10051D01*
D02*
G37*
G36*
X3463Y10033D02*
X3461D01*
Y10032D01*
X3460D01*
Y10031D01*
X3459D01*
Y10029D01*
X3456D01*
Y10028D01*
X3453D01*
Y10027D01*
X3449D01*
Y10025D01*
X3444D01*
Y10024D01*
X3438D01*
Y10023D01*
X3429D01*
Y10021D01*
X3421D01*
Y10020D01*
X3419D01*
Y10018D01*
X3418D01*
Y10017D01*
X3414D01*
Y10016D01*
X3411D01*
Y10014D01*
X3415D01*
Y10013D01*
X3441D01*
Y10014D01*
X3448D01*
Y10016D01*
X3452D01*
Y10017D01*
X3456D01*
Y10018D01*
X3457D01*
Y10020D01*
X3459D01*
Y10021D01*
X3460D01*
Y10023D01*
X3461D01*
Y10025D01*
X3463D01*
Y10033D01*
D02*
G37*
G36*
X3453Y10012D02*
X3451D01*
Y10010D01*
X3444D01*
Y10009D01*
X3417D01*
Y10008D01*
X3414D01*
Y10006D01*
X3410D01*
Y10005D01*
X3409D01*
Y10004D01*
X3414D01*
Y10002D01*
X3419D01*
Y10001D01*
X3430D01*
Y9999D01*
X3438D01*
Y10001D01*
X3445D01*
Y10002D01*
X3448D01*
Y10004D01*
X3451D01*
Y10006D01*
X3452D01*
Y10008D01*
X3453D01*
Y10012D01*
D02*
G37*
G36*
X3419Y9998D02*
X3414D01*
Y9997D01*
X3411D01*
Y9995D01*
X3406D01*
Y9994D01*
X3407D01*
Y9993D01*
X3410D01*
Y9991D01*
X3414D01*
Y9990D01*
X3417D01*
Y9989D01*
X3422D01*
Y9987D01*
X3427D01*
Y9986D01*
X3433D01*
Y9987D01*
X3437D01*
Y9989D01*
X3440D01*
Y9991D01*
X3441D01*
Y9993D01*
X3442D01*
Y9995D01*
X3425D01*
Y9997D01*
X3419D01*
Y9998D01*
D02*
G37*
G36*
X3406Y9989D02*
X3402D01*
Y9986D01*
X3406D01*
Y9985D01*
X3410D01*
Y9983D01*
X3411D01*
Y9982D01*
X3415D01*
Y9981D01*
X3419D01*
Y9979D01*
X3422D01*
Y9978D01*
X3421D01*
Y9976D01*
X3418D01*
Y9975D01*
X3407D01*
Y9976D01*
X3403D01*
Y9978D01*
X3402D01*
Y9979D01*
X3399D01*
Y9981D01*
X3395D01*
Y9979D01*
X3396D01*
Y9978D01*
X3398D01*
Y9976D01*
X3400D01*
Y9975D01*
X3404D01*
Y9974D01*
X3407D01*
Y9971D01*
X3398D01*
Y9972D01*
X3394D01*
Y9974D01*
X3392D01*
Y9975D01*
X3384D01*
Y9974D01*
X3379D01*
Y9975D01*
X3373D01*
Y9976D01*
X3371D01*
Y9978D01*
X3369D01*
Y9979D01*
X3367D01*
Y9976D01*
X3369D01*
Y9975D01*
X3372D01*
Y9974D01*
X3375D01*
Y9972D01*
X3388D01*
Y9974D01*
X3390D01*
Y9972D01*
X3392D01*
Y9971D01*
X3394D01*
Y9970D01*
X3398D01*
Y9968D01*
X3409D01*
Y9970D01*
X3410D01*
Y9971D01*
X3411D01*
Y9972D01*
X3419D01*
Y9974D01*
X3422D01*
Y9975D01*
X3423D01*
Y9976D01*
X3425D01*
Y9978D01*
X3429D01*
Y9979D01*
X3434D01*
Y9981D01*
X3436D01*
Y9982D01*
X3421D01*
Y9983D01*
X3417D01*
Y9985D01*
X3413D01*
Y9986D01*
X3409D01*
Y9987D01*
X3406D01*
Y9989D01*
D02*
G37*
G36*
X3251Y9894D02*
X3245D01*
Y9892D01*
X3243D01*
Y9891D01*
X3242D01*
Y9883D01*
X3243D01*
Y9882D01*
X3245D01*
Y9879D01*
X3246D01*
Y9875D01*
X3245D01*
Y9873D01*
X3239D01*
Y9875D01*
X3236D01*
Y9880D01*
X3235D01*
Y9882D01*
X3234D01*
Y9879D01*
X3232D01*
Y9875D01*
X3234D01*
Y9873D01*
X3235D01*
Y9872D01*
X3236D01*
Y9871D01*
X3239D01*
Y9869D01*
X3246D01*
Y9871D01*
X3247D01*
Y9872D01*
X3249D01*
Y9875D01*
X3250D01*
Y9878D01*
X3249D01*
Y9882D01*
X3247D01*
Y9884D01*
X3246D01*
Y9886D01*
X3245D01*
Y9888D01*
X3246D01*
Y9890D01*
X3247D01*
Y9891D01*
X3249D01*
Y9890D01*
X3251D01*
Y9888D01*
X3254D01*
Y9887D01*
X3253D01*
Y9886D01*
X3254D01*
Y9884D01*
X3257D01*
Y9887D01*
X3258D01*
Y9888D01*
X3257D01*
Y9890D01*
X3255D01*
Y9891D01*
X3254D01*
Y9892D01*
X3251D01*
Y9894D01*
D02*
G37*
G36*
X3541D02*
X3540D01*
Y9892D01*
X3539D01*
Y9891D01*
X3537D01*
Y9888D01*
X3539D01*
Y9882D01*
X3540D01*
Y9876D01*
X3541D01*
Y9875D01*
Y9872D01*
X3540D01*
Y9873D01*
X3537D01*
Y9875D01*
X3534D01*
Y9876D01*
X3533D01*
Y9878D01*
X3530D01*
Y9879D01*
X3528D01*
Y9880D01*
X3526D01*
Y9882D01*
X3522D01*
Y9880D01*
X3521D01*
Y9878D01*
X3524D01*
Y9875D01*
X3525D01*
Y9873D01*
X3526D01*
Y9872D01*
X3528D01*
Y9869D01*
X3529D01*
Y9867D01*
X3530D01*
Y9865D01*
X3532D01*
Y9864D01*
X3533D01*
Y9861D01*
X3534D01*
Y9860D01*
X3533D01*
Y9859D01*
X3534D01*
Y9857D01*
X3536D01*
Y9859D01*
X3537D01*
Y9860D01*
X3540D01*
Y9863D01*
X3537D01*
Y9864D01*
X3536D01*
Y9867D01*
X3534D01*
Y9868D01*
X3533D01*
Y9869D01*
X3532D01*
Y9872D01*
X3530D01*
Y9875D01*
X3532D01*
Y9873D01*
X3533D01*
Y9872D01*
X3536D01*
Y9871D01*
X3537D01*
Y9869D01*
X3540D01*
Y9868D01*
X3541D01*
Y9867D01*
X3545D01*
Y9872D01*
X3544D01*
Y9878D01*
X3543D01*
Y9882D01*
X3545D01*
Y9879D01*
X3547D01*
Y9878D01*
X3548D01*
Y9875D01*
X3549D01*
Y9873D01*
X3551D01*
Y9869D01*
X3552D01*
Y9871D01*
X3555D01*
Y9872D01*
X3556D01*
Y9875D01*
X3553D01*
Y9876D01*
X3552D01*
Y9879D01*
X3551D01*
Y9880D01*
X3549D01*
Y9882D01*
X3548D01*
Y9884D01*
X3547D01*
Y9886D01*
X3545D01*
Y9887D01*
X3544D01*
Y9888D01*
X3543D01*
Y9892D01*
X3541D01*
Y9894D01*
D02*
G37*
G36*
X3273Y9879D02*
X3269D01*
Y9878D01*
X3270D01*
Y9876D01*
X3269D01*
Y9875D01*
X3268D01*
Y9872D01*
X3266D01*
Y9869D01*
X3265D01*
Y9867D01*
X3264D01*
Y9864D01*
X3262D01*
Y9863D01*
X3261D01*
Y9860D01*
X3258D01*
Y9856D01*
X3261D01*
Y9855D01*
X3264D01*
Y9853D01*
X3266D01*
Y9852D01*
X3268D01*
Y9850D01*
X3270D01*
Y9849D01*
X3272D01*
Y9850D01*
X3273D01*
Y9855D01*
X3272D01*
Y9853D01*
X3270D01*
Y9855D01*
X3268D01*
Y9856D01*
X3265D01*
Y9857D01*
X3264D01*
Y9859D01*
X3265D01*
Y9861D01*
X3266D01*
Y9864D01*
X3270D01*
Y9863D01*
X3273D01*
Y9861D01*
X3274D01*
Y9860D01*
X3276D01*
Y9861D01*
X3277D01*
Y9864D01*
X3274D01*
Y9865D01*
X3272D01*
Y9867D01*
X3269D01*
Y9868D01*
X3270D01*
Y9871D01*
X3272D01*
Y9872D01*
X3273D01*
Y9873D01*
X3276D01*
Y9872D01*
X3277D01*
Y9871D01*
X3280D01*
Y9868D01*
X3283D01*
Y9869D01*
X3284D01*
Y9872D01*
X3283D01*
Y9873D01*
X3280D01*
Y9875D01*
X3277D01*
Y9876D01*
X3276D01*
Y9878D01*
X3273D01*
Y9879D01*
D02*
G37*
G36*
X3299Y9865D02*
X3295D01*
Y9863D01*
X3296D01*
Y9861D01*
X3295D01*
Y9857D01*
X3293D01*
Y9856D01*
X3292D01*
Y9852D01*
X3291D01*
Y9849D01*
X3289D01*
Y9845D01*
X3288D01*
Y9844D01*
X3287D01*
Y9841D01*
X3289D01*
Y9840D01*
X3292D01*
Y9838D01*
X3296D01*
Y9837D01*
X3299D01*
Y9836D01*
X3301D01*
Y9838D01*
X3303D01*
Y9840D01*
X3301D01*
Y9841D01*
X3300D01*
Y9840D01*
X3297D01*
Y9841D01*
X3295D01*
Y9842D01*
X3292D01*
Y9845D01*
X3293D01*
Y9848D01*
X3295D01*
Y9850D01*
X3297D01*
Y9849D01*
X3299D01*
Y9848D01*
X3303D01*
Y9846D01*
X3304D01*
Y9850D01*
X3301D01*
Y9852D01*
X3299D01*
Y9853D01*
X3297D01*
Y9857D01*
X3299D01*
Y9860D01*
X3303D01*
Y9859D01*
X3304D01*
Y9857D01*
X3307D01*
Y9856D01*
X3310D01*
Y9859D01*
X3311D01*
Y9860D01*
X3307D01*
Y9861D01*
X3304D01*
Y9863D01*
X3301D01*
Y9864D01*
X3299D01*
Y9865D01*
D02*
G37*
G36*
X3509Y9869D02*
X3501D01*
Y9868D01*
X3499D01*
Y9867D01*
X3498D01*
Y9865D01*
X3495D01*
Y9853D01*
X3497D01*
Y9850D01*
X3498D01*
Y9848D01*
X3501D01*
Y9846D01*
X3502D01*
Y9845D01*
X3503D01*
Y9844D01*
X3511D01*
Y9845D01*
X3513D01*
Y9846D01*
X3516D01*
Y9848D01*
X3517D01*
Y9860D01*
X3516D01*
Y9863D01*
X3514D01*
Y9864D01*
X3513D01*
Y9865D01*
X3511D01*
Y9867D01*
X3510D01*
Y9868D01*
X3509D01*
Y9869D01*
D02*
G37*
G36*
X3446Y9848D02*
X3438D01*
Y9846D01*
X3436D01*
Y9845D01*
X3434D01*
Y9844D01*
X3433D01*
Y9837D01*
X3436D01*
Y9836D01*
X3437D01*
Y9834D01*
X3442D01*
Y9833D01*
X3446D01*
Y9831D01*
X3448D01*
Y9827D01*
X3446D01*
Y9826D01*
X3445D01*
Y9825D01*
X3440D01*
Y9826D01*
X3438D01*
Y9827D01*
X3436D01*
Y9822D01*
X3448D01*
Y9823D01*
X3449D01*
Y9825D01*
X3451D01*
Y9827D01*
X3452D01*
Y9831D01*
X3451D01*
Y9834D01*
X3449D01*
Y9836D01*
X3446D01*
Y9837D01*
X3440D01*
Y9838D01*
X3438D01*
Y9840D01*
X3437D01*
Y9842D01*
X3438D01*
Y9844D01*
X3440D01*
Y9845D01*
X3444D01*
Y9844D01*
X3448D01*
Y9845D01*
Y9846D01*
X3446D01*
Y9848D01*
D02*
G37*
G36*
X3479Y9856D02*
X3468D01*
Y9855D01*
X3465D01*
Y9853D01*
X3461D01*
Y9850D01*
X3463D01*
Y9848D01*
X3464D01*
Y9844D01*
X3465D01*
Y9840D01*
X3467D01*
Y9836D01*
X3468D01*
Y9831D01*
X3469D01*
Y9830D01*
X3468D01*
Y9827D01*
X3469D01*
Y9829D01*
X3474D01*
Y9830D01*
X3478D01*
Y9831D01*
X3480D01*
Y9833D01*
X3482D01*
Y9834D01*
X3483D01*
Y9836D01*
X3484D01*
Y9837D01*
X3486D01*
Y9845D01*
X3484D01*
Y9848D01*
X3483D01*
Y9852D01*
X3482D01*
Y9853D01*
X3480D01*
Y9855D01*
X3479D01*
Y9856D01*
D02*
G37*
G36*
X3326Y9855D02*
X3323D01*
Y9848D01*
X3322D01*
Y9844D01*
X3320D01*
Y9838D01*
X3319D01*
Y9834D01*
X3318D01*
Y9833D01*
X3316D01*
Y9829D01*
X3323D01*
Y9831D01*
X3322D01*
Y9833D01*
X3323D01*
Y9838D01*
X3327D01*
Y9836D01*
X3329D01*
Y9830D01*
X3330D01*
Y9826D01*
X3333D01*
Y9825D01*
X3335D01*
Y9827D01*
X3334D01*
Y9829D01*
X3333D01*
Y9834D01*
X3331D01*
Y9837D01*
X3330D01*
Y9842D01*
X3333D01*
Y9844D01*
X3335D01*
Y9845D01*
X3337D01*
Y9846D01*
X3339D01*
Y9848D01*
X3342D01*
Y9849D01*
X3341D01*
Y9850D01*
X3334D01*
Y9849D01*
X3335D01*
Y9848D01*
X3333D01*
Y9846D01*
X3330D01*
Y9845D01*
X3329D01*
Y9844D01*
X3326D01*
Y9848D01*
X3327D01*
Y9850D01*
X3329D01*
Y9853D01*
X3326D01*
Y9855D01*
D02*
G37*
G36*
X3419Y9844D02*
X3413D01*
Y9841D01*
X3414D01*
Y9837D01*
Y9836D01*
Y9827D01*
X3415D01*
Y9821D01*
X3414D01*
Y9818D01*
X3419D01*
Y9819D01*
X3421D01*
Y9822D01*
X3419D01*
Y9831D01*
X3418D01*
Y9841D01*
X3419D01*
Y9844D01*
D02*
G37*
G36*
X3369Y9845D02*
X3368D01*
Y9841D01*
X3369D01*
Y9837D01*
X3371D01*
Y9829D01*
X3372D01*
Y9822D01*
X3373D01*
Y9818D01*
X3377D01*
Y9819D01*
X3379D01*
Y9823D01*
X3380D01*
Y9829D01*
X3381D01*
Y9830D01*
Y9831D01*
Y9833D01*
X3383D01*
Y9837D01*
X3384D01*
Y9831D01*
X3385D01*
Y9822D01*
X3387D01*
Y9818D01*
X3392D01*
Y9822D01*
X3394D01*
Y9826D01*
X3395D01*
Y9831D01*
X3396D01*
Y9834D01*
X3398D01*
Y9840D01*
X3399D01*
Y9844D01*
X3394D01*
Y9841D01*
X3395D01*
Y9838D01*
X3394D01*
Y9834D01*
X3392D01*
Y9829D01*
X3391D01*
Y9825D01*
X3390D01*
Y9826D01*
X3388D01*
Y9834D01*
X3387D01*
Y9841D01*
X3385D01*
Y9844D01*
X3381D01*
Y9840D01*
X3380D01*
Y9834D01*
X3379D01*
Y9829D01*
X3377D01*
Y9826D01*
X3376D01*
Y9827D01*
X3375D01*
Y9834D01*
X3373D01*
Y9842D01*
X3375D01*
Y9844D01*
X3369D01*
Y9845D01*
D02*
G37*
%LPD*%
G36*
X3507Y9864D02*
X3509D01*
Y9863D01*
X3510D01*
Y9861D01*
X3511D01*
Y9857D01*
X3513D01*
Y9855D01*
X3514D01*
Y9852D01*
X3513D01*
Y9849D01*
X3511D01*
Y9848D01*
X3505D01*
Y9849D01*
X3503D01*
Y9850D01*
X3502D01*
Y9852D01*
X3501D01*
Y9856D01*
X3499D01*
Y9859D01*
X3498D01*
Y9861D01*
X3499D01*
Y9864D01*
X3501D01*
Y9865D01*
X3507D01*
Y9864D01*
D02*
G37*
G36*
X3475Y9852D02*
X3478D01*
Y9850D01*
X3479D01*
Y9848D01*
X3480D01*
Y9842D01*
X3482D01*
Y9840D01*
X3480D01*
Y9836D01*
X3479D01*
Y9834D01*
X3475D01*
Y9833D01*
X3472D01*
Y9836D01*
X3471D01*
Y9840D01*
X3469D01*
Y9845D01*
X3468D01*
Y9848D01*
X3467D01*
Y9852D01*
X3471D01*
Y9853D01*
X3475D01*
Y9852D01*
D02*
G37*
%LPC*%
G36*
X4716Y9957D02*
X4713D01*
Y9953D01*
X4712D01*
Y9949D01*
X4710D01*
Y9944D01*
X4709D01*
Y9941D01*
X4708D01*
Y9937D01*
X4706D01*
Y9933D01*
X4705D01*
Y9929D01*
X4704D01*
Y9925D01*
X4702D01*
Y9921D01*
X4701D01*
Y9917D01*
X4700D01*
Y9913D01*
X4698D01*
Y9907D01*
X4697D01*
Y9905D01*
X4695D01*
Y9901D01*
X4694D01*
Y9897D01*
X4693D01*
Y9892D01*
X4691D01*
Y9888D01*
X4690D01*
Y9887D01*
X4740D01*
Y9890D01*
X4739D01*
Y9894D01*
X4737D01*
Y9897D01*
X4736D01*
Y9902D01*
X4735D01*
Y9905D01*
X4733D01*
Y9909D01*
X4732D01*
Y9911D01*
X4731D01*
Y9917D01*
X4729D01*
Y9921D01*
X4728D01*
Y9924D01*
X4727D01*
Y9929D01*
X4725D01*
Y9932D01*
X4724D01*
Y9936D01*
X4723D01*
Y9939D01*
X4721D01*
Y9944D01*
X4720D01*
Y9948D01*
X4718D01*
Y9951D01*
X4717D01*
Y9956D01*
X4716D01*
Y9957D01*
D02*
G37*
G36*
X4400Y9960D02*
X4399D01*
Y9955D01*
X4397D01*
Y9952D01*
X4396D01*
Y9947D01*
X4395D01*
Y9943D01*
X4393D01*
Y9939D01*
X4392D01*
Y9934D01*
X4391D01*
Y9932D01*
X4389D01*
Y9926D01*
X4388D01*
Y9924D01*
X4387D01*
Y9918D01*
X4385D01*
Y9914D01*
X4384D01*
Y9910D01*
X4383D01*
Y9906D01*
X4381D01*
Y9903D01*
X4380D01*
Y9898D01*
X4378D01*
Y9895D01*
X4377D01*
Y9890D01*
X4376D01*
Y9887D01*
X4426D01*
Y9888D01*
X4425D01*
Y9891D01*
X4423D01*
Y9897D01*
X4422D01*
Y9899D01*
X4420D01*
Y9903D01*
X4419D01*
Y9906D01*
X4418D01*
Y9910D01*
X4416D01*
Y9914D01*
X4415D01*
Y9918D01*
X4414D01*
Y9922D01*
X4412D01*
Y9926D01*
X4411D01*
Y9930D01*
X4410D01*
Y9933D01*
X4408D01*
Y9939D01*
X4407D01*
Y9941D01*
X4406D01*
Y9945D01*
X4404D01*
Y9949D01*
X4403D01*
Y9953D01*
X4401D01*
Y9957D01*
X4400D01*
Y9960D01*
D02*
G37*
G36*
X4274Y9967D02*
X4242D01*
Y9949D01*
Y9948D01*
Y9907D01*
X4262D01*
Y9909D01*
X4270D01*
Y9910D01*
X4275D01*
Y9911D01*
X4278D01*
Y9913D01*
X4281D01*
Y9914D01*
X4282D01*
Y9915D01*
X4284D01*
Y9917D01*
X4286D01*
Y9920D01*
X4288D01*
Y9921D01*
X4289D01*
Y9924D01*
X4290D01*
Y9926D01*
X4292D01*
Y9934D01*
X4293D01*
Y9944D01*
X4292D01*
Y9951D01*
X4290D01*
Y9953D01*
X4289D01*
Y9956D01*
X4288D01*
Y9957D01*
X4286D01*
Y9960D01*
X4284D01*
Y9963D01*
X4281D01*
Y9964D01*
X4278D01*
Y9966D01*
X4274D01*
Y9967D01*
D02*
G37*
G36*
X3765Y9960D02*
X3763D01*
Y9955D01*
X3762D01*
Y9952D01*
X3761D01*
Y9947D01*
X3759D01*
Y9944D01*
X3758D01*
Y9939D01*
X3757D01*
Y9936D01*
X3755D01*
Y9932D01*
X3754D01*
Y9926D01*
X3753D01*
Y9924D01*
X3751D01*
Y9920D01*
Y9918D01*
X3750D01*
Y9915D01*
X3749D01*
Y9910D01*
X3747D01*
Y9907D01*
X3746D01*
Y9903D01*
X3744D01*
Y9898D01*
X3743D01*
Y9895D01*
X3742D01*
Y9890D01*
X3740D01*
Y9887D01*
X3789D01*
Y9891D01*
X3788D01*
Y9895D01*
X3786D01*
Y9899D01*
X3785D01*
Y9903D01*
X3784D01*
Y9906D01*
X3782D01*
Y9911D01*
X3781D01*
Y9914D01*
X3780D01*
Y9918D01*
X3778D01*
Y9922D01*
X3777D01*
Y9926D01*
X3776D01*
Y9930D01*
X3774D01*
Y9933D01*
X3773D01*
Y9939D01*
X3772D01*
Y9941D01*
X3770D01*
Y9945D01*
X3769D01*
Y9948D01*
X3767D01*
Y9953D01*
X3766D01*
Y9956D01*
X3765D01*
Y9960D01*
D02*
G37*
G36*
X6121Y8042D02*
X6115D01*
Y8037D01*
X6115Y8037D01*
Y8037D01*
X6115Y8036D01*
X6115Y8036D01*
X6116Y8036D01*
X6116Y8035D01*
X6116Y8035D01*
X6116Y8035D01*
X6116Y8035D01*
X6116Y8035D01*
X6116Y8035D01*
X6116Y8035D01*
X6116Y8034D01*
X6117Y8034D01*
X6117Y8034D01*
X6117Y8034D01*
X6117Y8034D01*
X6117Y8034D01*
X6117Y8034D01*
X6117Y8034D01*
X6118Y8034D01*
X6118Y8034D01*
X6118D01*
X6118D01*
X6118D01*
X6118Y8034D01*
X6119Y8034D01*
X6119Y8034D01*
X6119Y8034D01*
X6120Y8034D01*
X6120Y8035D01*
X6120Y8035D01*
X6120Y8035D01*
X6120Y8035D01*
X6120Y8035D01*
X6120Y8036D01*
X6121Y8036D01*
X6121Y8037D01*
X6121Y8037D01*
Y8042D01*
D02*
G37*
G36*
X8460Y3497D02*
X8460D01*
X8460D01*
X8459D01*
X8459Y3497D01*
X8459Y3497D01*
X8458Y3497D01*
X8457Y3496D01*
X8457Y3496D01*
X8456Y3496D01*
X8456Y3496D01*
X8456Y3495D01*
X8456Y3495D01*
X8455Y3495D01*
X8455Y3494D01*
X8455Y3493D01*
X8455Y3493D01*
X8455Y3492D01*
Y3492D01*
X8455Y3491D01*
X8455Y3491D01*
X8455Y3490D01*
X8455Y3489D01*
X8456Y3489D01*
X8456Y3488D01*
X8456Y3488D01*
X8456Y3488D01*
X8457Y3488D01*
X8457Y3487D01*
X8458Y3487D01*
X8458Y3487D01*
X8459Y3487D01*
X8460Y3487D01*
X8460D01*
X8460D01*
X8460Y3487D01*
X8460Y3487D01*
X8461Y3487D01*
X8462Y3487D01*
X8462Y3487D01*
X8463Y3488D01*
X8463Y3488D01*
X8463Y3488D01*
X8464Y3488D01*
X8464Y3489D01*
X8464Y3489D01*
X8464Y3490D01*
X8465Y3490D01*
X8465Y3491D01*
X8465Y3492D01*
Y3492D01*
X8465Y3492D01*
X8465Y3493D01*
X8465Y3493D01*
X8464Y3494D01*
X8464Y3494D01*
X8464Y3495D01*
X8463Y3496D01*
X8463Y3496D01*
X8463Y3496D01*
X8463Y3496D01*
X8462Y3496D01*
X8462Y3497D01*
X8461Y3497D01*
X8461Y3497D01*
X8460Y3497D01*
D02*
G37*
G36*
X8475Y3498D02*
X8474D01*
X8474D01*
X8474D01*
X8474Y3498D01*
X8474Y3498D01*
X8473Y3498D01*
X8472Y3498D01*
X8471Y3498D01*
X8471Y3497D01*
X8470Y3497D01*
X8470Y3496D01*
X8470Y3496D01*
X8469Y3496D01*
X8469Y3495D01*
X8469Y3495D01*
X8468Y3494D01*
X8468Y3493D01*
X8468Y3492D01*
Y3491D01*
X8468Y3491D01*
X8468Y3491D01*
X8468Y3490D01*
X8468Y3489D01*
X8469Y3489D01*
X8469Y3488D01*
X8470Y3487D01*
X8470Y3487D01*
X8470Y3487D01*
X8471Y3487D01*
X8471Y3486D01*
X8472Y3486D01*
X8473Y3486D01*
X8473Y3485D01*
X8474Y3485D01*
X8474D01*
X8475D01*
X8475Y3485D01*
X8475Y3485D01*
X8476Y3486D01*
X8476Y3486D01*
X8477Y3486D01*
X8478Y3486D01*
X8478Y3486D01*
X8478Y3486D01*
X8478Y3486D01*
X8479Y3487D01*
X8479Y3487D01*
X8479Y3487D01*
X8480Y3488D01*
X8480Y3488D01*
X8480Y3489D01*
X8480Y3489D01*
X8480Y3489D01*
X8481Y3490D01*
X8481Y3490D01*
X8481Y3491D01*
X8481Y3491D01*
X8481Y3492D01*
Y3492D01*
X8481Y3492D01*
X8481Y3493D01*
X8481Y3494D01*
X8480Y3494D01*
X8480Y3495D01*
X8480Y3496D01*
X8479Y3497D01*
X8479Y3497D01*
X8479Y3497D01*
X8478Y3497D01*
X8478Y3497D01*
X8477Y3498D01*
X8476Y3498D01*
X8476Y3498D01*
X8475Y3498D01*
D02*
G37*
G36*
X8472Y3469D02*
X8458D01*
X8472Y3459D01*
Y3469D01*
D02*
G37*
%LPD*%
D10*
X4134Y3433D02*
G03*
X4134Y3433I-5J0D01*
G01*
X5078Y8524D02*
X5158D01*
X5118Y8484D02*
Y8564D01*
X3541Y8524D02*
X3621D01*
X3581Y8484D02*
Y8564D01*
X8420Y3328D02*
X8547D01*
Y3582D01*
X8420D02*
X8547D01*
X8420Y3328D02*
Y3582D01*
X6223Y7459D02*
X6503D01*
X6223D02*
Y7629D01*
X6503D01*
Y7484D02*
Y7604D01*
X6331Y6599D02*
X7031D01*
X6331D02*
Y7299D01*
X7031D01*
Y6599D02*
Y7299D01*
X6981Y6599D02*
X7031Y6649D01*
X3836Y3519D02*
X4036D01*
X3836D02*
Y3644D01*
X4036D01*
Y3519D02*
Y3644D01*
X3936Y3541D02*
Y3621D01*
X3896Y3581D02*
X3976D01*
X8420Y3328D02*
X8547D01*
Y3582D01*
X8420D02*
X8547D01*
X8420Y3328D02*
Y3582D01*
X4084Y3299D02*
G03*
X4084Y3299I-50J0D01*
G01*
X8300Y3870D02*
G03*
X8300Y3870I-50J0D01*
G01*
X4036Y3519D02*
Y3644D01*
X3836Y3519D02*
Y3644D01*
Y3519D02*
X4036D01*
X3836Y3644D02*
X4036D01*
X3754Y2704D02*
X4094D01*
X3754Y2884D02*
X4094D01*
Y2704D02*
Y2884D01*
X3754Y2704D02*
Y2884D01*
X3280Y3197D02*
X3500D01*
X3280Y3052D02*
X3500D01*
X3280D02*
Y3197D01*
X3500Y3052D02*
Y3197D01*
X3160Y3364D02*
X3500D01*
X3160Y3544D02*
X3500D01*
Y3364D02*
Y3544D01*
X3160Y3364D02*
Y3544D01*
X4290Y3583D02*
X4630D01*
X4290Y3403D02*
X4630D01*
X4290D02*
Y3583D01*
X4630Y3403D02*
Y3583D01*
X3724Y3089D02*
Y3388D01*
X4124Y3089D02*
Y3388D01*
X3724Y3089D02*
X4124D01*
X3724Y3388D02*
X4124D01*
X9744Y3279D02*
X9839D01*
X9744Y3114D02*
X9839D01*
Y3279D01*
X9744Y3114D02*
Y3279D01*
X9033D02*
X9128D01*
X9033Y3114D02*
X9128D01*
Y3279D01*
X9033Y3114D02*
Y3279D01*
X9503D02*
X9598D01*
X9503Y3114D02*
X9598D01*
Y3279D01*
X9503Y3114D02*
Y3279D01*
X9262Y3274D02*
X9357D01*
X9262Y3109D02*
X9357D01*
Y3274D01*
X9262Y3109D02*
Y3274D01*
X8532Y3368D02*
Y3543D01*
X8436Y3368D02*
Y3543D01*
X8532D01*
X8436Y3368D02*
X8532D01*
X8281Y3240D02*
X8381D01*
X8281Y3290D02*
X8381D01*
X8281Y3240D02*
Y3290D01*
X8381Y3240D02*
Y3290D01*
X8007Y3217D02*
Y3312D01*
X8172Y3217D02*
Y3312D01*
X8007D02*
X8172D01*
X8007Y3217D02*
X8172D01*
X7799Y3240D02*
X7899D01*
X7799Y3290D02*
X7899D01*
X7799Y3240D02*
Y3290D01*
X7899Y3240D02*
Y3290D01*
X6121Y5294D02*
Y5459D01*
X6216Y5294D02*
Y5459D01*
X6121Y5294D02*
X6216D01*
X6121Y5459D02*
X6216D01*
X2919Y9440D02*
X3014D01*
X2919Y9275D02*
X3014D01*
Y9440D01*
X2919Y9275D02*
Y9440D01*
X3084Y9295D02*
X3180D01*
X3084Y9470D02*
X3180D01*
X3084Y9295D02*
Y9470D01*
X3180Y9295D02*
Y9470D01*
X7446Y5909D02*
X7542D01*
X7446Y6084D02*
X7542D01*
X7446Y5909D02*
Y6084D01*
X7542Y5909D02*
Y6084D01*
X7294Y6054D02*
X7389D01*
X7294Y5889D02*
X7389D01*
Y6054D01*
X7294Y5889D02*
Y6054D01*
X7840Y3560D02*
Y3960D01*
X8340Y3560D02*
Y3960D01*
X7840Y3560D02*
X8340D01*
X7840Y3960D02*
X8340D01*
X3254Y9297D02*
X3350D01*
X3254Y9472D02*
X3350D01*
X3254Y9297D02*
Y9472D01*
X3350Y9297D02*
Y9472D01*
X3418Y9433D02*
X3513D01*
X3418Y9268D02*
X3513D01*
Y9433D01*
X3418Y9268D02*
Y9433D01*
X8266Y8338D02*
X8321D01*
X8266Y8443D02*
X8321D01*
X8266Y8338D02*
Y8443D01*
X8321Y8338D02*
Y8443D01*
X8175Y8268D02*
Y8443D01*
X8081Y8268D02*
Y8443D01*
X8175D01*
X8081Y8268D02*
X8175D01*
X7448Y5438D02*
X7588D01*
X7448Y5738D02*
X7588D01*
Y5438D02*
Y5738D01*
X7448Y5438D02*
Y5738D01*
X6094Y7850D02*
X6149D01*
X6094Y7745D02*
X6149D01*
Y7850D01*
X6094Y7745D02*
Y7850D01*
X8269Y4554D02*
Y4894D01*
X8089Y4554D02*
Y4894D01*
X8269D01*
X8089Y4554D02*
X8269D01*
X7964D02*
Y4894D01*
X7784Y4554D02*
Y4894D01*
X7964D01*
X7784Y4554D02*
X7964D01*
X7154Y9179D02*
X7324D01*
X7154Y9489D02*
X7324D01*
Y9179D02*
Y9489D01*
X7154Y9179D02*
Y9489D01*
X7543Y8235D02*
X7723D01*
X7543Y7894D02*
X7723D01*
Y8235D01*
X7543Y7894D02*
Y8235D01*
X7129Y7894D02*
Y8235D01*
X7399Y7894D02*
Y8235D01*
X7129Y7894D02*
X7399D01*
X7129Y8235D02*
X7399D01*
X7153Y6830D02*
X7248D01*
X7153Y6995D02*
X7248D01*
X7153Y6830D02*
Y6995D01*
X7248Y6830D02*
Y6995D01*
X7531Y6983D02*
Y7038D01*
X7426Y6983D02*
Y7038D01*
Y6983D02*
X7531D01*
X7426Y7038D02*
X7531D01*
X7439Y6297D02*
Y6352D01*
X7544Y6297D02*
Y6352D01*
X7439D02*
X7544D01*
X7439Y6297D02*
X7544D01*
X7062Y8636D02*
Y9067D01*
X7493Y8636D02*
Y9067D01*
X7062D02*
X7493D01*
X7062Y8636D02*
X7493D01*
X7840Y7878D02*
Y8098D01*
X7985Y7878D02*
Y8098D01*
X7840Y7878D02*
X7985D01*
X7840Y8098D02*
X7985D01*
X7331Y9592D02*
Y9737D01*
X7110Y9592D02*
Y9737D01*
Y9592D02*
X7331D01*
X7110Y9737D02*
X7331D01*
X7743Y9376D02*
Y9521D01*
X7522Y9376D02*
Y9521D01*
Y9376D02*
X7743D01*
X7522Y9521D02*
X7743D01*
X6417Y9567D02*
Y9712D01*
X6638Y9567D02*
Y9712D01*
X6417D02*
X6638D01*
X6417Y9567D02*
X6638D01*
X6616Y8636D02*
Y9067D01*
X6185Y8636D02*
Y9067D01*
Y8636D02*
X6616D01*
X6185Y9067D02*
X6616D01*
X6112Y9432D02*
X6257D01*
X6112Y9211D02*
X6257D01*
Y9432D01*
X6112Y9211D02*
Y9432D01*
X6600Y9167D02*
Y9477D01*
X6430Y9167D02*
Y9477D01*
Y9167D02*
X6600D01*
X6430Y9477D02*
X6600D01*
X5068Y6464D02*
X5168D01*
X5118Y6414D02*
Y6514D01*
X3531Y6464D02*
X3631D01*
X3581Y6414D02*
Y6514D01*
X3886Y3581D02*
X3986D01*
X3936Y3531D02*
Y3631D01*
X3924Y2744D02*
Y2844D01*
X3874Y2794D02*
X3974D01*
X3390Y3074D02*
Y3174D01*
X3340Y3124D02*
X3440D01*
X3330Y3404D02*
Y3504D01*
X3280Y3454D02*
X3380D01*
X4460Y3442D02*
Y3542D01*
X4410Y3492D02*
X4510D01*
X3874Y3238D02*
X3974D01*
X3924Y3189D02*
Y3288D01*
X9792Y3149D02*
Y3244D01*
X9744Y3196D02*
X9839D01*
X9081Y3149D02*
Y3244D01*
X9033Y3196D02*
X9128D01*
X9550Y3149D02*
Y3244D01*
X9503Y3196D02*
X9598D01*
X9309Y3144D02*
Y3239D01*
X9262Y3192D02*
X9357D01*
X8436Y3455D02*
X8532D01*
X8484Y3407D02*
Y3503D01*
X8547Y3328D02*
Y3582D01*
X8420Y3328D02*
Y3582D01*
X8547D01*
X8420Y3328D02*
X8547D01*
X8331Y3240D02*
Y3290D01*
X8306Y3265D02*
X8356D01*
X8042D02*
X8137D01*
X8090Y3217D02*
Y3312D01*
X7849Y3240D02*
Y3290D01*
X7824Y3265D02*
X7874D01*
X6121Y5376D02*
X6216D01*
X6169Y5329D02*
Y5424D01*
X2967Y9310D02*
Y9405D01*
X2919Y9357D02*
X3014D01*
X3132Y9335D02*
Y9431D01*
X3084Y9383D02*
X3180D01*
X7494Y5949D02*
Y6045D01*
X7446Y5997D02*
X7542D01*
X7342Y5924D02*
Y6019D01*
X7294Y5971D02*
X7389D01*
X8040Y3760D02*
X8140D01*
X8090Y3710D02*
Y3810D01*
X3302Y9336D02*
Y9432D01*
X3254Y9384D02*
X3350D01*
X3466Y9303D02*
Y9398D01*
X3418Y9351D02*
X3513D01*
X8293Y8363D02*
Y8418D01*
X8266Y8390D02*
X8321D01*
X8081Y8355D02*
X8175D01*
X8128Y8308D02*
Y8403D01*
X7518Y5538D02*
Y5638D01*
X7468Y5588D02*
X7568D01*
X6121Y7770D02*
Y7825D01*
X6094Y7798D02*
X6149D01*
X7290Y5221D02*
Y5321D01*
X7240Y5271D02*
X7340D01*
X8129Y4724D02*
X8229D01*
X8179Y4674D02*
Y4774D01*
X7824Y4724D02*
X7924D01*
X7874Y4674D02*
Y4774D01*
X7239Y9285D02*
Y9385D01*
X7189Y9335D02*
X7289D01*
X6313Y7544D02*
X6413D01*
X6363Y7494D02*
Y7594D01*
X7633Y8014D02*
Y8114D01*
X7583Y8064D02*
X7683D01*
X7214D02*
X7314D01*
X7264Y8014D02*
Y8114D01*
X7201Y6865D02*
Y6960D01*
X7153Y6913D02*
X7248D01*
X7451Y7010D02*
X7506D01*
X7479Y6983D02*
Y7038D01*
X7464Y6325D02*
X7519D01*
X7491Y6297D02*
Y6352D01*
X6985Y8607D02*
Y9097D01*
X7570Y8607D02*
Y9097D01*
X6985D02*
X7570D01*
X6985Y8607D02*
X7570D01*
X7227Y8852D02*
X7327D01*
X7277Y8802D02*
Y8902D01*
X7862Y7988D02*
X7962D01*
X7912Y7938D02*
Y8038D01*
X7170Y9665D02*
X7270D01*
X7220Y9615D02*
Y9715D01*
X7583Y9449D02*
X7683D01*
X7633Y9399D02*
Y9499D01*
X6478Y9639D02*
X6578D01*
X6528Y9589D02*
Y9689D01*
X6693Y8607D02*
Y9097D01*
X6108Y8607D02*
Y9097D01*
Y8607D02*
X6693D01*
X6108Y9097D02*
X6693D01*
X6351Y8852D02*
X6451D01*
X6401Y8802D02*
Y8902D01*
X6185Y9272D02*
Y9372D01*
X6135Y9322D02*
X6235D01*
X6465D02*
X6565D01*
X6515Y9272D02*
Y9372D01*
D11*
X8378Y4000D02*
G03*
X8378Y4000I-12J0D01*
G01*
X7421Y5768D02*
G03*
X7421Y5768I-12J0D01*
G01*
X7081Y6599D02*
G03*
X7081Y6599I-12J0D01*
G01*
X7042Y9432D02*
G03*
X7042Y9432I-12J0D01*
G01*
X7005Y9027D02*
G03*
X7005Y9027I-12J0D01*
G01*
X6698Y8677D02*
G03*
X6698Y8677I-12J0D01*
G01*
X6738Y9224D02*
G03*
X6738Y9224I-12J0D01*
G01*
X6071Y5944D02*
X6325D01*
Y6274D01*
X6071D02*
X6325D01*
X6071Y5944D02*
Y6274D01*
D12*
X8065Y8235D02*
G03*
X8065Y8235I-8J0D01*
G01*
X8103Y8368D02*
X8153D01*
X8128Y8343D02*
X8153Y8368D01*
X8103D02*
X8128Y8343D01*
D13*
X10236Y4630D02*
G03*
X10232Y3709I1810J-470D01*
G01*
X10130Y5611D02*
Y7656D01*
Y5611D02*
X10419D01*
X10130Y7656D02*
X10419D01*
X9666Y8308D02*
X10419Y7661D01*
Y5547D02*
Y7656D01*
X8166D02*
X8235D01*
X7943D02*
X8009D01*
X7943D02*
X8702Y8308D01*
X8009Y7656D02*
X8166D01*
X8235Y5611D02*
Y7656D01*
X7943Y5611D02*
X8235D01*
X8702Y8308D02*
X9666D01*
X7943Y5547D02*
Y7656D01*
Y5547D02*
X10419D01*
X4471Y3969D02*
X5755D01*
X5756Y3970D01*
Y7966D01*
Y8958D01*
X5755Y8957D02*
X5756Y8958D01*
X4480Y8957D02*
X5755D01*
X4480Y8956D02*
X4480Y8957D01*
X4480Y7973D02*
Y8956D01*
Y7973D02*
X4480Y7973D01*
Y6882D02*
Y7973D01*
Y4684D02*
Y6882D01*
X4480Y4684D02*
X4480Y4684D01*
X4480Y3977D02*
Y4684D01*
X2935Y3969D02*
X4218D01*
X4219Y3970D01*
Y7966D01*
Y8958D01*
X4218Y8957D02*
X4219Y8958D01*
X2943Y8957D02*
X4218D01*
X2943Y8956D02*
X2943Y8957D01*
X2943Y7973D02*
Y8956D01*
Y7973D02*
X2943Y7973D01*
Y6882D02*
Y7973D01*
Y4684D02*
Y6882D01*
X2943Y4684D02*
X2943Y4684D01*
X2943Y3977D02*
Y4684D01*
X8796Y4930D02*
X10136D01*
X8796Y4650D02*
Y4930D01*
Y3760D02*
Y4190D01*
Y3540D02*
X9166D01*
X9406D02*
X10146D01*
X10236Y3710D02*
X10326D01*
Y4630D02*
Y4780D01*
X10236Y4630D02*
X10326D01*
X9708Y7567D02*
Y7465D01*
X9759D01*
X9776Y7482D01*
Y7550D01*
X9759Y7567D01*
X9708D01*
X9809D02*
X9843D01*
X9826D01*
Y7465D01*
X9809D01*
X9843D01*
X9945Y7567D02*
X9911D01*
X9894Y7550D01*
Y7482D01*
X9911Y7465D01*
X9945D01*
X9962Y7482D01*
Y7550D01*
X9945Y7567D01*
X9996Y7550D02*
X10013Y7567D01*
X10046D01*
X10063Y7550D01*
Y7482D01*
X10046Y7465D01*
X10013D01*
X9996Y7482D01*
Y7550D01*
X9708Y7363D02*
Y7262D01*
X9759D01*
X9776Y7279D01*
Y7346D01*
X9759Y7363D01*
X9708D01*
X9809D02*
X9843D01*
X9826D01*
Y7262D01*
X9809D01*
X9843D01*
X9945Y7363D02*
X9911D01*
X9894Y7346D01*
Y7279D01*
X9911Y7262D01*
X9945D01*
X9962Y7279D01*
Y7346D01*
X9945Y7363D01*
X9996Y7262D02*
X10030D01*
X10013D01*
Y7363D01*
X9996Y7346D01*
X9708Y6957D02*
Y6855D01*
X9759D01*
X9776Y6872D01*
Y6940D01*
X9759Y6957D01*
X9708D01*
X9809D02*
X9843D01*
X9826D01*
Y6855D01*
X9809D01*
X9843D01*
X9945Y6957D02*
X9911D01*
X9894Y6940D01*
Y6872D01*
X9911Y6855D01*
X9945D01*
X9962Y6872D01*
Y6940D01*
X9945Y6957D01*
X9996Y6940D02*
X10013Y6957D01*
X10046D01*
X10063Y6940D01*
Y6923D01*
X10046Y6906D01*
X10030D01*
X10046D01*
X10063Y6889D01*
Y6872D01*
X10046Y6855D01*
X10013D01*
X9996Y6872D01*
X9708Y7160D02*
Y7059D01*
X9759D01*
X9776Y7076D01*
Y7143D01*
X9759Y7160D01*
X9708D01*
X9809D02*
X9843D01*
X9826D01*
Y7059D01*
X9809D01*
X9843D01*
X9945Y7160D02*
X9911D01*
X9894Y7143D01*
Y7076D01*
X9911Y7059D01*
X9945D01*
X9962Y7076D01*
Y7143D01*
X9945Y7160D01*
X10063Y7059D02*
X9996D01*
X10063Y7126D01*
Y7143D01*
X10046Y7160D01*
X10013D01*
X9996Y7143D01*
X9708Y6360D02*
Y6292D01*
X9742Y6259D01*
X9776Y6292D01*
Y6360D01*
X9809Y6259D02*
Y6360D01*
X9860D01*
X9877Y6343D01*
Y6309D01*
X9860Y6292D01*
X9809D01*
X9843D02*
X9877Y6259D01*
X9979Y6360D02*
X9911D01*
Y6259D01*
X9979D01*
X9911Y6309D02*
X9945D01*
X10080Y6360D02*
X10013D01*
Y6309D01*
X10046D01*
X10013D01*
Y6259D01*
X9340Y6170D02*
X9306D01*
X9289Y6153D01*
Y6085D01*
X9306Y6068D01*
X9340D01*
X9356Y6085D01*
Y6153D01*
X9340Y6170D01*
X9390Y6068D02*
Y6170D01*
X9458Y6068D01*
Y6170D01*
X9492Y6068D02*
X9560Y6136D01*
X9661Y6153D02*
X9644Y6170D01*
X9610D01*
X9593Y6153D01*
Y6136D01*
X9610Y6119D01*
X9644D01*
X9661Y6102D01*
Y6085D01*
X9644Y6068D01*
X9610D01*
X9593Y6085D01*
X9695Y6170D02*
Y6068D01*
X9763D01*
X9864Y6170D02*
X9797D01*
Y6068D01*
X9864D01*
X9797Y6119D02*
X9830D01*
X9966Y6170D02*
X9898D01*
Y6068D01*
X9966D01*
X9898Y6119D02*
X9932D01*
X10000Y6068D02*
Y6170D01*
X10051D01*
X10067Y6153D01*
Y6119D01*
X10051Y6102D01*
X10000D01*
X9708Y6551D02*
Y6449D01*
X9759D01*
X9776Y6466D01*
Y6534D01*
X9759Y6551D01*
X9708D01*
X9809D02*
X9843D01*
X9826D01*
Y6449D01*
X9809D01*
X9843D01*
X9945Y6551D02*
X9911D01*
X9894Y6534D01*
Y6466D01*
X9911Y6449D01*
X9945D01*
X9962Y6466D01*
Y6534D01*
X9945Y6551D01*
X10063D02*
X9996D01*
Y6500D01*
X10030Y6517D01*
X10046D01*
X10063Y6500D01*
Y6466D01*
X10046Y6449D01*
X10013D01*
X9996Y6466D01*
X9301Y6652D02*
Y6754D01*
X9352D01*
X9369Y6737D01*
Y6703D01*
X9352Y6686D01*
X9301D01*
X9335D02*
X9369Y6652D01*
X9403Y6754D02*
X9471D01*
X9437D01*
Y6652D01*
X9572Y6737D02*
X9555Y6754D01*
X9522D01*
X9505Y6737D01*
Y6720D01*
X9522Y6703D01*
X9555D01*
X9572Y6686D01*
Y6669D01*
X9555Y6652D01*
X9522D01*
X9505Y6669D01*
X9606Y6652D02*
X9674Y6720D01*
X9708Y6754D02*
Y6652D01*
X9759D01*
X9775Y6669D01*
Y6737D01*
X9759Y6754D01*
X9708D01*
X9809D02*
X9843D01*
X9826D01*
Y6652D01*
X9809D01*
X9843D01*
X9945Y6754D02*
X9911D01*
X9894Y6737D01*
Y6669D01*
X9911Y6652D01*
X9945D01*
X9962Y6669D01*
Y6737D01*
X9945Y6754D01*
X10063D02*
X10029Y6737D01*
X9996Y6703D01*
Y6669D01*
X10012Y6652D01*
X10046D01*
X10063Y6669D01*
Y6686D01*
X10046Y6703D01*
X9996D01*
X9369Y5937D02*
X9352Y5954D01*
X9318D01*
X9301Y5937D01*
Y5869D01*
X9318Y5852D01*
X9352D01*
X9369Y5869D01*
X9403Y5954D02*
X9471D01*
X9437D01*
Y5852D01*
X9572Y5937D02*
X9555Y5954D01*
X9522D01*
X9505Y5937D01*
Y5920D01*
X9522Y5903D01*
X9555D01*
X9572Y5886D01*
Y5869D01*
X9555Y5852D01*
X9522D01*
X9505Y5869D01*
X9606Y5852D02*
X9674Y5920D01*
X9708Y5954D02*
Y5852D01*
X9759D01*
X9775Y5869D01*
Y5937D01*
X9759Y5954D01*
X9708D01*
X9809D02*
X9843D01*
X9826D01*
Y5852D01*
X9809D01*
X9843D01*
X9945Y5954D02*
X9911D01*
X9894Y5937D01*
Y5869D01*
X9911Y5852D01*
X9945D01*
X9962Y5869D01*
Y5937D01*
X9945Y5954D01*
X9996D02*
X10063D01*
Y5937D01*
X9996Y5869D01*
Y5852D01*
X9708Y5763D02*
Y5662D01*
X9759D01*
X9776Y5679D01*
Y5746D01*
X9759Y5763D01*
X9708D01*
X9809D02*
X9843D01*
X9826D01*
Y5662D01*
X9809D01*
X9843D01*
X9945Y5763D02*
X9911D01*
X9894Y5746D01*
Y5679D01*
X9911Y5662D01*
X9945D01*
X9962Y5679D01*
Y5746D01*
X9945Y5763D01*
X10046Y5662D02*
Y5763D01*
X9996Y5712D01*
X10063D01*
X8353Y5759D02*
X8336Y5776D01*
X8302D01*
X8285Y5759D01*
Y5691D01*
X8302Y5674D01*
X8336D01*
X8353Y5691D01*
Y5725D01*
X8319D01*
X8387Y5674D02*
Y5776D01*
X8455Y5674D01*
Y5776D01*
X8489D02*
Y5674D01*
X8539D01*
X8556Y5691D01*
Y5759D01*
X8539Y5776D01*
X8489D01*
X8285Y5975D02*
Y5873D01*
X8336D01*
X8353Y5890D01*
Y5958D01*
X8336Y5975D01*
X8285D01*
X8387D02*
X8455D01*
X8421D01*
Y5873D01*
X8489D02*
Y5975D01*
X8539D01*
X8556Y5958D01*
Y5924D01*
X8539Y5907D01*
X8489D01*
X8522D02*
X8556Y5873D01*
X8285Y6669D02*
Y6771D01*
X8336D01*
X8353Y6754D01*
Y6720D01*
X8336Y6703D01*
X8285D01*
X8319D02*
X8353Y6669D01*
X8455Y6771D02*
X8387D01*
Y6669D01*
X8455D01*
X8387Y6720D02*
X8421D01*
X8556Y6754D02*
X8539Y6771D01*
X8506D01*
X8489Y6754D01*
Y6737D01*
X8506Y6720D01*
X8539D01*
X8556Y6703D01*
Y6686D01*
X8539Y6669D01*
X8506D01*
X8489Y6686D01*
X8658Y6771D02*
X8590D01*
Y6669D01*
X8658D01*
X8590Y6720D02*
X8624D01*
X8692Y6771D02*
X8759D01*
X8726D01*
Y6669D01*
X8285Y6470D02*
Y6572D01*
X8336D01*
X8353Y6555D01*
Y6521D01*
X8336Y6504D01*
X8285D01*
X8387Y6572D02*
Y6470D01*
X8421Y6504D01*
X8455Y6470D01*
Y6572D01*
X8489Y6470D02*
Y6572D01*
X8522Y6538D01*
X8556Y6572D01*
Y6470D01*
X8590Y6555D02*
X8607Y6572D01*
X8641D01*
X8658Y6555D01*
Y6487D01*
X8641Y6470D01*
X8607D01*
X8590Y6487D01*
Y6555D01*
X8285Y6072D02*
Y6174D01*
X8336D01*
X8353Y6157D01*
Y6123D01*
X8336Y6106D01*
X8285D01*
X8319D02*
X8353Y6072D01*
X8455Y6174D02*
X8387D01*
Y6072D01*
X8455D01*
X8387Y6123D02*
X8421D01*
X8556Y6157D02*
X8539Y6174D01*
X8506D01*
X8489Y6157D01*
Y6140D01*
X8506Y6123D01*
X8539D01*
X8556Y6106D01*
Y6089D01*
X8539Y6072D01*
X8506D01*
X8489Y6089D01*
X8590Y6174D02*
Y6106D01*
X8624Y6072D01*
X8658Y6106D01*
Y6174D01*
X8285Y6271D02*
Y6373D01*
X8336D01*
X8353Y6356D01*
Y6322D01*
X8336Y6305D01*
X8285D01*
X8387Y6373D02*
Y6271D01*
X8421Y6305D01*
X8455Y6271D01*
Y6373D01*
X8489Y6271D02*
Y6373D01*
X8522Y6339D01*
X8556Y6373D01*
Y6271D01*
X8590D02*
X8624D01*
X8607D01*
Y6373D01*
X8590Y6356D01*
X8285Y7173D02*
Y7071D01*
X8336D01*
X8353Y7088D01*
Y7156D01*
X8336Y7173D01*
X8285D01*
X8387D02*
X8421D01*
X8404D01*
Y7071D01*
X8387D01*
X8421D01*
X8472D02*
Y7173D01*
X8539Y7071D01*
Y7173D01*
X8285Y6970D02*
Y6868D01*
X8336D01*
X8353Y6885D01*
Y6953D01*
X8336Y6970D01*
X8285D01*
X8387Y6868D02*
X8421D01*
X8404D01*
Y6970D01*
X8387Y6953D01*
X8539Y6868D02*
X8472D01*
X8539Y6936D01*
Y6953D01*
X8522Y6970D01*
X8489D01*
X8472Y6953D01*
X8285Y7376D02*
Y7275D01*
X8336D01*
X8353Y7291D01*
Y7359D01*
X8336Y7376D01*
X8285D01*
X8438D02*
X8404D01*
X8387Y7359D01*
Y7291D01*
X8404Y7275D01*
X8438D01*
X8455Y7291D01*
Y7359D01*
X8438Y7376D01*
X8489D02*
Y7291D01*
X8506Y7275D01*
X8539D01*
X8556Y7291D01*
Y7376D01*
X8590D02*
X8658D01*
X8624D01*
Y7275D01*
X8285Y7579D02*
Y7512D01*
X8319Y7478D01*
X8353Y7512D01*
Y7579D01*
X8455Y7562D02*
X8438Y7579D01*
X8404D01*
X8387Y7562D01*
Y7495D01*
X8404Y7478D01*
X8438D01*
X8455Y7495D01*
X8556Y7562D02*
X8539Y7579D01*
X8506D01*
X8489Y7562D01*
Y7495D01*
X8506Y7478D01*
X8539D01*
X8556Y7495D01*
X8059Y8547D02*
X8179D01*
Y8607D01*
X8159Y8627D01*
X8079D01*
X8059Y8607D01*
Y8547D01*
Y8667D02*
X8179D01*
Y8747D01*
X8059Y8867D02*
Y8787D01*
X8119D01*
X8099Y8827D01*
Y8847D01*
X8119Y8867D01*
X8159D01*
X8179Y8847D01*
Y8807D01*
X8159Y8787D01*
X5537Y2680D02*
X5387D01*
Y2755D01*
X5412Y2780D01*
X5462D01*
X5487Y2755D01*
Y2680D01*
Y2730D02*
X5537Y2780D01*
X5437Y2830D02*
X5537Y2930D01*
X5487Y2880D01*
X5437Y2930D01*
X5537Y2830D01*
X4879Y2667D02*
Y2767D01*
Y2717D01*
X5029D01*
X4929Y2817D02*
X5029Y2917D01*
X4979Y2867D01*
X4929Y2917D01*
X5029Y2817D01*
X5933Y2767D02*
X5908Y2742D01*
Y2692D01*
X5933Y2667D01*
X6033D01*
X6058Y2692D01*
Y2742D01*
X6033Y2767D01*
X5983D01*
Y2717D01*
X6058Y2817D02*
X5908D01*
X6058Y2917D01*
X5908D01*
Y2967D02*
X6058D01*
Y3042D01*
X6033Y3067D01*
X5933D01*
X5908Y3042D01*
Y2967D01*
X6045Y3315D02*
Y3415D01*
Y3465D02*
Y3565D01*
Y3615D02*
Y3715D01*
X6429Y5271D02*
X6579D01*
Y5345D01*
X6554Y5370D01*
X6454D01*
X6429Y5345D01*
Y5271D01*
Y5420D02*
X6579D01*
Y5520D01*
X6454Y5570D02*
X6429Y5595D01*
Y5645D01*
X6454Y5670D01*
X6479D01*
X6504Y5645D01*
Y5620D01*
Y5645D01*
X6529Y5670D01*
X6554D01*
X6579Y5645D01*
Y5595D01*
X6554Y5570D01*
X7089Y5855D02*
X7239D01*
Y5930D01*
X7214Y5955D01*
X7114D01*
X7089Y5930D01*
Y5855D01*
Y6005D02*
X7239D01*
Y6105D01*
Y6230D02*
X7089D01*
X7164Y6155D01*
Y6255D01*
X3595Y9262D02*
X3745D01*
Y9337D01*
X3720Y9362D01*
X3620D01*
X3595Y9337D01*
Y9262D01*
Y9412D02*
X3745D01*
Y9512D01*
Y9562D02*
Y9612D01*
Y9587D01*
X3595D01*
X3620Y9562D01*
X2693Y9262D02*
X2843D01*
Y9337D01*
X2818Y9362D01*
X2718D01*
X2693Y9337D01*
Y9262D01*
Y9412D02*
X2843D01*
Y9512D01*
Y9662D02*
Y9562D01*
X2743Y9662D01*
X2718D01*
X2693Y9637D01*
Y9587D01*
X2718Y9562D01*
X10138Y8458D02*
Y8591D01*
Y8525D01*
X10338D01*
X10138Y8791D02*
Y8658D01*
X10338D01*
Y8791D01*
X10238Y8658D02*
Y8725D01*
X10338Y8858D02*
X10205D01*
X10138Y8925D01*
X10205Y8991D01*
X10338D01*
X10238D01*
Y8858D01*
X10338Y9058D02*
X10138D01*
X10205Y9125D01*
X10138Y9191D01*
X10338D01*
X10238Y9258D02*
Y9391D01*
X10171Y9458D02*
X10138Y9491D01*
Y9558D01*
X10171Y9591D01*
X10304D01*
X10338Y9558D01*
Y9491D01*
X10304Y9458D01*
X10171D01*
Y9658D02*
X10138Y9691D01*
Y9758D01*
X10171Y9791D01*
X10205D01*
X10238Y9758D01*
Y9724D01*
Y9758D01*
X10271Y9791D01*
X10304D01*
X10338Y9758D01*
Y9691D01*
X10304Y9658D01*
X9820Y8566D02*
Y8433D01*
X10020D01*
Y8566D01*
X9920Y8433D02*
Y8499D01*
X9820Y8633D02*
X10020D01*
Y8766D01*
X9820Y8966D02*
Y8833D01*
X10020D01*
Y8966D01*
X9920Y8833D02*
Y8899D01*
X9854Y9166D02*
X9820Y9133D01*
Y9066D01*
X9854Y9033D01*
X9987D01*
X10020Y9066D01*
Y9133D01*
X9987Y9166D01*
X9820Y9366D02*
Y9233D01*
X9920D01*
X9887Y9299D01*
Y9333D01*
X9920Y9366D01*
X9987D01*
X10020Y9333D01*
Y9266D01*
X9987Y9233D01*
X9820Y9566D02*
Y9432D01*
X9920D01*
X9887Y9499D01*
Y9532D01*
X9920Y9566D01*
X9987D01*
X10020Y9532D01*
Y9466D01*
X9987Y9432D01*
X9820Y9766D02*
Y9632D01*
X9920D01*
X9887Y9699D01*
Y9732D01*
X9920Y9766D01*
X9987D01*
X10020Y9732D01*
Y9666D01*
X9987Y9632D01*
X10020Y9832D02*
Y9899D01*
Y9866D01*
X9820D01*
X9854Y9832D01*
X8537Y2784D02*
X8512Y2759D01*
Y2709D01*
X8537Y2684D01*
X8637D01*
X8662Y2709D01*
Y2759D01*
X8637Y2784D01*
X8587D01*
Y2734D01*
X8662Y2834D02*
X8512D01*
X8662Y2934D01*
X8512D01*
Y2983D02*
X8662D01*
Y3058D01*
X8637Y3083D01*
X8537D01*
X8512Y3058D01*
Y2983D01*
X4266Y6890D02*
Y6992D01*
Y6941D01*
X4418D01*
X4291Y7144D02*
X4266Y7119D01*
Y7068D01*
X4291Y7042D01*
X4317D01*
X4342Y7068D01*
Y7119D01*
X4368Y7144D01*
X4393D01*
X4418Y7119D01*
Y7068D01*
X4393Y7042D01*
X4418Y7195D02*
Y7245D01*
Y7220D01*
X4266D01*
X4291Y7195D01*
X4259Y5399D02*
Y5500D01*
Y5449D01*
X4411D01*
X4284Y5653D02*
X4259Y5627D01*
Y5576D01*
X4284Y5551D01*
X4310D01*
X4335Y5576D01*
Y5627D01*
X4360Y5653D01*
X4386D01*
X4411Y5627D01*
Y5576D01*
X4386Y5551D01*
X4411Y5805D02*
Y5703D01*
X4310Y5805D01*
X4284D01*
X4259Y5779D01*
Y5729D01*
X4284Y5703D01*
X6540Y2642D02*
Y2792D01*
X6615D01*
X6640Y2767D01*
Y2717D01*
X6615Y2692D01*
X6540D01*
X6590D02*
X6640Y2642D01*
X6790Y2767D02*
X6765Y2792D01*
X6715D01*
X6690Y2767D01*
Y2742D01*
X6715Y2717D01*
X6765D01*
X6790Y2692D01*
Y2667D01*
X6765Y2642D01*
X6715D01*
X6690Y2667D01*
X6915Y2642D02*
Y2792D01*
X6840Y2717D01*
X6940D01*
X6990Y2767D02*
X7015Y2792D01*
X7065D01*
X7090Y2767D01*
Y2742D01*
X7065Y2717D01*
X7090Y2692D01*
Y2667D01*
X7065Y2642D01*
X7015D01*
X6990Y2667D01*
Y2692D01*
X7015Y2717D01*
X6990Y2742D01*
Y2767D01*
X7015Y2717D02*
X7065D01*
X7240Y2792D02*
X7140D01*
Y2717D01*
X7190Y2742D01*
X7215D01*
X7240Y2717D01*
Y2667D01*
X7215Y2642D01*
X7165D01*
X7140Y2667D01*
X7290Y2717D02*
X7390D01*
X7440Y2642D02*
X7515Y2717D01*
X7440Y2792D01*
X6577Y2870D02*
X6502Y2945D01*
X6577Y3020D01*
X6652Y2945D02*
X6752D01*
X6802Y2870D02*
Y3020D01*
X6877D01*
X6902Y2995D01*
Y2945D01*
X6877Y2920D01*
X6802D01*
X6852D02*
X6902Y2870D01*
X7052Y2995D02*
X7027Y3020D01*
X6977D01*
X6952Y2995D01*
Y2970D01*
X6977Y2945D01*
X7027D01*
X7052Y2920D01*
Y2895D01*
X7027Y2870D01*
X6977D01*
X6952Y2895D01*
X7202Y2870D02*
X7102D01*
X7202Y2970D01*
Y2995D01*
X7177Y3020D01*
X7127D01*
X7102Y2995D01*
X7252D02*
X7277Y3020D01*
X7327D01*
X7352Y2995D01*
Y2970D01*
X7327Y2945D01*
X7302D01*
X7327D01*
X7352Y2920D01*
Y2895D01*
X7327Y2870D01*
X7277D01*
X7252Y2895D01*
X7502Y2870D02*
X7402D01*
X7502Y2970D01*
Y2995D01*
X7477Y3020D01*
X7427D01*
X7402Y2995D01*
X7633Y2743D02*
Y2845D01*
X7582Y2794D02*
X7683D01*
X8090Y2756D02*
Y2857D01*
X7861Y8776D02*
X7709D01*
Y8852D01*
X7734Y8877D01*
X7785D01*
X7811Y8852D01*
Y8776D01*
X7709Y8928D02*
Y9030D01*
Y8979D01*
X7861D01*
X6312Y8369D02*
Y8522D01*
X6388D01*
X6413Y8496D01*
Y8445D01*
X6388Y8420D01*
X6312D01*
X6464Y8522D02*
X6566D01*
X6515D01*
Y8369D01*
D14*
X7612Y5130D02*
G03*
X7612Y5130I-33J0D01*
G01*
X7031Y4101D02*
G03*
X7031Y4101I-51J0D01*
G01*
D15*
X3889Y2709D02*
X3959D01*
X3889Y2879D02*
X3959D01*
X3295Y3369D02*
X3365D01*
X3295Y3539D02*
X3365D01*
X4425Y3578D02*
X4495D01*
X4425Y3408D02*
X4495D01*
X3719Y3083D02*
Y3118D01*
Y3358D02*
Y3394D01*
X4129Y3083D02*
Y3118D01*
Y3358D02*
Y3394D01*
X3719Y3083D02*
X3747D01*
X4102D02*
X4129D01*
X3719Y3394D02*
X3747D01*
X4102D02*
X4129D01*
X7840Y3670D02*
Y3850D01*
X8340Y3670D02*
Y3850D01*
X7840Y3670D02*
X8340D01*
X7840Y3850D02*
X8340D01*
X7588Y5438D02*
Y5518D01*
X7488Y5438D02*
X7588D01*
Y5658D02*
Y5738D01*
X7488D02*
X7588D01*
X8264Y4689D02*
Y4759D01*
X8094Y4689D02*
Y4759D01*
X7959Y4689D02*
Y4759D01*
X7789Y4689D02*
Y4759D01*
X7194Y9179D02*
Y9489D01*
Y9179D02*
X7284D01*
Y9489D01*
X7194D02*
X7284D01*
X7718Y8029D02*
Y8100D01*
X7548Y8029D02*
Y8100D01*
X7134Y8029D02*
Y8100D01*
X7394Y8029D02*
Y8100D01*
X7057Y9072D02*
X7497D01*
X7057Y8632D02*
X7497D01*
X7057Y9012D02*
Y9072D01*
X7497Y9012D02*
Y9072D01*
X7057Y8632D02*
Y8692D01*
X7497Y8632D02*
Y8692D01*
X6181Y8632D02*
X6621D01*
X6181Y9072D02*
X6621D01*
Y8632D02*
Y8692D01*
X6181Y8632D02*
Y8692D01*
X6621Y9012D02*
Y9072D01*
X6181Y9012D02*
Y9072D01*
X6470Y9167D02*
X6560D01*
X6470D02*
Y9477D01*
X6560D01*
Y9167D02*
Y9477D01*
D16*
X6321Y5418D02*
X6367D01*
X6275D02*
X6321D01*
X6345Y5388D01*
X6299D02*
X6319Y5417D01*
D17*
X7694Y3352D02*
Y4952D01*
X6094Y3352D02*
Y4952D01*
X6294Y3352D02*
X7496D01*
X6094D02*
X6144D01*
X7645D02*
X7694D01*
Y4952D01*
X6094Y3352D02*
X7694D01*
X6094D02*
Y4952D01*
X7694D01*
D18*
X8729Y8036D02*
X8899Y7783D01*
X8898Y8037D02*
X8730Y7783D01*
X8983Y8038D02*
X8984Y7784D01*
X9111Y7784D01*
X9153Y7827D01*
X9153Y7869D01*
X9153Y7912D01*
X9110Y7954D01*
X8983Y7953D01*
X9365Y7786D02*
X9280Y7785D01*
X9238Y7827D01*
X9237Y7912D01*
X9279Y7955D01*
X9364Y7955D01*
X9406Y7913D01*
X9407Y7871D01*
X9237Y7870D01*
X9619Y7787D02*
X9534Y7787D01*
X9492Y7829D01*
X9491Y7913D01*
X9533Y7956D01*
X9618Y7956D01*
X9660Y7914D01*
X9661Y7872D01*
X9491Y7871D01*
D19*
X6269Y6536D02*
X7094D01*
X6269D02*
Y7361D01*
X7094D01*
Y6536D02*
Y7361D01*
X7045Y9765D02*
X7395D01*
X7045Y9565D02*
X7395D01*
X7045D02*
Y9765D01*
X7395Y9565D02*
Y9765D01*
X7458Y9549D02*
X7808D01*
X7458Y9349D02*
X7808D01*
X7458D02*
Y9549D01*
X7808Y9349D02*
Y9549D01*
X6353Y9539D02*
X6703D01*
X6353Y9739D02*
X6703D01*
Y9539D02*
Y9739D01*
X6353Y9539D02*
Y9739D01*
X6085Y9147D02*
Y9497D01*
X6285Y9147D02*
Y9497D01*
X6085Y9147D02*
X6285D01*
X6085Y9497D02*
X6285D01*
X6138Y8026D02*
G03*
X6138Y8026I-17J0D01*
G01*
X4064Y3511D02*
Y3651D01*
X3809Y3511D02*
Y3651D01*
Y3511D02*
X4064D01*
X3809Y3651D02*
X4064D01*
X3649Y2649D02*
X4199D01*
X3649Y2939D02*
X4199D01*
Y2649D02*
Y2939D01*
X3649Y2649D02*
Y2939D01*
X3175Y3254D02*
X3605D01*
X3175Y2994D02*
X3605D01*
X3175D02*
Y3254D01*
X3605Y2994D02*
Y3254D01*
X3055Y3309D02*
X3605D01*
X3055Y3599D02*
X3605D01*
Y3309D02*
Y3599D01*
X3055Y3309D02*
Y3599D01*
X4185Y3638D02*
X4735D01*
X4185Y3347D02*
X4735D01*
X4185D02*
Y3638D01*
X4735Y3347D02*
Y3638D01*
X3709Y3049D02*
Y3428D01*
X4139Y3049D02*
Y3428D01*
X3709Y3049D02*
X4139D01*
X3709Y3428D02*
X4139D01*
X9687Y3361D02*
X9897D01*
X9687Y3031D02*
X9897D01*
Y3361D01*
X9687Y3031D02*
Y3361D01*
X8975D02*
X9186D01*
X8975Y3031D02*
X9186D01*
Y3361D01*
X8975Y3031D02*
Y3361D01*
X9445D02*
X9655D01*
X9445Y3031D02*
X9655D01*
Y3361D01*
X9445Y3031D02*
Y3361D01*
X9204Y3357D02*
X9414D01*
X9204Y3027D02*
X9414D01*
Y3357D01*
X9204Y3027D02*
Y3357D01*
X8246Y3305D02*
X8421D01*
X8246Y3225D02*
X8421D01*
X8246D02*
Y3305D01*
X8421Y3225D02*
Y3305D01*
X7960Y3190D02*
Y3340D01*
X8220Y3190D02*
Y3340D01*
X7960D02*
X8220D01*
X7960Y3190D02*
X8220D01*
X7764Y3305D02*
X7939D01*
X7764Y3225D02*
X7939D01*
X7764D02*
Y3305D01*
X7939Y3225D02*
Y3305D01*
X6109Y5271D02*
Y5481D01*
X6229Y5271D02*
Y5481D01*
X6109Y5271D02*
X6229D01*
X6109Y5481D02*
X6229D01*
X2907Y9462D02*
X3027D01*
X2907Y9252D02*
X3027D01*
Y9462D01*
X2907Y9252D02*
Y9462D01*
X3057Y9233D02*
X3207D01*
X3057Y9533D02*
X3207D01*
X3057Y9233D02*
Y9533D01*
X3207Y9233D02*
Y9533D01*
X7419Y5847D02*
X7569D01*
X7419Y6147D02*
X7569D01*
X7419Y5847D02*
Y6147D01*
X7569Y5847D02*
Y6147D01*
X7282Y6076D02*
X7402D01*
X7282Y5866D02*
X7402D01*
Y6076D01*
X7282Y5866D02*
Y6076D01*
X7815Y3385D02*
Y4135D01*
X8365Y3385D02*
Y4135D01*
X7815Y3385D02*
X8365D01*
X7815Y4135D02*
X8365D01*
X3227Y9234D02*
X3377D01*
X3227Y9534D02*
X3377D01*
X3227Y9234D02*
Y9534D01*
X3377Y9234D02*
Y9534D01*
X3406Y9456D02*
X3526D01*
X3406Y9246D02*
X3526D01*
Y9456D01*
X3406Y9246D02*
Y9456D01*
X8248Y8300D02*
X8338D01*
X8248Y8480D02*
X8338D01*
X8248Y8300D02*
Y8480D01*
X8338Y8300D02*
Y8480D01*
X8058Y8215D02*
X8198D01*
X8058D02*
Y8495D01*
X8198Y8215D02*
Y8495D01*
X8058D02*
X8198D01*
X7361Y5428D02*
X7676D01*
X7361Y5748D02*
X7676D01*
Y5428D02*
Y5748D01*
X7361Y5428D02*
Y5748D01*
X6076Y7888D02*
X6166D01*
X6076Y7708D02*
X6166D01*
Y7888D01*
X6076Y7708D02*
Y7888D01*
X6077Y8116D02*
X6165D01*
Y7936D02*
Y8116D01*
X6077Y7936D02*
X6165D01*
X6077D02*
Y8116D01*
X6121Y8004D02*
Y8048D01*
X6099Y8026D02*
X6143D01*
X7072Y5151D02*
Y5390D01*
Y5390D02*
X7507D01*
X7072Y5151D02*
X7507D01*
X7507Y5151D02*
Y5390D01*
X8324Y4449D02*
Y4999D01*
X8034Y4449D02*
Y4999D01*
X8324D01*
X8034Y4449D02*
X8324D01*
X8019D02*
Y4999D01*
X7729Y4449D02*
Y4999D01*
X8019D01*
X7729Y4449D02*
X8019D01*
X7074Y9169D02*
X7404D01*
X7074Y9500D02*
X7404D01*
Y9169D02*
Y9500D01*
X7074Y9169D02*
Y9500D01*
X6513Y7454D02*
Y7634D01*
X6213Y7454D02*
Y7634D01*
Y7454D02*
X6513D01*
X6213Y7634D02*
X6513D01*
X7488Y8339D02*
X7778D01*
X7488Y7789D02*
X7778D01*
Y8339D01*
X7488Y7789D02*
Y8339D01*
X7074Y7789D02*
Y8339D01*
X7454Y7789D02*
Y8339D01*
X7074Y7789D02*
X7454D01*
X7074Y8339D02*
X7454D01*
X7123Y6778D02*
X7278D01*
X7123Y7048D02*
X7278D01*
X7123Y6778D02*
Y7048D01*
X7278Y6778D02*
Y7048D01*
X7558Y6970D02*
Y7050D01*
X7399Y6970D02*
Y7050D01*
Y6970D02*
X7558D01*
X7399Y7050D02*
X7558D01*
X7411Y6285D02*
Y6365D01*
X7571Y6285D02*
Y6365D01*
X7411D02*
X7571D01*
X7411Y6285D02*
X7571D01*
X7827Y7853D02*
Y8123D01*
X7997Y7853D02*
Y8123D01*
X7827Y7853D02*
X7997D01*
X7827Y8123D02*
X7997D01*
X7395Y9565D02*
Y9765D01*
X7045Y9565D02*
Y9765D01*
Y9565D02*
X7395D01*
X7045Y9765D02*
X7395D01*
X7808Y9349D02*
Y9549D01*
X7458Y9349D02*
Y9549D01*
Y9349D02*
X7808D01*
X7458Y9549D02*
X7808D01*
X6353Y9539D02*
Y9739D01*
X6703Y9539D02*
Y9739D01*
X6353D02*
X6703D01*
X6353Y9539D02*
X6703D01*
X6085Y9497D02*
X6285D01*
X6085Y9147D02*
X6285D01*
Y9497D01*
X6085Y9147D02*
Y9497D01*
X6680Y9157D02*
Y9487D01*
X6350Y9157D02*
Y9487D01*
Y9157D02*
X6680D01*
X6350Y9487D02*
X6680D01*
D20*
X6093Y8079D02*
X6149D01*
Y7973D02*
Y8079D01*
X6093Y7973D02*
X6149D01*
X6093D02*
Y8079D01*
D21*
X7347Y9631D02*
X7330Y9614D01*
X7296D01*
X7279Y9631D01*
Y9648D01*
X7296Y9665D01*
X7313D01*
X7296D01*
X7279Y9682D01*
Y9699D01*
X7296Y9715D01*
X7330D01*
X7347Y9699D01*
X7245Y9715D02*
Y9699D01*
X7229D01*
Y9715D01*
X7245D01*
X7161Y9631D02*
X7144Y9614D01*
X7110D01*
X7093Y9631D01*
Y9648D01*
X7110Y9665D01*
X7127D01*
X7110D01*
X7093Y9682D01*
Y9699D01*
X7110Y9715D01*
X7144D01*
X7161Y9699D01*
X7059Y9614D02*
Y9682D01*
X7025Y9715D01*
X6992Y9682D01*
Y9614D01*
X6958Y9732D02*
X6890D01*
X6788Y9631D02*
X6805Y9614D01*
X6839D01*
X6856Y9631D01*
Y9699D01*
X6839Y9715D01*
X6805D01*
X6788Y9699D01*
X6755Y9614D02*
X6721D01*
X6738D01*
Y9715D01*
X6755D01*
X6721D01*
X6602D02*
X6670D01*
X6602Y9648D01*
Y9631D01*
X6619Y9614D01*
X6653D01*
X6670Y9631D01*
X7760Y9415D02*
X7743Y9398D01*
X7709D01*
X7692Y9415D01*
Y9432D01*
X7709Y9449D01*
X7726D01*
X7709D01*
X7692Y9466D01*
Y9483D01*
X7709Y9500D01*
X7743D01*
X7760Y9483D01*
X7658Y9500D02*
Y9483D01*
X7641D01*
Y9500D01*
X7658D01*
X7573Y9415D02*
X7557Y9398D01*
X7523D01*
X7506Y9415D01*
Y9432D01*
X7523Y9449D01*
X7540D01*
X7523D01*
X7506Y9466D01*
Y9483D01*
X7523Y9500D01*
X7557D01*
X7573Y9483D01*
X7472Y9398D02*
Y9466D01*
X7438Y9500D01*
X7404Y9466D01*
Y9398D01*
X7370Y9517D02*
X7303D01*
X7201Y9415D02*
X7218Y9398D01*
X7252D01*
X7269Y9415D01*
Y9483D01*
X7252Y9500D01*
X7218D01*
X7201Y9483D01*
X7167Y9398D02*
Y9500D01*
X7100D01*
X6998D02*
X7066D01*
X6998Y9432D01*
Y9415D01*
X7015Y9398D01*
X7049D01*
X7066Y9415D01*
X6401Y9673D02*
X6418Y9690D01*
X6452D01*
X6469Y9673D01*
Y9656D01*
X6452Y9639D01*
X6435D01*
X6452D01*
X6469Y9622D01*
Y9605D01*
X6452Y9589D01*
X6418D01*
X6401Y9605D01*
X6502Y9589D02*
Y9605D01*
X6519D01*
Y9589D01*
X6502D01*
X6587Y9673D02*
X6604Y9690D01*
X6638D01*
X6655Y9673D01*
Y9656D01*
X6638Y9639D01*
X6621D01*
X6638D01*
X6655Y9622D01*
Y9605D01*
X6638Y9589D01*
X6604D01*
X6587Y9605D01*
X6689Y9690D02*
Y9622D01*
X6722Y9589D01*
X6756Y9622D01*
Y9690D01*
X6790Y9572D02*
X6858D01*
X6959Y9673D02*
X6942Y9690D01*
X6909D01*
X6892Y9673D01*
Y9605D01*
X6909Y9589D01*
X6942D01*
X6959Y9605D01*
X6993Y9690D02*
X7027D01*
X7010D01*
Y9589D01*
X6993D01*
X7027D01*
X7078D02*
X7112D01*
X7095D01*
Y9690D01*
X7078Y9673D01*
X6219Y9449D02*
X6236Y9432D01*
Y9398D01*
X6219Y9381D01*
X6202D01*
X6185Y9398D01*
Y9415D01*
Y9398D01*
X6168Y9381D01*
X6151D01*
X6134Y9398D01*
Y9432D01*
X6151Y9449D01*
X6134Y9347D02*
X6151D01*
Y9330D01*
X6134D01*
Y9347D01*
X6219Y9263D02*
X6236Y9246D01*
Y9212D01*
X6219Y9195D01*
X6202D01*
X6185Y9212D01*
Y9229D01*
Y9212D01*
X6168Y9195D01*
X6151D01*
X6134Y9212D01*
Y9246D01*
X6151Y9263D01*
X6236Y9161D02*
X6168D01*
X6134Y9127D01*
X6168Y9093D01*
X6236D01*
X6117Y9059D02*
Y8992D01*
X6219Y8890D02*
X6236Y8907D01*
Y8941D01*
X6219Y8958D01*
X6151D01*
X6134Y8941D01*
Y8907D01*
X6151Y8890D01*
X6236Y8856D02*
X6134D01*
Y8789D01*
Y8755D02*
Y8721D01*
Y8738D01*
X6236D01*
X6219Y8755D01*
D22*
X6096Y8076D02*
X6146D01*
Y7976D02*
Y8076D01*
X6096Y7976D02*
X6146D01*
X6096D02*
Y8076D01*
Y8046D02*
X6146D01*
X6096D02*
Y8076D01*
X6146D01*
Y8046D02*
Y8076D01*
X6096Y8006D02*
X6146D01*
Y7976D02*
Y8006D01*
X6096Y7976D02*
X6146D01*
X6096D02*
Y8006D01*
D23*
X7091Y8852D02*
D03*
X6587Y8852D02*
D03*
M02*
