G04*
G04 #@! TF.GenerationSoftware,Altium Limited,CircuitMaker,2.2.1 (2.2.1.6)*
G04*
G04 Layer_Color=128*
%FSLAX42Y42*%
%MOMM*%
G71*
G04*
G04 #@! TF.SameCoordinates,594ED0CD-E859-4A23-B6EA-3589AB250A5C*
G04*
G04*
G04 #@! TF.FilePolarity,Positive*
G04*
G01*
G75*
%ADD10C,0.10*%
%ADD14C,0.81*%
%ADD17C,0.13*%
%ADD19C,0.05*%
%ADD20C,0.12*%
%ADD21C,0.18*%
%ADD22C,0.03*%
%ADD23R,0.58X4.31*%
%ADD137C,0.05*%
G36*
X6122Y8037D02*
X6122Y8037D01*
Y8036D01*
X6122Y8036D01*
X6122Y8035D01*
X6122Y8035D01*
X6122Y8034D01*
X6122Y8034D01*
Y8034D01*
X6122Y8034D01*
X6122Y8034D01*
X6122Y8034D01*
X6122Y8033D01*
X6121Y8033D01*
X6121Y8033D01*
X6121Y8032D01*
X6120Y8032D01*
X6120Y8032D01*
X6120Y8032D01*
X6120Y8032D01*
X6120Y8032D01*
X6119Y8032D01*
X6119Y8032D01*
X6119Y8032D01*
X6118Y8032D01*
X6118D01*
X6118D01*
X6118D01*
X6118Y8032D01*
X6118D01*
X6117Y8032D01*
X6117Y8032D01*
X6117Y8032D01*
X6116Y8032D01*
X6116Y8032D01*
X6115Y8032D01*
X6115Y8033D01*
X6115Y8033D01*
X6115Y8033D01*
X6115Y8033D01*
X6115Y8033D01*
X6115Y8033D01*
X6115Y8033D01*
X6115Y8033D01*
X6114Y8034D01*
X6114Y8034D01*
X6114Y8034D01*
X6114Y8035D01*
X6114Y8035D01*
X6114Y8035D01*
X6114Y8036D01*
X6114Y8036D01*
X6114Y8036D01*
X6114Y8036D01*
X6114Y8036D01*
X6113Y8036D01*
X6113Y8035D01*
X6113Y8035D01*
X6113Y8035D01*
X6113Y8035D01*
X6113Y8035D01*
X6113Y8034D01*
X6112Y8034D01*
X6112Y8034D01*
X6112Y8034D01*
X6111Y8033D01*
X6111Y8033D01*
X6106Y8030D01*
Y8033D01*
X6110Y8035D01*
X6110D01*
X6110Y8035D01*
X6110Y8035D01*
X6110Y8035D01*
X6110Y8035D01*
X6111Y8036D01*
X6111Y8036D01*
X6111Y8036D01*
X6112Y8036D01*
X6112Y8037D01*
X6112Y8037D01*
X6112Y8037D01*
X6112Y8037D01*
X6112Y8037D01*
X6113Y8037D01*
X6113Y8037D01*
X6113Y8038D01*
X6113Y8038D01*
X6113Y8038D01*
X6113Y8038D01*
X6113Y8038D01*
X6113Y8038D01*
X6113Y8039D01*
Y8039D01*
X6113Y8039D01*
Y8039D01*
X6113Y8039D01*
Y8039D01*
X6114Y8039D01*
Y8042D01*
X6106D01*
Y8044D01*
X6122D01*
Y8037D01*
D02*
G37*
G36*
X6118Y8027D02*
X6118Y8027D01*
X6119Y8027D01*
X6119Y8027D01*
X6119Y8027D01*
X6119Y8027D01*
X6119Y8027D01*
X6119Y8026D01*
X6120Y8026D01*
X6120Y8025D01*
X6120Y8025D01*
X6120Y8025D01*
X6120Y8025D01*
X6121Y8024D01*
X6121Y8024D01*
X6121Y8024D01*
X6121Y8024D01*
X6122Y8023D01*
X6122Y8023D01*
X6123Y8023D01*
Y8022D01*
X6106D01*
Y8024D01*
X6119D01*
X6119Y8024D01*
X6119Y8024D01*
X6119Y8024D01*
X6119Y8024D01*
X6118Y8024D01*
X6118Y8025D01*
X6118Y8025D01*
X6118Y8025D01*
X6118Y8025D01*
X6117Y8026D01*
X6117Y8026D01*
X6117Y8026D01*
X6117Y8026D01*
X6117Y8027D01*
X6117Y8027D01*
X6117Y8027D01*
X6118D01*
Y8027D01*
D02*
G37*
G36*
X6103Y8005D02*
X6102D01*
Y8018D01*
X6103D01*
Y8005D01*
D02*
G37*
G36*
X6122Y7992D02*
X6121D01*
Y8001D01*
X6116D01*
Y7994D01*
X6114D01*
Y8001D01*
X6106D01*
Y8003D01*
X6122D01*
Y7992D01*
D02*
G37*
G36*
X6115Y7990D02*
X6115D01*
X6115Y7990D01*
X6115Y7990D01*
X6116Y7990D01*
X6116Y7990D01*
X6117Y7990D01*
X6118Y7990D01*
X6119Y7989D01*
X6119D01*
X6119Y7989D01*
X6119Y7989D01*
X6119Y7989D01*
X6119Y7989D01*
X6119Y7989D01*
X6120Y7988D01*
X6120Y7988D01*
X6121Y7988D01*
X6121Y7987D01*
X6122Y7986D01*
Y7986D01*
X6122Y7986D01*
X6122Y7986D01*
X6122Y7986D01*
X6122Y7986D01*
X6122Y7986D01*
X6122Y7985D01*
X6122Y7985D01*
X6122Y7985D01*
X6122Y7985D01*
X6123Y7984D01*
X6123Y7983D01*
X6123Y7982D01*
Y7982D01*
X6123Y7982D01*
Y7982D01*
X6123Y7981D01*
X6123Y7981D01*
X6122Y7980D01*
X6122Y7980D01*
X6122Y7979D01*
Y7979D01*
X6122Y7979D01*
X6122Y7979D01*
X6122Y7979D01*
X6122Y7979D01*
X6122Y7978D01*
X6121Y7978D01*
X6121Y7978D01*
X6121Y7977D01*
X6121Y7977D01*
X6121Y7977D01*
X6120Y7977D01*
X6120Y7977D01*
X6120Y7976D01*
X6119Y7976D01*
X6119Y7976D01*
X6119Y7976D01*
X6118Y7976D01*
X6117Y7978D01*
X6117D01*
X6117Y7978D01*
X6118Y7978D01*
X6118Y7978D01*
X6118Y7978D01*
X6118Y7978D01*
X6119Y7978D01*
X6119Y7978D01*
X6119Y7978D01*
X6119Y7978D01*
X6119Y7979D01*
X6120Y7979D01*
X6120Y7979D01*
X6120Y7979D01*
X6120Y7979D01*
X6120Y7980D01*
X6120Y7980D01*
X6121Y7980D01*
X6121Y7980D01*
X6121Y7980D01*
X6121Y7981D01*
X6121Y7981D01*
X6121Y7981D01*
X6121Y7982D01*
X6121Y7982D01*
Y7982D01*
X6121Y7983D01*
X6121Y7983D01*
X6121Y7983D01*
X6121Y7984D01*
X6121Y7984D01*
X6120Y7985D01*
X6120Y7985D01*
X6120Y7985D01*
X6120Y7985D01*
X6120Y7985D01*
X6120Y7986D01*
X6120Y7986D01*
X6120Y7986D01*
X6119Y7986D01*
X6119Y7986D01*
X6119Y7986D01*
X6119Y7987D01*
X6119Y7987D01*
X6119Y7987D01*
X6118Y7987D01*
X6118Y7987D01*
X6118Y7987D01*
X6118D01*
X6118Y7987D01*
X6118Y7987D01*
X6117Y7987D01*
X6117Y7988D01*
X6117Y7988D01*
X6117Y7988D01*
X6116Y7988D01*
X6116Y7988D01*
X6115Y7988D01*
X6114Y7988D01*
X6114D01*
X6114D01*
X6114D01*
X6114D01*
X6114Y7988D01*
X6114Y7988D01*
X6113Y7988D01*
X6113Y7988D01*
X6112Y7988D01*
X6111Y7987D01*
X6111Y7987D01*
X6111D01*
X6111Y7987D01*
X6111Y7987D01*
X6111Y7987D01*
X6110Y7987D01*
X6110Y7987D01*
X6110Y7986D01*
X6109Y7986D01*
X6109Y7986D01*
X6109Y7985D01*
Y7985D01*
X6109Y7985D01*
X6109Y7985D01*
X6109Y7985D01*
X6109Y7985D01*
X6108Y7985D01*
X6108Y7984D01*
X6108Y7984D01*
X6108Y7983D01*
X6108Y7983D01*
X6108Y7982D01*
Y7982D01*
X6108Y7982D01*
X6108Y7981D01*
X6108Y7981D01*
X6108Y7980D01*
X6108Y7980D01*
X6109Y7979D01*
Y7979D01*
X6109Y7979D01*
X6109Y7979D01*
X6109Y7979D01*
X6109Y7979D01*
X6109Y7978D01*
X6109Y7978D01*
X6109Y7978D01*
X6110Y7977D01*
X6113D01*
Y7982D01*
X6115D01*
Y7975D01*
X6109D01*
X6109Y7975D01*
X6109Y7975D01*
X6108Y7976D01*
X6108Y7976D01*
X6108Y7976D01*
X6108Y7976D01*
X6108Y7976D01*
X6108Y7977D01*
X6107Y7977D01*
X6107Y7978D01*
X6107Y7979D01*
Y7979D01*
X6107Y7979D01*
X6107Y7979D01*
X6107Y7979D01*
X6107Y7979D01*
X6107Y7979D01*
X6106Y7980D01*
X6106Y7980D01*
X6106Y7981D01*
X6106Y7981D01*
X6106Y7982D01*
Y7982D01*
X6106Y7982D01*
Y7983D01*
X6106Y7983D01*
X6106Y7983D01*
X6106Y7983D01*
X6106Y7984D01*
X6107Y7985D01*
X6107Y7986D01*
X6107Y7986D01*
Y7986D01*
X6107Y7986D01*
X6107Y7986D01*
X6107Y7987D01*
X6107Y7987D01*
X6108Y7987D01*
X6108Y7987D01*
X6108Y7988D01*
X6109Y7988D01*
X6109Y7989D01*
X6110Y7989D01*
X6110D01*
X6110Y7989D01*
X6110Y7989D01*
X6110Y7989D01*
X6111Y7989D01*
X6111Y7989D01*
X6111Y7990D01*
X6111Y7990D01*
X6112Y7990D01*
X6112Y7990D01*
X6113Y7990D01*
X6113Y7990D01*
X6114Y7990D01*
X6114D01*
X6114D01*
X6115D01*
X6115Y7990D01*
D02*
G37*
G36*
X6864Y6929D02*
X6856D01*
X6846Y6955D01*
X6835Y6929D01*
X6827D01*
Y7000D01*
X6836D01*
X6836Y6949D01*
X6836Y6949D01*
X6845Y6972D01*
X6847D01*
X6856Y6949D01*
X6856Y6949D01*
X6855Y7000D01*
X6864D01*
Y6929D01*
D02*
G37*
G36*
X6800Y7000D02*
X6801D01*
X6802Y7000D01*
X6803Y7000D01*
X6804Y6999D01*
X6806Y6999D01*
X6807Y6998D01*
X6808Y6998D01*
X6809Y6997D01*
X6810Y6996D01*
X6811Y6994D01*
X6812Y6993D01*
X6813Y6991D01*
Y6991D01*
X6814Y6991D01*
X6814Y6990D01*
X6814Y6990D01*
X6814Y6989D01*
X6815Y6987D01*
X6815Y6986D01*
X6816Y6985D01*
X6816Y6983D01*
X6817Y6981D01*
X6817Y6979D01*
X6817Y6976D01*
X6818Y6974D01*
X6818Y6971D01*
X6818Y6968D01*
X6818Y6965D01*
Y6965D01*
Y6964D01*
Y6963D01*
X6818Y6962D01*
Y6961D01*
X6818Y6959D01*
X6818Y6957D01*
X6818Y6955D01*
X6817Y6951D01*
X6816Y6946D01*
X6815Y6942D01*
X6814Y6940D01*
X6813Y6938D01*
X6813Y6938D01*
X6813Y6938D01*
X6813Y6937D01*
X6812Y6937D01*
X6811Y6935D01*
X6810Y6933D01*
X6808Y6931D01*
X6805Y6930D01*
X6804Y6929D01*
X6802Y6929D01*
X6801Y6928D01*
X6799Y6928D01*
X6798D01*
X6797Y6929D01*
X6796Y6929D01*
X6795Y6929D01*
X6793Y6930D01*
X6791Y6931D01*
X6789Y6932D01*
Y6941D01*
X6790Y6941D01*
X6790Y6940D01*
X6791Y6940D01*
X6792Y6939D01*
X6794Y6938D01*
X6795Y6938D01*
X6797Y6937D01*
X6799Y6937D01*
X6799D01*
X6799Y6937D01*
X6800Y6937D01*
X6802Y6938D01*
X6803Y6938D01*
X6804Y6939D01*
X6805Y6940D01*
X6805Y6941D01*
X6806Y6942D01*
X6806Y6943D01*
Y6943D01*
X6806Y6944D01*
X6807Y6944D01*
X6807Y6944D01*
X6807Y6945D01*
X6807Y6946D01*
X6807Y6947D01*
X6808Y6948D01*
X6808Y6950D01*
X6808Y6951D01*
X6808Y6953D01*
X6808Y6955D01*
X6808Y6957D01*
X6809Y6959D01*
X6809Y6962D01*
Y6964D01*
Y6965D01*
Y6965D01*
Y6966D01*
Y6967D01*
X6809Y6968D01*
Y6969D01*
X6808Y6971D01*
X6808Y6973D01*
X6808Y6976D01*
X6808Y6980D01*
X6807Y6981D01*
X6807Y6983D01*
X6807Y6984D01*
X6806Y6986D01*
Y6986D01*
X6806Y6986D01*
X6806Y6987D01*
X6805Y6988D01*
X6804Y6989D01*
X6803Y6990D01*
X6802Y6991D01*
X6800Y6992D01*
X6799Y6992D01*
X6798Y6992D01*
X6798D01*
X6797Y6992D01*
X6797Y6992D01*
X6795Y6991D01*
X6794Y6991D01*
X6792Y6990D01*
X6791Y6989D01*
X6790Y6988D01*
X6789Y6987D01*
Y6997D01*
X6789Y6997D01*
X6789Y6997D01*
X6790Y6998D01*
X6792Y6999D01*
X6793Y6999D01*
X6795Y7000D01*
X6797Y7000D01*
X6799Y7001D01*
X6800D01*
X6800Y7000D01*
D02*
G37*
G36*
X8474Y3585D02*
X8474Y3585D01*
X8474Y3584D01*
X8475Y3584D01*
X8475Y3584D01*
X8476Y3584D01*
X8476Y3584D01*
X8478Y3583D01*
X8479Y3582D01*
X8480Y3582D01*
X8480Y3581D01*
X8481Y3581D01*
X8481Y3580D01*
X8481Y3580D01*
X8482Y3580D01*
X8482Y3580D01*
X8482Y3579D01*
X8482Y3579D01*
X8482Y3579D01*
X8483Y3578D01*
X8483Y3578D01*
X8483Y3577D01*
X8483Y3576D01*
X8484Y3576D01*
X8484Y3575D01*
X8484Y3574D01*
X8484Y3573D01*
X8484Y3572D01*
X8484Y3571D01*
Y3571D01*
X8484Y3571D01*
Y3570D01*
X8484Y3570D01*
X8484Y3569D01*
X8484Y3568D01*
X8484Y3567D01*
X8483Y3566D01*
X8483Y3564D01*
X8482Y3564D01*
X8482Y3563D01*
X8482Y3563D01*
X8482Y3563D01*
X8482Y3563D01*
X8482Y3562D01*
X8481Y3562D01*
X8481Y3562D01*
X8481Y3562D01*
X8481Y3561D01*
X8480Y3561D01*
X8480Y3560D01*
X8479Y3560D01*
X8477Y3559D01*
X8476Y3558D01*
X8476D01*
X8476Y3558D01*
X8476Y3558D01*
X8475Y3558D01*
X8475Y3558D01*
X8474Y3558D01*
X8474Y3557D01*
X8473Y3557D01*
X8473Y3557D01*
X8472Y3557D01*
X8471Y3557D01*
X8469Y3556D01*
X8467Y3556D01*
X8467D01*
X8467D01*
X8467D01*
X8467Y3556D01*
X8466D01*
X8466Y3556D01*
X8465Y3557D01*
X8464Y3557D01*
X8463Y3557D01*
X8462Y3557D01*
X8460Y3558D01*
X8459Y3558D01*
X8459Y3558D01*
X8458Y3558D01*
X8458Y3558D01*
X8458Y3559D01*
X8458Y3559D01*
X8457Y3559D01*
X8457Y3560D01*
X8456Y3560D01*
X8455Y3561D01*
X8454Y3562D01*
X8453Y3564D01*
X8453Y3564D01*
X8453Y3564D01*
X8453Y3564D01*
X8453Y3564D01*
X8453Y3565D01*
X8452Y3565D01*
X8452Y3565D01*
X8452Y3566D01*
X8452Y3567D01*
X8452Y3567D01*
X8451Y3568D01*
X8451Y3570D01*
X8451Y3571D01*
Y3572D01*
X8451Y3572D01*
X8451Y3573D01*
X8451Y3573D01*
X8451Y3574D01*
X8451Y3574D01*
X8452Y3576D01*
X8452Y3577D01*
X8452Y3578D01*
X8453Y3578D01*
X8453Y3579D01*
X8454Y3580D01*
X8454Y3580D01*
X8454Y3580D01*
X8454Y3580D01*
X8454Y3580D01*
X8454Y3580D01*
X8455Y3581D01*
X8455Y3581D01*
X8455Y3581D01*
X8456Y3582D01*
X8456Y3582D01*
X8457Y3583D01*
X8457Y3583D01*
X8458Y3583D01*
X8459Y3584D01*
X8460Y3584D01*
X8460Y3584D01*
X8461Y3580D01*
X8461D01*
X8461Y3580D01*
X8461Y3580D01*
X8461Y3580D01*
X8461Y3580D01*
X8460Y3580D01*
X8459Y3579D01*
X8459Y3579D01*
X8458Y3578D01*
X8457Y3577D01*
X8456Y3577D01*
X8456Y3577D01*
X8456Y3576D01*
X8456Y3576D01*
X8455Y3575D01*
X8455Y3574D01*
X8455Y3574D01*
X8455Y3573D01*
X8455Y3571D01*
Y3571D01*
X8455Y3571D01*
Y3570D01*
X8455Y3570D01*
X8455Y3569D01*
X8455Y3568D01*
X8455Y3567D01*
X8456Y3566D01*
X8456Y3565D01*
Y3565D01*
X8457Y3565D01*
X8457Y3565D01*
X8457Y3564D01*
X8458Y3564D01*
X8458Y3563D01*
X8459Y3563D01*
X8460Y3562D01*
X8461Y3562D01*
X8461D01*
X8461Y3562D01*
X8462Y3562D01*
X8462Y3562D01*
X8462Y3561D01*
X8462Y3561D01*
X8463Y3561D01*
X8464Y3561D01*
X8465Y3561D01*
X8466Y3561D01*
X8467Y3561D01*
X8467D01*
X8468D01*
X8468D01*
X8468D01*
X8468Y3561D01*
X8469D01*
X8469Y3561D01*
X8470Y3561D01*
X8471Y3561D01*
X8472Y3561D01*
X8473Y3562D01*
X8474Y3562D01*
X8475D01*
X8475Y3562D01*
X8475Y3562D01*
X8475Y3562D01*
X8476Y3562D01*
X8476Y3563D01*
X8477Y3563D01*
X8478Y3564D01*
X8478Y3565D01*
X8479Y3566D01*
Y3566D01*
X8479Y3566D01*
X8479Y3566D01*
X8479Y3566D01*
X8479Y3566D01*
X8480Y3567D01*
X8480Y3567D01*
X8480Y3568D01*
X8480Y3569D01*
X8481Y3570D01*
X8481Y3571D01*
Y3571D01*
X8481Y3572D01*
Y3572D01*
X8480Y3572D01*
X8480Y3573D01*
X8480Y3574D01*
X8480Y3575D01*
X8479Y3576D01*
X8479Y3577D01*
X8479Y3577D01*
X8478Y3577D01*
X8478Y3577D01*
X8478Y3577D01*
X8478Y3577D01*
X8478Y3578D01*
X8478Y3578D01*
X8477Y3578D01*
X8477Y3578D01*
X8477Y3579D01*
X8476Y3579D01*
X8476Y3579D01*
X8475Y3580D01*
X8474Y3580D01*
X8474Y3580D01*
X8473Y3580D01*
X8472Y3580D01*
X8473Y3585D01*
X8474D01*
X8474Y3585D01*
D02*
G37*
G36*
X8492Y3529D02*
X8490D01*
Y3555D01*
X8492D01*
Y3529D01*
D02*
G37*
G36*
X8474Y3527D02*
X8474Y3527D01*
X8474Y3527D01*
X8475Y3527D01*
X8475Y3527D01*
X8477Y3527D01*
X8478Y3526D01*
X8478Y3526D01*
X8479Y3526D01*
X8480Y3525D01*
X8480Y3525D01*
X8480Y3525D01*
X8480Y3525D01*
X8481Y3525D01*
X8481Y3524D01*
X8481Y3524D01*
X8482Y3524D01*
X8482Y3523D01*
X8482Y3523D01*
X8483Y3522D01*
X8483Y3522D01*
X8483Y3521D01*
X8484Y3520D01*
X8484Y3519D01*
X8484Y3518D01*
X8484Y3518D01*
X8484Y3517D01*
Y3516D01*
X8484Y3516D01*
X8484Y3515D01*
X8484Y3515D01*
X8484Y3515D01*
X8484Y3514D01*
X8484Y3513D01*
X8483Y3512D01*
X8483Y3511D01*
X8483Y3510D01*
X8482Y3510D01*
X8482Y3509D01*
X8482Y3509D01*
X8482Y3509D01*
X8481Y3509D01*
X8481Y3509D01*
X8481Y3509D01*
X8481Y3509D01*
X8480Y3508D01*
X8480Y3508D01*
X8480Y3508D01*
X8479Y3507D01*
X8478Y3507D01*
X8477Y3507D01*
X8476Y3506D01*
X8475Y3506D01*
X8475Y3510D01*
X8475D01*
X8475D01*
X8475Y3510D01*
X8475Y3510D01*
X8476Y3511D01*
X8477Y3511D01*
X8477Y3511D01*
X8478Y3511D01*
X8479Y3512D01*
X8479Y3512D01*
X8479Y3513D01*
X8480Y3513D01*
X8480Y3513D01*
X8480Y3514D01*
X8480Y3514D01*
X8481Y3515D01*
X8481Y3516D01*
X8481Y3517D01*
Y3517D01*
X8481Y3517D01*
X8481Y3518D01*
X8481Y3518D01*
X8480Y3519D01*
X8480Y3520D01*
X8479Y3521D01*
X8479Y3521D01*
X8479Y3521D01*
X8479Y3521D01*
X8479Y3521D01*
X8479Y3522D01*
X8478Y3522D01*
X8478Y3522D01*
X8477Y3522D01*
X8476Y3523D01*
X8476Y3523D01*
X8474Y3523D01*
X8474Y3523D01*
X8473D01*
X8473D01*
X8473D01*
X8473D01*
X8473Y3523D01*
X8472D01*
X8472Y3523D01*
X8471Y3523D01*
X8470Y3523D01*
X8469Y3523D01*
X8469Y3522D01*
X8468Y3521D01*
X8468D01*
X8468Y3521D01*
X8468Y3521D01*
X8467Y3521D01*
X8467Y3520D01*
X8466Y3519D01*
X8466Y3519D01*
X8466Y3518D01*
X8466Y3517D01*
Y3516D01*
X8466Y3516D01*
X8466Y3515D01*
X8466Y3515D01*
X8466Y3514D01*
X8466Y3514D01*
X8467Y3513D01*
X8467Y3513D01*
X8467Y3513D01*
X8467Y3513D01*
X8467Y3512D01*
X8468Y3512D01*
X8468Y3511D01*
X8468Y3511D01*
X8469Y3511D01*
X8468Y3507D01*
X8452Y3510D01*
Y3526D01*
X8456D01*
Y3513D01*
X8464Y3511D01*
X8464Y3512D01*
X8464Y3512D01*
X8464Y3512D01*
X8464Y3512D01*
X8464Y3512D01*
X8464Y3513D01*
X8463Y3513D01*
X8463Y3514D01*
X8463Y3515D01*
X8462Y3516D01*
X8462Y3517D01*
Y3518D01*
X8462Y3518D01*
X8462Y3519D01*
X8463Y3519D01*
X8463Y3519D01*
X8463Y3520D01*
X8463Y3521D01*
X8463Y3522D01*
X8464Y3522D01*
X8464Y3523D01*
X8464Y3523D01*
X8465Y3524D01*
X8465Y3525D01*
X8465Y3525D01*
X8465Y3525D01*
X8466Y3525D01*
X8466Y3525D01*
X8466Y3525D01*
X8466Y3526D01*
X8467Y3526D01*
X8467Y3526D01*
X8468Y3526D01*
X8468Y3527D01*
X8469Y3527D01*
X8470Y3527D01*
X8470Y3527D01*
X8471Y3527D01*
X8472Y3527D01*
X8473Y3528D01*
X8473D01*
X8473D01*
X8473D01*
X8474Y3527D01*
D02*
G37*
G36*
X8475Y3502D02*
X8476Y3502D01*
X8476Y3502D01*
X8476Y3502D01*
X8477Y3502D01*
X8478Y3502D01*
X8479Y3502D01*
X8479Y3501D01*
X8480Y3501D01*
X8480Y3501D01*
X8481Y3500D01*
X8481Y3500D01*
X8481Y3499D01*
X8482Y3499D01*
X8482Y3499D01*
X8482Y3499D01*
X8482Y3499D01*
X8482Y3498D01*
X8482Y3498D01*
X8483Y3497D01*
X8483Y3497D01*
X8483Y3496D01*
X8484Y3496D01*
X8484Y3495D01*
X8484Y3494D01*
X8484Y3494D01*
X8484Y3493D01*
X8484Y3492D01*
Y3491D01*
X8484Y3491D01*
X8484Y3491D01*
X8484Y3490D01*
X8484Y3490D01*
X8484Y3489D01*
X8483Y3488D01*
X8483Y3487D01*
X8483Y3487D01*
X8483Y3486D01*
X8482Y3485D01*
X8482Y3485D01*
X8481Y3484D01*
X8481Y3484D01*
X8481Y3484D01*
X8481Y3484D01*
X8481Y3484D01*
X8481Y3484D01*
X8480Y3483D01*
X8480Y3483D01*
X8479Y3483D01*
X8479Y3483D01*
X8478Y3482D01*
X8477Y3482D01*
X8477Y3482D01*
X8476Y3482D01*
X8475Y3481D01*
X8474Y3481D01*
X8474D01*
X8474D01*
X8474D01*
X8474Y3481D01*
X8474D01*
X8473Y3481D01*
X8473Y3482D01*
X8472Y3482D01*
X8471Y3482D01*
X8470Y3482D01*
X8469Y3483D01*
X8469D01*
X8469Y3483D01*
X8469Y3483D01*
X8468Y3484D01*
X8468Y3484D01*
X8468Y3485D01*
X8467Y3486D01*
X8467Y3486D01*
X8466Y3487D01*
Y3487D01*
X8466Y3487D01*
X8466Y3487D01*
X8466Y3487D01*
X8466Y3487D01*
X8466Y3486D01*
X8465Y3485D01*
X8465Y3485D01*
X8464Y3484D01*
X8464Y3484D01*
X8464Y3484D01*
X8463Y3484D01*
X8463Y3483D01*
X8463Y3483D01*
X8462Y3483D01*
X8461Y3483D01*
X8461Y3483D01*
X8460Y3483D01*
X8460D01*
X8460D01*
X8459D01*
X8459Y3483D01*
X8459Y3483D01*
X8458Y3483D01*
X8458Y3483D01*
X8457Y3483D01*
X8456Y3484D01*
X8455Y3484D01*
X8455Y3484D01*
X8454Y3485D01*
X8454Y3485D01*
X8454Y3485D01*
X8454Y3485D01*
X8454Y3485D01*
X8454Y3486D01*
X8453Y3486D01*
X8453Y3486D01*
X8453Y3487D01*
X8453Y3487D01*
X8452Y3487D01*
X8452Y3488D01*
X8452Y3488D01*
X8452Y3489D01*
X8452Y3490D01*
X8452Y3491D01*
X8451Y3492D01*
Y3492D01*
X8452Y3493D01*
X8452Y3493D01*
X8452Y3493D01*
X8452Y3494D01*
X8452Y3494D01*
X8452Y3495D01*
X8452Y3496D01*
X8453Y3497D01*
X8453Y3498D01*
X8454Y3498D01*
X8454Y3499D01*
X8454Y3499D01*
X8454Y3499D01*
X8454Y3499D01*
X8454Y3499D01*
X8455Y3499D01*
X8455Y3499D01*
X8456Y3500D01*
X8456Y3500D01*
X8457Y3501D01*
X8459Y3501D01*
X8459Y3501D01*
X8460Y3501D01*
X8460D01*
X8460D01*
X8460D01*
X8461Y3501D01*
X8461Y3501D01*
X8462Y3501D01*
X8462Y3501D01*
X8463Y3500D01*
X8464Y3500D01*
X8464Y3500D01*
X8464Y3500D01*
X8464Y3499D01*
X8465Y3499D01*
X8465Y3499D01*
X8466Y3498D01*
X8466Y3497D01*
X8466Y3496D01*
Y3496D01*
X8466Y3497D01*
X8466Y3497D01*
X8466Y3497D01*
X8467Y3497D01*
X8467Y3498D01*
X8468Y3499D01*
X8468Y3500D01*
X8469Y3500D01*
X8469Y3501D01*
X8469D01*
X8469Y3501D01*
X8470Y3501D01*
X8470Y3501D01*
X8471Y3502D01*
X8472Y3502D01*
X8472Y3502D01*
X8473Y3502D01*
X8474Y3502D01*
X8475D01*
X8475D01*
X8475D01*
X8475Y3502D01*
D02*
G37*
G36*
X8476Y3473D02*
X8484D01*
Y3469D01*
X8476D01*
Y3455D01*
X8472D01*
X8452Y3470D01*
Y3473D01*
X8472D01*
Y3477D01*
X8476D01*
Y3473D01*
D02*
G37*
%LPC*%
G36*
X6121Y8042D02*
X6115D01*
Y8037D01*
X6115Y8037D01*
Y8037D01*
X6115Y8036D01*
X6115Y8036D01*
X6116Y8036D01*
X6116Y8035D01*
X6116Y8035D01*
X6116Y8035D01*
X6116Y8035D01*
X6116Y8035D01*
X6116Y8035D01*
X6116Y8035D01*
X6116Y8034D01*
X6117Y8034D01*
X6117Y8034D01*
X6117Y8034D01*
X6117Y8034D01*
X6117Y8034D01*
X6117Y8034D01*
X6117Y8034D01*
X6118Y8034D01*
X6118Y8034D01*
X6118D01*
X6118D01*
X6118D01*
X6118Y8034D01*
X6119Y8034D01*
X6119Y8034D01*
X6119Y8034D01*
X6120Y8034D01*
X6120Y8035D01*
X6120Y8035D01*
X6120Y8035D01*
X6120Y8035D01*
X6120Y8035D01*
X6120Y8036D01*
X6121Y8036D01*
X6121Y8037D01*
X6121Y8037D01*
Y8042D01*
D02*
G37*
G36*
X8460Y3497D02*
X8460D01*
X8460D01*
X8459D01*
X8459Y3497D01*
X8459Y3497D01*
X8458Y3497D01*
X8457Y3496D01*
X8457Y3496D01*
X8456Y3496D01*
X8456Y3496D01*
X8456Y3495D01*
X8456Y3495D01*
X8455Y3495D01*
X8455Y3494D01*
X8455Y3493D01*
X8455Y3493D01*
X8455Y3492D01*
Y3492D01*
X8455Y3491D01*
X8455Y3491D01*
X8455Y3490D01*
X8455Y3489D01*
X8456Y3489D01*
X8456Y3488D01*
X8456Y3488D01*
X8456Y3488D01*
X8457Y3488D01*
X8457Y3487D01*
X8458Y3487D01*
X8458Y3487D01*
X8459Y3487D01*
X8460Y3487D01*
X8460D01*
X8460D01*
X8460Y3487D01*
X8460Y3487D01*
X8461Y3487D01*
X8462Y3487D01*
X8462Y3487D01*
X8463Y3488D01*
X8463Y3488D01*
X8463Y3488D01*
X8464Y3488D01*
X8464Y3489D01*
X8464Y3489D01*
X8464Y3490D01*
X8465Y3490D01*
X8465Y3491D01*
X8465Y3492D01*
Y3492D01*
X8465Y3492D01*
X8465Y3493D01*
X8465Y3493D01*
X8464Y3494D01*
X8464Y3494D01*
X8464Y3495D01*
X8463Y3496D01*
X8463Y3496D01*
X8463Y3496D01*
X8463Y3496D01*
X8462Y3496D01*
X8462Y3497D01*
X8461Y3497D01*
X8461Y3497D01*
X8460Y3497D01*
D02*
G37*
G36*
X8475Y3498D02*
X8474D01*
X8474D01*
X8474D01*
X8474Y3498D01*
X8474Y3498D01*
X8473Y3498D01*
X8472Y3498D01*
X8471Y3498D01*
X8471Y3497D01*
X8470Y3497D01*
X8470Y3496D01*
X8470Y3496D01*
X8469Y3496D01*
X8469Y3495D01*
X8469Y3495D01*
X8468Y3494D01*
X8468Y3493D01*
X8468Y3492D01*
Y3491D01*
X8468Y3491D01*
X8468Y3491D01*
X8468Y3490D01*
X8468Y3489D01*
X8469Y3489D01*
X8469Y3488D01*
X8470Y3487D01*
X8470Y3487D01*
X8470Y3487D01*
X8471Y3487D01*
X8471Y3486D01*
X8472Y3486D01*
X8473Y3486D01*
X8473Y3485D01*
X8474Y3485D01*
X8474D01*
X8475D01*
X8475Y3485D01*
X8475Y3485D01*
X8476Y3486D01*
X8476Y3486D01*
X8477Y3486D01*
X8478Y3486D01*
X8478Y3486D01*
X8478Y3486D01*
X8478Y3486D01*
X8479Y3487D01*
X8479Y3487D01*
X8479Y3487D01*
X8480Y3488D01*
X8480Y3488D01*
X8480Y3489D01*
X8480Y3489D01*
X8480Y3489D01*
X8481Y3490D01*
X8481Y3490D01*
X8481Y3491D01*
X8481Y3491D01*
X8481Y3492D01*
Y3492D01*
X8481Y3492D01*
X8481Y3493D01*
X8481Y3494D01*
X8480Y3494D01*
X8480Y3495D01*
X8480Y3496D01*
X8479Y3497D01*
X8479Y3497D01*
X8479Y3497D01*
X8478Y3497D01*
X8478Y3497D01*
X8477Y3498D01*
X8476Y3498D01*
X8476Y3498D01*
X8475Y3498D01*
D02*
G37*
G36*
X8472Y3469D02*
X8458D01*
X8472Y3459D01*
Y3469D01*
D02*
G37*
%LPD*%
D10*
X6331Y6599D02*
X7031D01*
X6331D02*
Y7299D01*
X7031D01*
Y6599D02*
Y7299D01*
X6981Y6599D02*
X7031Y6649D01*
X3836Y3519D02*
X4036D01*
X3836D02*
Y3644D01*
X4036D01*
Y3519D02*
Y3644D01*
X3936Y3541D02*
Y3621D01*
X3896Y3581D02*
X3976D01*
X8420Y3328D02*
X8547D01*
Y3582D01*
X8420D02*
X8547D01*
X8420Y3328D02*
Y3582D01*
X4084Y3299D02*
G03*
X4084Y3299I-50J0D01*
G01*
X8300Y3870D02*
G03*
X8300Y3870I-50J0D01*
G01*
X4036Y3519D02*
Y3644D01*
X3836Y3519D02*
Y3644D01*
Y3519D02*
X4036D01*
X3836Y3644D02*
X4036D01*
X3754Y2704D02*
X4094D01*
X3754Y2884D02*
X4094D01*
Y2704D02*
Y2884D01*
X3754Y2704D02*
Y2884D01*
X3280Y3197D02*
X3500D01*
X3280Y3052D02*
X3500D01*
X3280D02*
Y3197D01*
X3500Y3052D02*
Y3197D01*
X3160Y3364D02*
X3500D01*
X3160Y3544D02*
X3500D01*
Y3364D02*
Y3544D01*
X3160Y3364D02*
Y3544D01*
X4290Y3583D02*
X4630D01*
X4290Y3403D02*
X4630D01*
X4290D02*
Y3583D01*
X4630Y3403D02*
Y3583D01*
X3724Y3089D02*
Y3388D01*
X4124Y3089D02*
Y3388D01*
X3724Y3089D02*
X4124D01*
X3724Y3388D02*
X4124D01*
X9744Y3279D02*
X9839D01*
X9744Y3114D02*
X9839D01*
Y3279D01*
X9744Y3114D02*
Y3279D01*
X9033D02*
X9128D01*
X9033Y3114D02*
X9128D01*
Y3279D01*
X9033Y3114D02*
Y3279D01*
X9503D02*
X9598D01*
X9503Y3114D02*
X9598D01*
Y3279D01*
X9503Y3114D02*
Y3279D01*
X9262Y3274D02*
X9357D01*
X9262Y3109D02*
X9357D01*
Y3274D01*
X9262Y3109D02*
Y3274D01*
X8532Y3368D02*
Y3543D01*
X8436Y3368D02*
Y3543D01*
X8532D01*
X8436Y3368D02*
X8532D01*
X8281Y3240D02*
X8381D01*
X8281Y3290D02*
X8381D01*
X8281Y3240D02*
Y3290D01*
X8381Y3240D02*
Y3290D01*
X8007Y3217D02*
Y3312D01*
X8172Y3217D02*
Y3312D01*
X8007D02*
X8172D01*
X8007Y3217D02*
X8172D01*
X7799Y3240D02*
X7899D01*
X7799Y3290D02*
X7899D01*
X7799Y3240D02*
Y3290D01*
X7899Y3240D02*
Y3290D01*
X6121Y5294D02*
Y5459D01*
X6216Y5294D02*
Y5459D01*
X6121Y5294D02*
X6216D01*
X6121Y5459D02*
X6216D01*
X2919Y9440D02*
X3014D01*
X2919Y9275D02*
X3014D01*
Y9440D01*
X2919Y9275D02*
Y9440D01*
X3084Y9295D02*
X3180D01*
X3084Y9470D02*
X3180D01*
X3084Y9295D02*
Y9470D01*
X3180Y9295D02*
Y9470D01*
X7446Y5909D02*
X7542D01*
X7446Y6084D02*
X7542D01*
X7446Y5909D02*
Y6084D01*
X7542Y5909D02*
Y6084D01*
X7294Y6054D02*
X7389D01*
X7294Y5889D02*
X7389D01*
Y6054D01*
X7294Y5889D02*
Y6054D01*
X7840Y3560D02*
Y3960D01*
X8340Y3560D02*
Y3960D01*
X7840Y3560D02*
X8340D01*
X7840Y3960D02*
X8340D01*
X3254Y9297D02*
X3350D01*
X3254Y9472D02*
X3350D01*
X3254Y9297D02*
Y9472D01*
X3350Y9297D02*
Y9472D01*
X3418Y9433D02*
X3513D01*
X3418Y9268D02*
X3513D01*
Y9433D01*
X3418Y9268D02*
Y9433D01*
X8266Y8338D02*
X8321D01*
X8266Y8443D02*
X8321D01*
X8266Y8338D02*
Y8443D01*
X8321Y8338D02*
Y8443D01*
X8175Y8268D02*
Y8443D01*
X8081Y8268D02*
Y8443D01*
X8175D01*
X8081Y8268D02*
X8175D01*
X7448Y5438D02*
X7588D01*
X7448Y5738D02*
X7588D01*
Y5438D02*
Y5738D01*
X7448Y5438D02*
Y5738D01*
X6094Y7850D02*
X6149D01*
X6094Y7745D02*
X6149D01*
Y7850D01*
X6094Y7745D02*
Y7850D01*
X8269Y4554D02*
Y4894D01*
X8089Y4554D02*
Y4894D01*
X8269D01*
X8089Y4554D02*
X8269D01*
X7964D02*
Y4894D01*
X7784Y4554D02*
Y4894D01*
X7964D01*
X7784Y4554D02*
X7964D01*
X7154Y9179D02*
X7324D01*
X7154Y9489D02*
X7324D01*
Y9179D02*
Y9489D01*
X7154Y9179D02*
Y9489D01*
X7543Y8235D02*
X7723D01*
X7543Y7894D02*
X7723D01*
Y8235D01*
X7543Y7894D02*
Y8235D01*
X7129Y7894D02*
Y8235D01*
X7399Y7894D02*
Y8235D01*
X7129Y7894D02*
X7399D01*
X7129Y8235D02*
X7399D01*
X7153Y6830D02*
X7248D01*
X7153Y6995D02*
X7248D01*
X7153Y6830D02*
Y6995D01*
X7248Y6830D02*
Y6995D01*
X7531Y6983D02*
Y7038D01*
X7426Y6983D02*
Y7038D01*
Y6983D02*
X7531D01*
X7426Y7038D02*
X7531D01*
X7439Y6297D02*
Y6352D01*
X7544Y6297D02*
Y6352D01*
X7439D02*
X7544D01*
X7439Y6297D02*
X7544D01*
X7062Y8636D02*
Y9067D01*
X7493Y8636D02*
Y9067D01*
X7062D02*
X7493D01*
X7062Y8636D02*
X7493D01*
X7840Y7878D02*
Y8098D01*
X7985Y7878D02*
Y8098D01*
X7840Y7878D02*
X7985D01*
X7840Y8098D02*
X7985D01*
X7331Y9592D02*
Y9737D01*
X7110Y9592D02*
Y9737D01*
Y9592D02*
X7331D01*
X7110Y9737D02*
X7331D01*
X7743Y9376D02*
Y9521D01*
X7522Y9376D02*
Y9521D01*
Y9376D02*
X7743D01*
X7522Y9521D02*
X7743D01*
X6417Y9567D02*
Y9712D01*
X6638Y9567D02*
Y9712D01*
X6417D02*
X6638D01*
X6417Y9567D02*
X6638D01*
X6616Y8636D02*
Y9067D01*
X6185Y8636D02*
Y9067D01*
Y8636D02*
X6616D01*
X6185Y9067D02*
X6616D01*
X6112Y9432D02*
X6257D01*
X6112Y9211D02*
X6257D01*
Y9432D01*
X6112Y9211D02*
Y9432D01*
X6600Y9167D02*
Y9477D01*
X6430Y9167D02*
Y9477D01*
Y9167D02*
X6600D01*
X6430Y9477D02*
X6600D01*
X5068Y6464D02*
X5168D01*
X5118Y6414D02*
Y6514D01*
X3531Y6464D02*
X3631D01*
X3581Y6414D02*
Y6514D01*
X3886Y3581D02*
X3986D01*
X3936Y3531D02*
Y3631D01*
X3924Y2744D02*
Y2844D01*
X3874Y2794D02*
X3974D01*
X3390Y3074D02*
Y3174D01*
X3340Y3124D02*
X3440D01*
X3330Y3404D02*
Y3504D01*
X3280Y3454D02*
X3380D01*
X4460Y3442D02*
Y3542D01*
X4410Y3492D02*
X4510D01*
X3874Y3238D02*
X3974D01*
X3924Y3189D02*
Y3288D01*
X9792Y3149D02*
Y3244D01*
X9744Y3196D02*
X9839D01*
X9081Y3149D02*
Y3244D01*
X9033Y3196D02*
X9128D01*
X9550Y3149D02*
Y3244D01*
X9503Y3196D02*
X9598D01*
X9309Y3144D02*
Y3239D01*
X9262Y3192D02*
X9357D01*
X8436Y3455D02*
X8532D01*
X8484Y3407D02*
Y3503D01*
X8547Y3328D02*
Y3582D01*
X8420Y3328D02*
Y3582D01*
X8547D01*
X8420Y3328D02*
X8547D01*
X8331Y3240D02*
Y3290D01*
X8306Y3265D02*
X8356D01*
X8042D02*
X8137D01*
X8090Y3217D02*
Y3312D01*
X7849Y3240D02*
Y3290D01*
X7824Y3265D02*
X7874D01*
X6121Y5376D02*
X6216D01*
X6169Y5329D02*
Y5424D01*
X2967Y9310D02*
Y9405D01*
X2919Y9357D02*
X3014D01*
X3132Y9335D02*
Y9431D01*
X3084Y9383D02*
X3180D01*
X7494Y5949D02*
Y6045D01*
X7446Y5997D02*
X7542D01*
X7342Y5924D02*
Y6019D01*
X7294Y5971D02*
X7389D01*
X8040Y3760D02*
X8140D01*
X8090Y3710D02*
Y3810D01*
X3302Y9336D02*
Y9432D01*
X3254Y9384D02*
X3350D01*
X3466Y9303D02*
Y9398D01*
X3418Y9351D02*
X3513D01*
X8293Y8363D02*
Y8418D01*
X8266Y8390D02*
X8321D01*
X8081Y8355D02*
X8175D01*
X8128Y8308D02*
Y8403D01*
X7518Y5538D02*
Y5638D01*
X7468Y5588D02*
X7568D01*
X6121Y7770D02*
Y7825D01*
X6094Y7798D02*
X6149D01*
X7290Y5221D02*
Y5321D01*
X7240Y5271D02*
X7340D01*
X8129Y4724D02*
X8229D01*
X8179Y4674D02*
Y4774D01*
X7824Y4724D02*
X7924D01*
X7874Y4674D02*
Y4774D01*
X7239Y9285D02*
Y9385D01*
X7189Y9335D02*
X7289D01*
X6313Y7544D02*
X6413D01*
X6363Y7494D02*
Y7594D01*
X7633Y8014D02*
Y8114D01*
X7583Y8064D02*
X7683D01*
X7214D02*
X7314D01*
X7264Y8014D02*
Y8114D01*
X7201Y6865D02*
Y6960D01*
X7153Y6913D02*
X7248D01*
X7451Y7010D02*
X7506D01*
X7479Y6983D02*
Y7038D01*
X7464Y6325D02*
X7519D01*
X7491Y6297D02*
Y6352D01*
X6985Y8607D02*
Y9097D01*
X7570Y8607D02*
Y9097D01*
X6985D02*
X7570D01*
X6985Y8607D02*
X7570D01*
X7227Y8852D02*
X7327D01*
X7277Y8802D02*
Y8902D01*
X7862Y7988D02*
X7962D01*
X7912Y7938D02*
Y8038D01*
X7170Y9665D02*
X7270D01*
X7220Y9615D02*
Y9715D01*
X7583Y9449D02*
X7683D01*
X7633Y9399D02*
Y9499D01*
X6478Y9639D02*
X6578D01*
X6528Y9589D02*
Y9689D01*
X6693Y8607D02*
Y9097D01*
X6108Y8607D02*
Y9097D01*
Y8607D02*
X6693D01*
X6108Y9097D02*
X6693D01*
X6351Y8852D02*
X6451D01*
X6401Y8802D02*
Y8902D01*
X6185Y9272D02*
Y9372D01*
X6135Y9322D02*
X6235D01*
X6465D02*
X6565D01*
X6515Y9272D02*
Y9372D01*
D14*
X7031Y4101D02*
G03*
X7031Y4101I-51J0D01*
G01*
D17*
X7694Y3352D02*
Y4952D01*
X6094Y3352D02*
X7694D01*
X6094D02*
Y4952D01*
X7694D01*
D19*
X6269Y6536D02*
X7094D01*
X6269D02*
Y7361D01*
X7094D01*
Y6536D02*
Y7361D01*
X7045Y9765D02*
X7395D01*
X7045Y9565D02*
X7395D01*
X7045D02*
Y9765D01*
X7395Y9565D02*
Y9765D01*
X7458Y9549D02*
X7808D01*
X7458Y9349D02*
X7808D01*
X7458D02*
Y9549D01*
X7808Y9349D02*
Y9549D01*
X6353Y9539D02*
X6703D01*
X6353Y9739D02*
X6703D01*
Y9539D02*
Y9739D01*
X6353Y9539D02*
Y9739D01*
X6085Y9147D02*
Y9497D01*
X6285Y9147D02*
Y9497D01*
X6085Y9147D02*
X6285D01*
X6085Y9497D02*
X6285D01*
X6138Y8026D02*
G03*
X6138Y8026I-17J0D01*
G01*
X4064Y3511D02*
Y3651D01*
X3809Y3511D02*
Y3651D01*
Y3511D02*
X4064D01*
X3809Y3651D02*
X4064D01*
X3649Y2649D02*
X4199D01*
X3649Y2939D02*
X4199D01*
Y2649D02*
Y2939D01*
X3649Y2649D02*
Y2939D01*
X3175Y3254D02*
X3605D01*
X3175Y2994D02*
X3605D01*
X3175D02*
Y3254D01*
X3605Y2994D02*
Y3254D01*
X3055Y3309D02*
X3605D01*
X3055Y3599D02*
X3605D01*
Y3309D02*
Y3599D01*
X3055Y3309D02*
Y3599D01*
X4185Y3638D02*
X4735D01*
X4185Y3347D02*
X4735D01*
X4185D02*
Y3638D01*
X4735Y3347D02*
Y3638D01*
X3709Y3049D02*
Y3428D01*
X4139Y3049D02*
Y3428D01*
X3709Y3049D02*
X4139D01*
X3709Y3428D02*
X4139D01*
X9687Y3361D02*
X9897D01*
X9687Y3031D02*
X9897D01*
Y3361D01*
X9687Y3031D02*
Y3361D01*
X8975D02*
X9186D01*
X8975Y3031D02*
X9186D01*
Y3361D01*
X8975Y3031D02*
Y3361D01*
X9445D02*
X9655D01*
X9445Y3031D02*
X9655D01*
Y3361D01*
X9445Y3031D02*
Y3361D01*
X9204Y3357D02*
X9414D01*
X9204Y3027D02*
X9414D01*
Y3357D01*
X9204Y3027D02*
Y3357D01*
X8246Y3305D02*
X8421D01*
X8246Y3225D02*
X8421D01*
X8246D02*
Y3305D01*
X8421Y3225D02*
Y3305D01*
X7960Y3190D02*
Y3340D01*
X8220Y3190D02*
Y3340D01*
X7960D02*
X8220D01*
X7960Y3190D02*
X8220D01*
X7764Y3305D02*
X7939D01*
X7764Y3225D02*
X7939D01*
X7764D02*
Y3305D01*
X7939Y3225D02*
Y3305D01*
X6109Y5271D02*
Y5481D01*
X6229Y5271D02*
Y5481D01*
X6109Y5271D02*
X6229D01*
X6109Y5481D02*
X6229D01*
X2907Y9462D02*
X3027D01*
X2907Y9252D02*
X3027D01*
Y9462D01*
X2907Y9252D02*
Y9462D01*
X3057Y9233D02*
X3207D01*
X3057Y9533D02*
X3207D01*
X3057Y9233D02*
Y9533D01*
X3207Y9233D02*
Y9533D01*
X7419Y5847D02*
X7569D01*
X7419Y6147D02*
X7569D01*
X7419Y5847D02*
Y6147D01*
X7569Y5847D02*
Y6147D01*
X7282Y6076D02*
X7402D01*
X7282Y5866D02*
X7402D01*
Y6076D01*
X7282Y5866D02*
Y6076D01*
X7815Y3385D02*
Y4135D01*
X8365Y3385D02*
Y4135D01*
X7815Y3385D02*
X8365D01*
X7815Y4135D02*
X8365D01*
X3227Y9234D02*
X3377D01*
X3227Y9534D02*
X3377D01*
X3227Y9234D02*
Y9534D01*
X3377Y9234D02*
Y9534D01*
X3406Y9456D02*
X3526D01*
X3406Y9246D02*
X3526D01*
Y9456D01*
X3406Y9246D02*
Y9456D01*
X8248Y8300D02*
X8338D01*
X8248Y8480D02*
X8338D01*
X8248Y8300D02*
Y8480D01*
X8338Y8300D02*
Y8480D01*
X8058Y8215D02*
X8198D01*
X8058D02*
Y8495D01*
X8198Y8215D02*
Y8495D01*
X8058D02*
X8198D01*
X7361Y5428D02*
X7676D01*
X7361Y5748D02*
X7676D01*
Y5428D02*
Y5748D01*
X7361Y5428D02*
Y5748D01*
X6076Y7888D02*
X6166D01*
X6076Y7708D02*
X6166D01*
Y7888D01*
X6076Y7708D02*
Y7888D01*
X6077Y8116D02*
X6165D01*
Y7936D02*
Y8116D01*
X6077Y7936D02*
X6165D01*
X6077D02*
Y8116D01*
X6121Y8004D02*
Y8048D01*
X6099Y8026D02*
X6143D01*
X7072Y5151D02*
Y5390D01*
Y5390D02*
X7507D01*
X7072Y5151D02*
X7507D01*
X7507Y5151D02*
Y5390D01*
X8324Y4449D02*
Y4999D01*
X8034Y4449D02*
Y4999D01*
X8324D01*
X8034Y4449D02*
X8324D01*
X8019D02*
Y4999D01*
X7729Y4449D02*
Y4999D01*
X8019D01*
X7729Y4449D02*
X8019D01*
X7074Y9169D02*
X7404D01*
X7074Y9500D02*
X7404D01*
Y9169D02*
Y9500D01*
X7074Y9169D02*
Y9500D01*
X6513Y7454D02*
Y7634D01*
X6213Y7454D02*
Y7634D01*
Y7454D02*
X6513D01*
X6213Y7634D02*
X6513D01*
X7488Y8339D02*
X7778D01*
X7488Y7789D02*
X7778D01*
Y8339D01*
X7488Y7789D02*
Y8339D01*
X7074Y7789D02*
Y8339D01*
X7454Y7789D02*
Y8339D01*
X7074Y7789D02*
X7454D01*
X7074Y8339D02*
X7454D01*
X7123Y6778D02*
X7278D01*
X7123Y7048D02*
X7278D01*
X7123Y6778D02*
Y7048D01*
X7278Y6778D02*
Y7048D01*
X7558Y6970D02*
Y7050D01*
X7399Y6970D02*
Y7050D01*
Y6970D02*
X7558D01*
X7399Y7050D02*
X7558D01*
X7411Y6285D02*
Y6365D01*
X7571Y6285D02*
Y6365D01*
X7411D02*
X7571D01*
X7411Y6285D02*
X7571D01*
X7827Y7853D02*
Y8123D01*
X7997Y7853D02*
Y8123D01*
X7827Y7853D02*
X7997D01*
X7827Y8123D02*
X7997D01*
X7395Y9565D02*
Y9765D01*
X7045Y9565D02*
Y9765D01*
Y9565D02*
X7395D01*
X7045Y9765D02*
X7395D01*
X7808Y9349D02*
Y9549D01*
X7458Y9349D02*
Y9549D01*
Y9349D02*
X7808D01*
X7458Y9549D02*
X7808D01*
X6353Y9539D02*
Y9739D01*
X6703Y9539D02*
Y9739D01*
X6353D02*
X6703D01*
X6353Y9539D02*
X6703D01*
X6085Y9497D02*
X6285D01*
X6085Y9147D02*
X6285D01*
Y9497D01*
X6085Y9147D02*
Y9497D01*
X6680Y9157D02*
Y9487D01*
X6350Y9157D02*
Y9487D01*
Y9157D02*
X6680D01*
X6350Y9487D02*
X6680D01*
D20*
X6093Y8079D02*
X6149D01*
Y7973D02*
Y8079D01*
X6093Y7973D02*
X6149D01*
X6093D02*
Y8079D01*
D21*
X7347Y9631D02*
X7330Y9614D01*
X7296D01*
X7279Y9631D01*
Y9648D01*
X7296Y9665D01*
X7313D01*
X7296D01*
X7279Y9682D01*
Y9699D01*
X7296Y9715D01*
X7330D01*
X7347Y9699D01*
X7245Y9715D02*
Y9699D01*
X7229D01*
Y9715D01*
X7245D01*
X7161Y9631D02*
X7144Y9614D01*
X7110D01*
X7093Y9631D01*
Y9648D01*
X7110Y9665D01*
X7127D01*
X7110D01*
X7093Y9682D01*
Y9699D01*
X7110Y9715D01*
X7144D01*
X7161Y9699D01*
X7059Y9614D02*
Y9682D01*
X7025Y9715D01*
X6992Y9682D01*
Y9614D01*
X6958Y9732D02*
X6890D01*
X6788Y9631D02*
X6805Y9614D01*
X6839D01*
X6856Y9631D01*
Y9699D01*
X6839Y9715D01*
X6805D01*
X6788Y9699D01*
X6755Y9614D02*
X6721D01*
X6738D01*
Y9715D01*
X6755D01*
X6721D01*
X6602D02*
X6670D01*
X6602Y9648D01*
Y9631D01*
X6619Y9614D01*
X6653D01*
X6670Y9631D01*
X7760Y9415D02*
X7743Y9398D01*
X7709D01*
X7692Y9415D01*
Y9432D01*
X7709Y9449D01*
X7726D01*
X7709D01*
X7692Y9466D01*
Y9483D01*
X7709Y9500D01*
X7743D01*
X7760Y9483D01*
X7658Y9500D02*
Y9483D01*
X7641D01*
Y9500D01*
X7658D01*
X7573Y9415D02*
X7557Y9398D01*
X7523D01*
X7506Y9415D01*
Y9432D01*
X7523Y9449D01*
X7540D01*
X7523D01*
X7506Y9466D01*
Y9483D01*
X7523Y9500D01*
X7557D01*
X7573Y9483D01*
X7472Y9398D02*
Y9466D01*
X7438Y9500D01*
X7404Y9466D01*
Y9398D01*
X7370Y9517D02*
X7303D01*
X7201Y9415D02*
X7218Y9398D01*
X7252D01*
X7269Y9415D01*
Y9483D01*
X7252Y9500D01*
X7218D01*
X7201Y9483D01*
X7167Y9398D02*
Y9500D01*
X7100D01*
X6998D02*
X7066D01*
X6998Y9432D01*
Y9415D01*
X7015Y9398D01*
X7049D01*
X7066Y9415D01*
X6401Y9673D02*
X6418Y9690D01*
X6452D01*
X6469Y9673D01*
Y9656D01*
X6452Y9639D01*
X6435D01*
X6452D01*
X6469Y9622D01*
Y9605D01*
X6452Y9589D01*
X6418D01*
X6401Y9605D01*
X6502Y9589D02*
Y9605D01*
X6519D01*
Y9589D01*
X6502D01*
X6587Y9673D02*
X6604Y9690D01*
X6638D01*
X6655Y9673D01*
Y9656D01*
X6638Y9639D01*
X6621D01*
X6638D01*
X6655Y9622D01*
Y9605D01*
X6638Y9589D01*
X6604D01*
X6587Y9605D01*
X6689Y9690D02*
Y9622D01*
X6722Y9589D01*
X6756Y9622D01*
Y9690D01*
X6790Y9572D02*
X6858D01*
X6959Y9673D02*
X6942Y9690D01*
X6909D01*
X6892Y9673D01*
Y9605D01*
X6909Y9589D01*
X6942D01*
X6959Y9605D01*
X6993Y9690D02*
X7027D01*
X7010D01*
Y9589D01*
X6993D01*
X7027D01*
X7078D02*
X7112D01*
X7095D01*
Y9690D01*
X7078Y9673D01*
X6219Y9449D02*
X6236Y9432D01*
Y9398D01*
X6219Y9381D01*
X6202D01*
X6185Y9398D01*
Y9415D01*
Y9398D01*
X6168Y9381D01*
X6151D01*
X6134Y9398D01*
Y9432D01*
X6151Y9449D01*
X6134Y9347D02*
X6151D01*
Y9330D01*
X6134D01*
Y9347D01*
X6219Y9263D02*
X6236Y9246D01*
Y9212D01*
X6219Y9195D01*
X6202D01*
X6185Y9212D01*
Y9229D01*
Y9212D01*
X6168Y9195D01*
X6151D01*
X6134Y9212D01*
Y9246D01*
X6151Y9263D01*
X6236Y9161D02*
X6168D01*
X6134Y9127D01*
X6168Y9093D01*
X6236D01*
X6117Y9059D02*
Y8992D01*
X6219Y8890D02*
X6236Y8907D01*
Y8941D01*
X6219Y8958D01*
X6151D01*
X6134Y8941D01*
Y8907D01*
X6151Y8890D01*
X6236Y8856D02*
X6134D01*
Y8789D01*
Y8755D02*
Y8721D01*
Y8738D01*
X6236D01*
X6219Y8755D01*
D22*
X6096Y8076D02*
X6146D01*
Y7976D02*
Y8076D01*
X6096Y7976D02*
X6146D01*
X6096D02*
Y8076D01*
Y8046D02*
X6146D01*
X6096D02*
Y8076D01*
X6146D01*
Y8046D02*
Y8076D01*
X6096Y8006D02*
X6146D01*
Y7976D02*
Y8006D01*
X6096Y7976D02*
X6146D01*
X6096D02*
Y8006D01*
D23*
X7091Y8852D02*
D03*
X6587Y8852D02*
D03*
D137*
X7445Y7442D02*
X7516D01*
X7480Y7407D02*
Y7478D01*
X7394Y7633D02*
X7465D01*
X7429Y7597D02*
Y7668D01*
X6848Y5766D02*
X6919D01*
X6883Y5730D02*
Y5801D01*
X5845Y6261D02*
X5916D01*
X5880Y6226D02*
Y6297D01*
X5349Y7252D02*
X5420D01*
X5385Y7216D02*
Y7287D01*
X5451Y7442D02*
X5522D01*
X5486Y7407D02*
Y7478D01*
X6632Y3163D02*
X6703D01*
X6668Y3128D02*
Y3199D01*
X6353Y5131D02*
X6424D01*
X6388Y5095D02*
Y5166D01*
X5806Y7557D02*
X5878D01*
X5842Y7521D02*
Y7592D01*
X6873Y5156D02*
X6944D01*
X6909Y5121D02*
Y5192D01*
X6162Y5131D02*
X6233D01*
X6198Y5095D02*
Y5166D01*
X6391Y3162D02*
X6462D01*
X6426Y3127D02*
Y3198D01*
X7191Y7290D02*
X7262D01*
X7226Y7254D02*
Y7325D01*
M02*
