M48
;Layer_Color=6321
;FILE_FORMAT=4:2
METRIC,LZ
;TYPE=PLATED
T1F00S00C0.40
T3F00S00C0.71
T4F00S00C0.89
T5F00S00C1.00
%
T01
X00304Y009862
Y009947
Y010032
Y010117
Y010202
Y010287
Y010372
Y010457
X003175
Y010372
Y010287
Y010202
Y010117
Y010032
Y009947
Y009862
T03
X002794Y009347
X003912Y009449
X003518Y010084
X003581Y010719
X003289Y011011
X002705Y010833
X003696Y011443
X004851Y01143
X005258Y01077
X005182Y010262
X005004
X00475Y010249
X005488Y010257
X005359Y009639
X005182
X005017Y009373
X004699Y009525
X004267Y008636
X006325Y00903
X006312Y009296
T04
X005804Y008433
X006005
X006205
X006406
X006607
X006807
X007008
X007209
X007409
X00761
Y010632
X007409
X007209
X007008
X006807
X006607
X006406
X006205
X006005
X005804
T05
X00395Y010878
Y011328
X0046
Y010878
M30
