M48
;Layer_Color=6321
;FILE_FORMAT=4:2
METRIC,LZ
;TYPE=PLATED
T2F00S00C0.65
T3F00S00C0.71
T4F00S00C0.76
T5F00S00C0.89
T6F00S00C1.20
;TYPE=NON_PLATED
T7F00S00C3.20
%
T02
X006134Y006045
Y006172
X006261
Y006045
T03
X008204Y004293
X007823
X007734Y007645
X003466Y009617
X00297
T04
X004343Y004699
Y005004
Y00776
Y008064
T05
X008087Y005728
Y005928
Y006129
Y00633
Y00653
Y006731
Y006932
Y007132
Y007333
Y007534
X010287
Y007333
Y007132
Y006932
Y006731
Y00653
Y00633
Y006129
Y005928
Y005728
T06
X005118Y004229
X003581
Y008699
X005118
T07
X00285Y00285
X01015
X00285Y0102
X01015
M30
