M48
;Layer_Color=6321
;FILE_FORMAT=4:2
METRIC,LZ
;TYPE=PLATED
T3F00S00C0.71
;TYPE=NON_PLATED
%
T03
X005029Y003111
X004966Y003391
X009652Y003759
Y003962
Y004369
Y004572
X008395Y004293
X008014
X009093Y005931
X008788Y006744
X007214Y006617
X006871Y00635
X006883Y00616
Y005969
X006439Y006045
Y006236
X006377Y006418
X006083Y006401
X006007Y006579
X005728Y00649
Y006693
Y006883
Y007074
X006426Y007734
Y007925
X006998Y007709
X007226Y007671
X007214Y00569
X005994Y005321
X004343Y005245
Y008382
X006648Y00816
X00682Y008217
X008446Y008623
M30
